<svg width="450" height="56" viewBox="0 0 450 56" fill="none" xmlns="http://www.w3.org/2000/svg">
<rect opacity="0.15" width="448" height="56" rx="27" fill="#C4C4C4"/>
<path d="M81.1891 34V21.22H86.5171C87.0811 21.22 87.5971 21.34 88.0651 21.58C88.5451 21.808 88.9531 22.12 89.2891 22.516C89.6371 22.9 89.9071 23.338 90.0991 23.83C90.2911 24.31 90.3871 24.802 90.3871 25.306C90.3871 25.834 90.2971 26.344 90.1171 26.836C89.9371 27.328 89.6791 27.766 89.3431 28.15C89.0191 28.534 88.6231 28.84 88.1551 29.068C87.6991 29.296 87.1891 29.41 86.6251 29.41H82.8091V34H81.1891ZM82.8091 27.97H86.5351C86.8711 27.97 87.1711 27.904 87.4351 27.772C87.7111 27.628 87.9451 27.436 88.1371 27.196C88.3291 26.944 88.4791 26.656 88.5871 26.332C88.6951 26.008 88.7491 25.666 88.7491 25.306C88.7491 24.934 88.6831 24.586 88.5511 24.262C88.4311 23.938 88.2631 23.656 88.0471 23.416C87.8431 23.176 87.5971 22.99 87.3091 22.858C87.0331 22.726 86.7391 22.66 86.4271 22.66H82.8091V27.97ZM93.484 34V21.22H98.956C99.52 21.22 100.036 21.34 100.504 21.58C100.984 21.808 101.392 22.12 101.728 22.516C102.076 22.9 102.346 23.338 102.538 23.83C102.73 24.31 102.826 24.802 102.826 25.306C102.826 25.75 102.76 26.182 102.628 26.602C102.508 27.01 102.328 27.382 102.088 27.718C101.86 28.054 101.578 28.342 101.242 28.582C100.918 28.822 100.552 28.996 100.144 29.104L103.24 34H101.404L98.488 29.41H95.104V34H93.484ZM95.104 27.97H98.974C99.31 27.97 99.61 27.898 99.874 27.754C100.15 27.61 100.384 27.418 100.576 27.178C100.768 26.926 100.918 26.638 101.026 26.314C101.134 25.99 101.188 25.654 101.188 25.306C101.188 24.946 101.122 24.61 100.99 24.298C100.87 23.974 100.702 23.692 100.486 23.452C100.282 23.2 100.036 23.008 99.748 22.876C99.472 22.732 99.178 22.66 98.866 22.66H95.104V27.97ZM115.07 32.56V34H106.394V21.22H114.908V22.66H108.014V26.8H114.008V28.15H108.014V32.56H115.07ZM125.878 23.902C125.734 23.734 125.542 23.572 125.302 23.416C125.062 23.26 124.792 23.122 124.492 23.002C124.192 22.87 123.862 22.768 123.502 22.696C123.154 22.612 122.788 22.57 122.404 22.57C121.408 22.57 120.676 22.756 120.208 23.128C119.752 23.5 119.524 24.01 119.524 24.658C119.524 25.006 119.59 25.294 119.722 25.522C119.854 25.75 120.058 25.948 120.334 26.116C120.622 26.272 120.976 26.41 121.396 26.53C121.816 26.65 122.314 26.776 122.89 26.908C123.55 27.052 124.144 27.22 124.672 27.412C125.212 27.592 125.668 27.82 126.04 28.096C126.424 28.372 126.712 28.708 126.904 29.104C127.108 29.5 127.21 29.986 127.21 30.562C127.21 31.174 127.09 31.708 126.85 32.164C126.61 32.608 126.28 32.98 125.86 33.28C125.452 33.568 124.966 33.784 124.402 33.928C123.838 34.06 123.226 34.126 122.566 34.126C121.582 34.126 120.646 33.976 119.758 33.676C118.882 33.364 118.084 32.914 117.364 32.326L118.138 30.958C118.33 31.162 118.576 31.366 118.876 31.57C119.188 31.774 119.536 31.96 119.92 32.128C120.316 32.284 120.736 32.416 121.18 32.524C121.636 32.62 122.11 32.668 122.602 32.668C123.514 32.668 124.222 32.506 124.726 32.182C125.23 31.858 125.482 31.372 125.482 30.724C125.482 30.364 125.398 30.064 125.23 29.824C125.074 29.572 124.84 29.356 124.528 29.176C124.216 28.996 123.826 28.84 123.358 28.708C122.902 28.564 122.38 28.42 121.792 28.276C121.144 28.12 120.574 27.952 120.082 27.772C119.59 27.592 119.176 27.376 118.84 27.124C118.516 26.872 118.27 26.566 118.102 26.206C117.934 25.846 117.85 25.414 117.85 24.91C117.85 24.298 117.964 23.758 118.192 23.29C118.42 22.822 118.738 22.426 119.146 22.102C119.554 21.778 120.04 21.538 120.604 21.382C121.168 21.214 121.78 21.13 122.44 21.13C123.304 21.13 124.084 21.262 124.78 21.526C125.476 21.79 126.094 22.144 126.634 22.588L125.878 23.902ZM137.927 23.902C137.783 23.734 137.591 23.572 137.351 23.416C137.111 23.26 136.841 23.122 136.541 23.002C136.241 22.87 135.911 22.768 135.551 22.696C135.203 22.612 134.837 22.57 134.453 22.57C133.457 22.57 132.725 22.756 132.257 23.128C131.801 23.5 131.573 24.01 131.573 24.658C131.573 25.006 131.639 25.294 131.771 25.522C131.903 25.75 132.107 25.948 132.383 26.116C132.671 26.272 133.025 26.41 133.445 26.53C133.865 26.65 134.363 26.776 134.939 26.908C135.599 27.052 136.193 27.22 136.721 27.412C137.261 27.592 137.717 27.82 138.089 28.096C138.473 28.372 138.761 28.708 138.953 29.104C139.157 29.5 139.259 29.986 139.259 30.562C139.259 31.174 139.139 31.708 138.899 32.164C138.659 32.608 138.329 32.98 137.909 33.28C137.501 33.568 137.015 33.784 136.451 33.928C135.887 34.06 135.275 34.126 134.615 34.126C133.631 34.126 132.695 33.976 131.807 33.676C130.931 33.364 130.133 32.914 129.413 32.326L130.187 30.958C130.379 31.162 130.625 31.366 130.925 31.57C131.237 31.774 131.585 31.96 131.969 32.128C132.365 32.284 132.785 32.416 133.229 32.524C133.685 32.62 134.159 32.668 134.651 32.668C135.563 32.668 136.271 32.506 136.775 32.182C137.279 31.858 137.531 31.372 137.531 30.724C137.531 30.364 137.447 30.064 137.279 29.824C137.123 29.572 136.889 29.356 136.577 29.176C136.265 28.996 135.875 28.84 135.407 28.708C134.951 28.564 134.429 28.42 133.841 28.276C133.193 28.12 132.623 27.952 132.131 27.772C131.639 27.592 131.225 27.376 130.889 27.124C130.565 26.872 130.319 26.566 130.151 26.206C129.983 25.846 129.899 25.414 129.899 24.91C129.899 24.298 130.013 23.758 130.241 23.29C130.469 22.822 130.787 22.426 131.195 22.102C131.603 21.778 132.089 21.538 132.653 21.382C133.217 21.214 133.829 21.13 134.489 21.13C135.353 21.13 136.133 21.262 136.829 21.526C137.525 21.79 138.143 22.144 138.683 22.588L137.927 23.902ZM151.428 21.22H152.796L158.016 34H156.288L154.776 30.256H149.412L147.918 34H146.19L151.428 21.22ZM154.416 28.996L152.112 23.092L149.736 28.996H154.416ZM162.422 24.244V34H160.802V21.22H162.062L169.982 31.174V21.238H171.602V34H170.234L162.422 24.244ZM176.219 21.22L180.089 27.88L183.995 21.22H185.759L180.899 29.338V34H179.279V29.302L174.437 21.22H176.219ZM203.383 30.706C203.383 31.198 203.281 31.648 203.077 32.056C202.885 32.464 202.615 32.812 202.267 33.1C201.931 33.388 201.535 33.61 201.079 33.766C200.635 33.922 200.155 34 199.639 34H193.573V21.22H199.927C200.371 21.22 200.773 21.316 201.133 21.508C201.493 21.7 201.799 21.952 202.051 22.264C202.303 22.564 202.495 22.912 202.627 23.308C202.771 23.692 202.843 24.082 202.843 24.478C202.843 25.114 202.681 25.702 202.357 26.242C202.045 26.782 201.595 27.184 201.007 27.448C201.739 27.664 202.315 28.066 202.735 28.654C203.167 29.23 203.383 29.914 203.383 30.706ZM201.745 30.418C201.745 30.13 201.691 29.854 201.583 29.59C201.487 29.314 201.349 29.074 201.169 28.87C201.001 28.666 200.797 28.504 200.557 28.384C200.317 28.264 200.053 28.204 199.765 28.204H195.193V32.596H199.639C199.939 32.596 200.215 32.536 200.467 32.416C200.719 32.296 200.941 32.14 201.133 31.948C201.325 31.744 201.475 31.51 201.583 31.246C201.691 30.982 201.745 30.706 201.745 30.418ZM195.193 22.624V26.89H199.261C199.549 26.89 199.813 26.836 200.053 26.728C200.293 26.608 200.497 26.452 200.665 26.26C200.845 26.068 200.983 25.846 201.079 25.594C201.187 25.33 201.241 25.054 201.241 24.766C201.241 24.466 201.193 24.184 201.097 23.92C201.001 23.656 200.869 23.428 200.701 23.236C200.545 23.044 200.347 22.894 200.107 22.786C199.879 22.678 199.633 22.624 199.369 22.624H195.193ZM211.985 32.632C212.729 32.632 213.347 32.488 213.839 32.2C214.331 31.912 214.721 31.54 215.009 31.084C215.309 30.616 215.519 30.088 215.639 29.5C215.759 28.9 215.819 28.294 215.819 27.682V21.22H217.439V27.682C217.439 28.546 217.337 29.368 217.133 30.148C216.941 30.916 216.629 31.594 216.197 32.182C215.765 32.77 215.201 33.238 214.505 33.586C213.821 33.922 212.987 34.09 212.003 34.09C210.983 34.09 210.125 33.91 209.429 33.55C208.733 33.19 208.169 32.716 207.737 32.128C207.317 31.528 207.011 30.844 206.819 30.076C206.639 29.296 206.549 28.498 206.549 27.682V21.22H208.169V27.682C208.169 28.318 208.229 28.936 208.349 29.536C208.481 30.124 208.691 30.646 208.979 31.102C209.279 31.558 209.669 31.93 210.149 32.218C210.641 32.494 211.253 32.632 211.985 32.632ZM230.613 22.66H226.203V34H224.583V22.66H220.173V21.22H230.613V22.66ZM242.75 22.66H238.34V34H236.72V22.66H232.31V21.22H242.75V22.66ZM250.468 34.09C249.568 34.09 248.746 33.91 248.002 33.55C247.27 33.178 246.64 32.692 246.112 32.092C245.584 31.48 245.176 30.784 244.888 30.004C244.6 29.224 244.456 28.426 244.456 27.61C244.456 26.758 244.606 25.942 244.906 25.162C245.218 24.382 245.644 23.692 246.184 23.092C246.724 22.492 247.36 22.018 248.092 21.67C248.836 21.31 249.64 21.13 250.504 21.13C251.404 21.13 252.22 21.322 252.952 21.706C253.684 22.078 254.314 22.57 254.842 23.182C255.37 23.794 255.778 24.49 256.066 25.27C256.354 26.038 256.498 26.824 256.498 27.628C256.498 28.48 256.342 29.296 256.03 30.076C255.73 30.856 255.31 31.546 254.77 32.146C254.242 32.734 253.606 33.208 252.862 33.568C252.13 33.916 251.332 34.09 250.468 34.09ZM246.094 27.61C246.094 28.258 246.196 28.888 246.4 29.5C246.616 30.1 246.916 30.634 247.3 31.102C247.684 31.57 248.146 31.942 248.686 32.218C249.226 32.494 249.826 32.632 250.486 32.632C251.17 32.632 251.782 32.488 252.322 32.2C252.862 31.9 253.318 31.516 253.69 31.048C254.074 30.568 254.362 30.028 254.554 29.428C254.758 28.828 254.86 28.222 254.86 27.61C254.86 26.962 254.752 26.338 254.536 25.738C254.332 25.126 254.032 24.592 253.636 24.136C253.252 23.668 252.79 23.296 252.25 23.02C251.722 22.744 251.134 22.606 250.486 22.606C249.802 22.606 249.19 22.75 248.65 23.038C248.11 23.326 247.648 23.704 247.264 24.172C246.892 24.64 246.604 25.174 246.4 25.774C246.196 26.374 246.094 26.986 246.094 27.61ZM261.449 24.244V34H259.829V21.22H261.089L269.009 31.174V21.238H270.629V34H269.261L261.449 24.244ZM289.064 22.66H284.654V34H283.034V22.66H278.624V21.22H289.064V22.66ZM296.782 34.09C295.882 34.09 295.06 33.91 294.316 33.55C293.584 33.178 292.954 32.692 292.426 32.092C291.898 31.48 291.49 30.784 291.202 30.004C290.914 29.224 290.77 28.426 290.77 27.61C290.77 26.758 290.92 25.942 291.22 25.162C291.532 24.382 291.958 23.692 292.498 23.092C293.038 22.492 293.674 22.018 294.406 21.67C295.15 21.31 295.954 21.13 296.818 21.13C297.718 21.13 298.534 21.322 299.266 21.706C299.998 22.078 300.628 22.57 301.156 23.182C301.684 23.794 302.092 24.49 302.38 25.27C302.668 26.038 302.812 26.824 302.812 27.628C302.812 28.48 302.656 29.296 302.344 30.076C302.044 30.856 301.624 31.546 301.084 32.146C300.556 32.734 299.92 33.208 299.176 33.568C298.444 33.916 297.646 34.09 296.782 34.09ZM292.408 27.61C292.408 28.258 292.51 28.888 292.714 29.5C292.93 30.1 293.23 30.634 293.614 31.102C293.998 31.57 294.46 31.942 295 32.218C295.54 32.494 296.14 32.632 296.8 32.632C297.484 32.632 298.096 32.488 298.636 32.2C299.176 31.9 299.632 31.516 300.004 31.048C300.388 30.568 300.676 30.028 300.868 29.428C301.072 28.828 301.174 28.222 301.174 27.61C301.174 26.962 301.066 26.338 300.85 25.738C300.646 25.126 300.346 24.592 299.95 24.136C299.566 23.668 299.104 23.296 298.564 23.02C298.036 22.744 297.448 22.606 296.8 22.606C296.116 22.606 295.504 22.75 294.964 23.038C294.424 23.326 293.962 23.704 293.578 24.172C293.206 24.64 292.918 25.174 292.714 25.774C292.51 26.374 292.408 26.986 292.408 27.61ZM319.281 23.902C319.137 23.734 318.945 23.572 318.705 23.416C318.465 23.26 318.195 23.122 317.895 23.002C317.595 22.87 317.265 22.768 316.905 22.696C316.557 22.612 316.191 22.57 315.807 22.57C314.811 22.57 314.079 22.756 313.611 23.128C313.155 23.5 312.927 24.01 312.927 24.658C312.927 25.006 312.993 25.294 313.125 25.522C313.257 25.75 313.461 25.948 313.737 26.116C314.025 26.272 314.379 26.41 314.799 26.53C315.219 26.65 315.717 26.776 316.293 26.908C316.953 27.052 317.547 27.22 318.075 27.412C318.615 27.592 319.071 27.82 319.443 28.096C319.827 28.372 320.115 28.708 320.307 29.104C320.511 29.5 320.613 29.986 320.613 30.562C320.613 31.174 320.493 31.708 320.253 32.164C320.013 32.608 319.683 32.98 319.263 33.28C318.855 33.568 318.369 33.784 317.805 33.928C317.241 34.06 316.629 34.126 315.969 34.126C314.985 34.126 314.049 33.976 313.161 33.676C312.285 33.364 311.487 32.914 310.767 32.326L311.541 30.958C311.733 31.162 311.979 31.366 312.279 31.57C312.591 31.774 312.939 31.96 313.323 32.128C313.719 32.284 314.139 32.416 314.583 32.524C315.039 32.62 315.513 32.668 316.005 32.668C316.917 32.668 317.625 32.506 318.129 32.182C318.633 31.858 318.885 31.372 318.885 30.724C318.885 30.364 318.801 30.064 318.633 29.824C318.477 29.572 318.243 29.356 317.931 29.176C317.619 28.996 317.229 28.84 316.761 28.708C316.305 28.564 315.783 28.42 315.195 28.276C314.547 28.12 313.977 27.952 313.485 27.772C312.993 27.592 312.579 27.376 312.243 27.124C311.919 26.872 311.673 26.566 311.505 26.206C311.337 25.846 311.253 25.414 311.253 24.91C311.253 24.298 311.367 23.758 311.595 23.29C311.823 22.822 312.141 22.426 312.549 22.102C312.957 21.778 313.443 21.538 314.007 21.382C314.571 21.214 315.183 21.13 315.843 21.13C316.707 21.13 317.487 21.262 318.183 21.526C318.879 21.79 319.497 22.144 320.037 22.588L319.281 23.902ZM333.04 22.66H328.63V34H327.01V22.66H322.6V21.22H333.04V22.66ZM338.636 21.22H340.004L345.224 34H343.496L341.984 30.256H336.62L335.126 34H333.398L338.636 21.22ZM341.624 28.996L339.32 23.092L336.944 28.996H341.624ZM348.01 34V21.22H353.482C354.046 21.22 354.562 21.34 355.03 21.58C355.51 21.808 355.918 22.12 356.254 22.516C356.602 22.9 356.872 23.338 357.064 23.83C357.256 24.31 357.352 24.802 357.352 25.306C357.352 25.75 357.286 26.182 357.154 26.602C357.034 27.01 356.854 27.382 356.614 27.718C356.386 28.054 356.104 28.342 355.768 28.582C355.444 28.822 355.078 28.996 354.67 29.104L357.766 34H355.93L353.014 29.41H349.63V34H348.01ZM349.63 27.97H353.5C353.836 27.97 354.136 27.898 354.4 27.754C354.676 27.61 354.91 27.418 355.102 27.178C355.294 26.926 355.444 26.638 355.552 26.314C355.66 25.99 355.714 25.654 355.714 25.306C355.714 24.946 355.648 24.61 355.516 24.298C355.396 23.974 355.228 23.692 355.012 23.452C354.808 23.2 354.562 23.008 354.274 22.876C353.998 22.732 353.704 22.66 353.392 22.66H349.63V27.97ZM370.03 22.66H365.62V34H364V22.66H359.59V21.22H370.03V22.66Z" fill="white"/>
</svg>
