<svg width="914" height="292" viewBox="0 0 914 292" fill="none" xmlns="http://www.w3.org/2000/svg">
<rect opacity="0.15" width="914" height="292" rx="40" fill="white"/>
<g clip-path="url(#clip0)">
<path opacity="0.5" d="M634.982 238.406V154.113H641.123V232.866H691.437V238.406H634.982Z" fill="white"/>
<path d="M53.0002 137.294V53H87.6656C91.2312 53 94.5987 53.7915 97.57 55.1766C100.541 56.7596 103.116 58.7383 105.295 61.1128C107.474 63.6851 109.257 66.4553 110.446 69.6213C111.634 72.7872 112.228 75.9532 112.228 79.1191C112.228 82.483 111.634 85.8468 110.446 89.0128C109.257 92.1787 107.672 94.9489 105.494 97.5213C103.315 99.8957 100.937 101.874 97.9662 103.457C94.9949 104.843 91.8254 105.634 88.2599 105.634H59.141V137.491H53.0002V137.294ZM59.141 99.8957H88.2599C91.0331 99.8957 93.6082 99.3021 95.7872 98.1149C97.9662 96.9277 99.947 95.3447 101.334 93.5638C102.918 91.5851 104.107 89.4085 104.899 86.8362C105.692 84.2638 106.088 81.6915 106.088 79.1191C106.088 76.3489 105.494 73.7766 104.503 71.2043C103.513 68.6319 102.126 66.4553 100.541 64.6745C98.7585 62.6957 96.7776 61.3106 94.5987 60.1234C92.4197 58.9362 89.8446 58.5404 87.4675 58.5404H59.141V99.8957Z" fill="white"/>
<path d="M153.827 53H158.977L194.633 137.294H188.294L176.607 109.591H136.395L124.708 137.294H118.171L153.827 53ZM175.022 104.447L156.6 60.3213L137.782 104.447H175.022Z" fill="white"/>
<path d="M213.649 137.294V53H248.711C252.277 53 255.644 53.7915 258.615 55.1766C261.587 56.7596 264.162 58.7383 266.341 61.1128C268.52 63.6851 270.303 66.4553 271.491 69.6213C272.68 72.7872 273.274 75.9532 273.274 79.1191C273.274 82.2851 272.878 85.2532 271.887 88.0234C270.897 90.9915 269.51 93.5638 267.925 95.7404C266.143 98.1149 264.162 99.8957 261.587 101.479C259.21 103.062 256.436 104.051 253.465 104.447L274.462 137.294H267.529L246.928 105.436H219.592V137.294H213.649ZM219.592 99.8957H249.107C251.88 99.8957 254.257 99.3021 256.436 98.1149C258.615 96.9277 260.596 95.3447 262.181 93.366C263.766 91.3872 264.954 89.2106 265.747 86.6383C266.539 84.066 266.935 81.6915 266.935 78.9213C266.935 76.1511 266.539 73.5787 265.35 71.2043C264.162 68.8298 262.973 66.4553 261.389 64.6745C259.804 62.8936 257.625 61.3106 255.446 60.1234C253.267 58.9362 250.692 58.3426 248.117 58.3426H219.592V99.8957Z" fill="white"/>
<path d="M327.748 53H332.898L368.554 137.294H362.215L350.528 109.591H310.316L298.629 137.294H292.092L327.748 53ZM348.745 104.447L330.323 60.3213L311.703 104.447H348.745Z" fill="white"/>
<path opacity="0.5" d="M491.765 239C485.822 239 480.474 237.813 475.72 235.24C470.965 232.866 466.806 229.502 463.24 225.545C459.674 221.587 457.099 217.036 455.118 211.891C453.138 206.747 452.345 201.404 452.345 196.062C452.345 190.521 453.336 184.981 455.317 179.836C457.297 174.691 460.071 170.14 463.636 166.183C467.202 162.226 471.362 159.06 476.116 156.685C480.87 154.311 486.218 153.123 491.765 153.123C497.707 153.123 503.056 154.311 507.81 156.883C512.564 159.455 516.922 162.621 520.289 166.777C523.657 170.932 526.43 175.285 528.213 180.43C530.194 185.574 530.986 190.719 530.986 195.864C530.986 201.602 529.996 206.945 528.015 212.089C526.034 217.234 523.261 221.785 519.695 225.743C516.129 229.7 511.97 232.866 507.216 235.043C502.461 237.813 497.311 239 491.765 239ZM458.288 196.26C458.288 201.009 459.08 205.757 460.665 210.111C462.25 214.662 464.627 218.619 467.598 221.983C470.569 225.347 474.135 228.117 478.295 230.294C482.455 232.272 487.011 233.46 491.765 233.46C496.915 233.46 501.471 232.47 505.433 230.294C509.593 228.117 512.96 225.347 515.931 221.785C518.903 218.223 521.082 214.266 522.666 209.913C524.251 205.56 525.043 201.009 525.043 196.457C525.043 191.709 524.251 186.96 522.468 182.606C520.884 178.055 518.507 174.098 515.535 170.734C512.564 167.37 508.998 164.6 505.037 162.423C501.075 160.247 496.519 159.257 491.765 159.257C486.614 159.257 482.058 160.247 477.899 162.423C473.739 164.6 470.173 167.37 467.4 170.932C464.429 174.494 462.25 178.451 460.665 182.804C459.08 187.157 458.288 191.709 458.288 196.26Z" fill="white"/>
<path opacity="0.5" d="M552.38 238.406V154.113H587.441C591.007 154.113 594.374 154.904 597.346 156.289C600.317 157.872 602.892 159.851 605.071 162.226C607.25 164.798 609.033 167.568 610.221 170.734C611.41 173.9 612.004 177.066 612.004 180.232C612.004 183.398 611.608 186.366 610.617 189.136C609.627 192.104 608.24 194.677 606.656 196.853C604.873 199.228 602.892 201.009 600.317 202.591C597.94 204.174 595.167 205.164 592.195 205.56L613.193 238.406H606.259L585.856 206.549H558.52V238.406H552.38V238.406ZM558.52 201.009H588.035C590.809 201.009 593.186 200.415 595.365 199.228C597.544 198.04 599.525 196.457 601.109 194.479C602.694 192.5 603.882 190.323 604.675 187.751C605.467 185.179 605.863 182.804 605.863 180.034C605.863 177.264 605.467 174.691 604.279 172.317C603.09 169.943 601.902 167.568 600.317 165.787C598.732 164.006 596.553 162.423 594.374 161.236C592.195 160.049 589.62 159.455 587.045 159.455H558.322V201.009H558.52Z" fill="white"/>
<path opacity="0.5" d="M711.642 238.406V154.113H739.771C746.506 154.113 752.25 155.3 757.202 157.477C762.154 159.653 766.512 162.621 769.682 166.579C772.851 170.536 775.426 174.889 777.209 180.034C778.794 185.179 779.784 190.521 779.784 196.26C779.784 202.591 778.794 208.528 777.011 213.672C775.228 218.817 772.455 223.368 769.088 226.93C765.522 230.689 761.362 233.46 756.41 235.438C751.458 237.417 745.911 238.406 739.771 238.406H711.642ZM773.644 196.062C773.644 190.719 772.851 185.97 771.465 181.419C769.88 176.868 767.701 173.109 764.928 169.745C761.956 166.579 758.589 164.006 754.231 162.226C750.071 160.445 745.119 159.455 739.771 159.455H717.783V232.866H739.771C745.317 232.866 750.269 231.877 754.429 230.096C758.589 228.315 762.154 225.743 765.126 222.379C767.899 219.015 770.078 215.057 771.663 210.704C772.851 206.153 773.644 201.404 773.644 196.062Z" fill="white"/>
<path opacity="0.5" d="M853.275 168.162C847.728 162.028 840.003 159.06 830.099 159.06C821.779 159.06 815.836 160.643 812.073 163.809C808.309 166.974 806.328 171.13 806.328 176.472C806.328 179.243 806.724 181.419 807.715 183.2C808.705 184.981 810.092 186.564 812.073 187.751C814.053 188.938 816.629 190.126 819.798 190.917C822.967 191.709 826.533 192.698 830.891 193.687C835.447 194.677 839.409 195.666 843.172 196.853C846.936 198.04 849.907 199.426 852.482 201.206C855.058 202.987 857.039 205.164 858.425 207.538C859.812 210.111 860.406 213.277 860.406 216.838C860.406 220.598 859.614 223.764 858.227 226.534C856.84 229.304 854.661 231.679 852.086 233.46C849.511 235.24 846.342 236.823 842.578 237.615C838.814 238.604 834.853 239 830.297 239C817.223 239 805.932 234.845 796.82 226.336L799.989 221.389C803.555 225.149 807.913 228.117 813.063 230.294C818.213 232.47 823.958 233.657 830.495 233.657C837.824 233.657 843.569 232.272 847.728 229.7C851.888 226.93 854.067 222.972 854.067 217.432C854.067 214.662 853.473 212.287 852.482 210.309C851.294 208.33 849.709 206.747 847.53 205.362C845.351 203.977 842.578 202.789 839.211 201.602C835.843 200.613 832.079 199.623 827.523 198.634C822.967 197.645 819.006 196.655 815.638 195.666C812.271 194.677 809.299 193.291 806.922 191.709C804.545 190.126 802.762 188.147 801.574 185.772C800.385 183.398 799.791 180.628 799.791 177.066C799.791 173.306 800.584 169.943 801.97 166.974C803.357 164.006 805.536 161.632 808.111 159.455C810.686 157.477 813.855 155.894 817.421 154.904C820.987 153.915 825.146 153.321 829.504 153.321C835.051 153.321 839.805 154.113 844.163 155.696C848.521 157.279 852.284 159.851 855.85 163.215L853.275 168.162Z" fill="white"/>
<path d="M441.451 53L386.184 182.013L374.299 154.113H367.762L383.015 189.532L365.187 230.887L332.304 154.113H325.965L362.017 238.406H368.356H368.554L447.789 53H441.451Z" fill="white"/>
<path opacity="0.5" d="M503.848 131.951H455.911L489.586 53H483.247L403.814 238.406H410.351L453.534 137.294H503.848V131.951Z" fill="white"/>
<path opacity="0.5" d="M615.173 139.272V54.9787H621.314V133.732H671.628V139.272H615.173V139.272Z" fill="white"/>
<path opacity="0.5" d="M584.866 133.732V139.272H528.609V54.9787H583.876V60.5192H534.75V93.5638H577.735V98.7085H534.75V133.732H584.866Z" fill="white"/>
</g>
<defs>
<clipPath id="clip0">
<rect width="808" height="186" fill="white" transform="translate(53.0002 53)"/>
</clipPath>
</defs>
</svg>
