<svg width="560" height="680" viewBox="0 0 560 680" fill="none" xmlns="http://www.w3.org/2000/svg">
<rect opacity="0.15" width="560" height="680" rx="40" fill="white"/>
<path d="M81.53 359V346.22H85.958C86.978 346.22 87.872 346.388 88.64 346.724C89.42 347.06 90.068 347.516 90.584 348.092C91.1 348.668 91.484 349.346 91.736 350.126C92 350.894 92.132 351.716 92.132 352.592C92.132 353.564 91.988 354.446 91.7 355.238C91.412 356.018 90.998 356.69 90.458 357.254C89.918 357.806 89.264 358.238 88.496 358.55C87.74 358.85 86.894 359 85.958 359H81.53ZM90.494 352.592C90.494 351.872 90.392 351.212 90.188 350.612C89.996 350 89.702 349.478 89.306 349.046C88.922 348.614 88.448 348.278 87.884 348.038C87.32 347.786 86.678 347.66 85.958 347.66H83.15V357.56H85.958C86.69 357.56 87.338 357.434 87.902 357.182C88.478 356.93 88.952 356.582 89.324 356.138C89.708 355.694 89.996 355.172 90.188 354.572C90.392 353.96 90.494 353.3 90.494 352.592ZM98.9257 346.22H100.294L105.514 359H103.786L102.274 355.256H96.9097L95.4157 359H93.6877L98.9257 346.22ZM101.914 353.996L99.6097 348.092L97.2337 353.996H101.914ZM108.299 359V346.22H113.771C114.335 346.22 114.851 346.34 115.319 346.58C115.799 346.808 116.207 347.12 116.543 347.516C116.891 347.9 117.161 348.338 117.353 348.83C117.545 349.31 117.641 349.802 117.641 350.306C117.641 350.75 117.575 351.182 117.443 351.602C117.323 352.01 117.143 352.382 116.903 352.718C116.675 353.054 116.393 353.342 116.057 353.582C115.733 353.822 115.367 353.996 114.959 354.104L118.055 359H116.219L113.303 354.41H109.919V359H108.299ZM109.919 352.97H113.789C114.125 352.97 114.425 352.898 114.689 352.754C114.965 352.61 115.199 352.418 115.391 352.178C115.583 351.926 115.733 351.638 115.841 351.314C115.949 350.99 116.003 350.654 116.003 350.306C116.003 349.946 115.937 349.61 115.805 349.298C115.685 348.974 115.517 348.692 115.301 348.452C115.097 348.2 114.851 348.008 114.563 347.876C114.287 347.732 113.993 347.66 113.681 347.66H109.919V352.97ZM121.209 359V346.238H122.829V353.294L129.417 346.22H131.163L126.033 351.854L131.451 359H129.687L125.043 352.79L122.829 355.094V359H121.209ZM143.395 346.238H146.113L147.409 350.324L148.705 346.238H151.441L149.299 352.178L150.595 355.616L153.799 346.22H157.021L151.909 359H149.443L147.409 353.996L145.393 359H142.909L137.815 346.22H141.019L144.241 355.616L145.501 352.178L143.395 346.238ZM161.596 346.22H164.26L168.922 359H165.898L164.908 356.138H160.93L159.958 359H156.934L161.596 346.22ZM164.422 354.104L162.928 349.586L161.398 354.104H164.422ZM174.213 351.692V359H171.261V346.22H173.565L179.523 353.726V346.22H182.475V359H180.099L174.213 351.692ZM185.999 359V346.22H190.769C191.825 346.22 192.749 346.388 193.541 346.724C194.333 347.06 194.993 347.516 195.521 348.092C196.061 348.668 196.463 349.346 196.727 350.126C197.003 350.894 197.141 351.716 197.141 352.592C197.141 353.564 196.991 354.446 196.691 355.238C196.391 356.018 195.959 356.69 195.395 357.254C194.843 357.806 194.171 358.238 193.379 358.55C192.599 358.85 191.729 359 190.769 359H185.999ZM194.135 352.592C194.135 352.028 194.057 351.518 193.901 351.062C193.757 350.594 193.541 350.192 193.253 349.856C192.965 349.52 192.611 349.262 192.191 349.082C191.771 348.902 191.297 348.812 190.769 348.812H188.951V356.408H190.769C191.309 356.408 191.789 356.312 192.209 356.12C192.629 355.928 192.977 355.664 193.253 355.328C193.541 354.98 193.757 354.578 193.901 354.122C194.057 353.654 194.135 353.144 194.135 352.592ZM208.946 356.408V359H199.964V346.22H208.784V348.812H202.916V351.296H207.956V353.69H202.916V356.408H208.946ZM211.819 359V346.22H217.579C218.179 346.22 218.731 346.346 219.235 346.598C219.751 346.85 220.195 347.18 220.567 347.588C220.939 347.996 221.227 348.458 221.431 348.974C221.647 349.49 221.755 350.012 221.755 350.54C221.755 350.936 221.707 351.32 221.611 351.692C221.515 352.052 221.377 352.394 221.197 352.718C221.017 353.042 220.795 353.336 220.531 353.6C220.279 353.852 219.991 354.068 219.667 354.248L222.475 359H219.145L216.697 354.878H214.771V359H211.819ZM214.771 352.304H217.471C217.819 352.304 218.119 352.142 218.371 351.818C218.623 351.482 218.749 351.056 218.749 350.54C218.749 350.012 218.605 349.592 218.317 349.28C218.029 348.968 217.717 348.812 217.381 348.812H214.771V352.304ZM233.94 356.408V359H224.958V346.22H233.778V348.812H227.91V351.296H232.95V353.69H227.91V356.408H233.94ZM236.813 359V346.22H242.573C243.173 346.22 243.725 346.346 244.229 346.598C244.745 346.85 245.189 347.18 245.561 347.588C245.933 347.996 246.221 348.458 246.425 348.974C246.641 349.49 246.749 350.012 246.749 350.54C246.749 350.936 246.701 351.32 246.605 351.692C246.509 352.052 246.371 352.394 246.191 352.718C246.011 353.042 245.789 353.336 245.525 353.6C245.273 353.852 244.985 354.068 244.661 354.248L247.469 359H244.139L241.691 354.878H239.765V359H236.813ZM239.765 352.304H242.465C242.813 352.304 243.113 352.142 243.365 351.818C243.617 351.482 243.743 351.056 243.743 350.54C243.743 350.012 243.599 349.592 243.311 349.28C243.023 348.968 242.711 348.812 242.375 348.812H239.765V352.304ZM257.619 349.964C257.583 349.916 257.457 349.826 257.241 349.694C257.025 349.562 256.755 349.424 256.431 349.28C256.107 349.136 255.753 349.01 255.369 348.902C254.985 348.794 254.601 348.74 254.217 348.74C253.161 348.74 252.633 349.094 252.633 349.802C252.633 350.018 252.687 350.198 252.795 350.342C252.915 350.486 253.083 350.618 253.299 350.738C253.527 350.846 253.809 350.948 254.145 351.044C254.481 351.14 254.871 351.248 255.315 351.368C255.927 351.536 256.479 351.722 256.971 351.926C257.463 352.118 257.877 352.364 258.213 352.664C258.561 352.952 258.825 353.306 259.005 353.726C259.197 354.146 259.293 354.65 259.293 355.238C259.293 355.958 259.155 356.57 258.879 357.074C258.615 357.566 258.261 357.968 257.817 358.28C257.373 358.58 256.863 358.802 256.287 358.946C255.711 359.078 255.117 359.144 254.505 359.144C254.037 359.144 253.557 359.108 253.065 359.036C252.573 358.964 252.093 358.862 251.625 358.73C251.157 358.586 250.701 358.418 250.257 358.226C249.825 358.034 249.423 357.812 249.051 357.56L250.347 354.986C250.395 355.046 250.551 355.16 250.815 355.328C251.079 355.496 251.403 355.664 251.787 355.832C252.183 356 252.621 356.15 253.101 356.282C253.581 356.414 254.067 356.48 254.559 356.48C255.603 356.48 256.125 356.162 256.125 355.526C256.125 355.286 256.047 355.088 255.891 354.932C255.735 354.776 255.519 354.638 255.243 354.518C254.967 354.386 254.637 354.266 254.253 354.158C253.881 354.05 253.473 353.93 253.029 353.798C252.441 353.618 251.931 353.426 251.499 353.222C251.067 353.006 250.707 352.76 250.419 352.484C250.143 352.208 249.933 351.89 249.789 351.53C249.657 351.17 249.591 350.75 249.591 350.27C249.591 349.598 249.717 349.004 249.969 348.488C250.221 347.972 250.563 347.54 250.995 347.192C251.427 346.832 251.925 346.562 252.489 346.382C253.065 346.202 253.671 346.112 254.307 346.112C254.751 346.112 255.189 346.154 255.621 346.238C256.053 346.322 256.467 346.43 256.863 346.562C257.259 346.694 257.625 346.844 257.961 347.012C258.309 347.18 258.627 347.348 258.915 347.516L257.619 349.964ZM267.216 352.52C267.216 351.752 267.348 350.99 267.612 350.234C267.888 349.466 268.284 348.782 268.8 348.182C269.328 347.57 269.97 347.078 270.726 346.706C271.482 346.334 272.34 346.148 273.3 346.148C274.44 346.148 275.418 346.406 276.234 346.922C277.05 347.438 277.656 348.11 278.052 348.938L276.774 349.766C276.582 349.358 276.348 349.016 276.072 348.74C275.808 348.464 275.514 348.242 275.19 348.074C274.878 347.906 274.554 347.786 274.218 347.714C273.882 347.642 273.552 347.606 273.228 347.606C272.52 347.606 271.89 347.756 271.338 348.056C270.798 348.344 270.342 348.728 269.97 349.208C269.598 349.676 269.316 350.21 269.124 350.81C268.944 351.398 268.854 351.992 268.854 352.592C268.854 353.264 268.962 353.906 269.178 354.518C269.406 355.118 269.718 355.652 270.114 356.12C270.51 356.588 270.978 356.96 271.518 357.236C272.058 357.512 272.646 357.65 273.282 357.65C273.618 357.65 273.96 357.608 274.308 357.524C274.668 357.44 275.01 357.308 275.334 357.128C275.658 356.936 275.958 356.702 276.234 356.426C276.522 356.138 276.756 355.796 276.936 355.4L278.286 356.138C278.082 356.618 277.794 357.044 277.422 357.416C277.062 357.776 276.648 358.082 276.18 358.334C275.724 358.586 275.238 358.778 274.722 358.91C274.206 359.042 273.702 359.108 273.21 359.108C272.334 359.108 271.53 358.916 270.798 358.532C270.066 358.148 269.43 357.65 268.89 357.038C268.362 356.414 267.948 355.712 267.648 354.932C267.36 354.14 267.216 353.336 267.216 352.52ZM285.106 346.22H286.474L291.694 359H289.966L288.454 355.256H283.09L281.596 359H279.868L285.106 346.22ZM288.094 353.996L285.79 348.092L283.414 353.996H288.094ZM296.1 349.244V359H294.48V346.22H295.74L303.66 356.174V346.238H305.28V359H303.912L296.1 349.244ZM320.228 359.09C319.328 359.09 318.506 358.91 317.762 358.55C317.03 358.178 316.4 357.692 315.872 357.092C315.344 356.48 314.936 355.784 314.648 355.004C314.36 354.224 314.216 353.426 314.216 352.61C314.216 351.758 314.366 350.942 314.666 350.162C314.978 349.382 315.404 348.692 315.944 348.092C316.484 347.492 317.12 347.018 317.852 346.67C318.596 346.31 319.4 346.13 320.264 346.13C321.164 346.13 321.98 346.322 322.712 346.706C323.444 347.078 324.074 347.57 324.602 348.182C325.13 348.794 325.538 349.49 325.826 350.27C326.114 351.038 326.258 351.824 326.258 352.628C326.258 353.48 326.102 354.296 325.79 355.076C325.49 355.856 325.07 356.546 324.53 357.146C324.002 357.734 323.366 358.208 322.622 358.568C321.89 358.916 321.092 359.09 320.228 359.09ZM315.854 352.61C315.854 353.258 315.956 353.888 316.16 354.5C316.376 355.1 316.676 355.634 317.06 356.102C317.444 356.57 317.906 356.942 318.446 357.218C318.986 357.494 319.586 357.632 320.246 357.632C320.93 357.632 321.542 357.488 322.082 357.2C322.622 356.9 323.078 356.516 323.45 356.048C323.834 355.568 324.122 355.028 324.314 354.428C324.518 353.828 324.62 353.222 324.62 352.61C324.62 351.962 324.512 351.338 324.296 350.738C324.092 350.126 323.792 349.592 323.396 349.136C323.012 348.668 322.55 348.296 322.01 348.02C321.482 347.744 320.894 347.606 320.246 347.606C319.562 347.606 318.95 347.75 318.41 348.038C317.87 348.326 317.408 348.704 317.024 349.172C316.652 349.64 316.364 350.174 316.16 350.774C315.956 351.374 315.854 351.986 315.854 352.61ZM331.209 349.244V359H329.589V346.22H330.849L338.769 356.174V346.238H340.389V359H339.021L331.209 349.244ZM344.521 359V346.22H346.141V357.56H353.269V359H344.521ZM354.63 346.22L358.5 352.88L362.406 346.22H364.17L359.31 354.338V359H357.69V354.302L352.848 346.22H354.63ZM381.793 355.706C381.793 356.198 381.691 356.648 381.487 357.056C381.295 357.464 381.025 357.812 380.677 358.1C380.341 358.388 379.945 358.61 379.489 358.766C379.045 358.922 378.565 359 378.049 359H371.983V346.22H378.337C378.781 346.22 379.183 346.316 379.543 346.508C379.903 346.7 380.209 346.952 380.461 347.264C380.713 347.564 380.905 347.912 381.037 348.308C381.181 348.692 381.253 349.082 381.253 349.478C381.253 350.114 381.091 350.702 380.767 351.242C380.455 351.782 380.005 352.184 379.417 352.448C380.149 352.664 380.725 353.066 381.145 353.654C381.577 354.23 381.793 354.914 381.793 355.706ZM380.155 355.418C380.155 355.13 380.101 354.854 379.993 354.59C379.897 354.314 379.759 354.074 379.579 353.87C379.411 353.666 379.207 353.504 378.967 353.384C378.727 353.264 378.463 353.204 378.175 353.204H373.603V357.596H378.049C378.349 357.596 378.625 357.536 378.877 357.416C379.129 357.296 379.351 357.14 379.543 356.948C379.735 356.744 379.885 356.51 379.993 356.246C380.101 355.982 380.155 355.706 380.155 355.418ZM373.603 347.624V351.89H377.671C377.959 351.89 378.223 351.836 378.463 351.728C378.703 351.608 378.907 351.452 379.075 351.26C379.255 351.068 379.393 350.846 379.489 350.594C379.597 350.33 379.651 350.054 379.651 349.766C379.651 349.466 379.603 349.184 379.507 348.92C379.411 348.656 379.279 348.428 379.111 348.236C378.955 348.044 378.757 347.894 378.517 347.786C378.289 347.678 378.043 347.624 377.779 347.624H373.603ZM393.815 357.56V359H385.139V346.22H393.653V347.66H386.759V351.8H392.753V353.15H386.759V357.56H393.815ZM402.751 359V346.22H411.193V347.66H404.371V351.926H410.113V353.276H404.371V359H402.751ZM419.28 359.09C418.38 359.09 417.558 358.91 416.814 358.55C416.082 358.178 415.452 357.692 414.924 357.092C414.396 356.48 413.988 355.784 413.7 355.004C413.412 354.224 413.268 353.426 413.268 352.61C413.268 351.758 413.418 350.942 413.718 350.162C414.03 349.382 414.456 348.692 414.996 348.092C415.536 347.492 416.172 347.018 416.904 346.67C417.648 346.31 418.452 346.13 419.316 346.13C420.216 346.13 421.032 346.322 421.764 346.706C422.496 347.078 423.126 347.57 423.654 348.182C424.182 348.794 424.59 349.49 424.878 350.27C425.166 351.038 425.31 351.824 425.31 352.628C425.31 353.48 425.154 354.296 424.842 355.076C424.542 355.856 424.122 356.546 423.582 357.146C423.054 357.734 422.418 358.208 421.674 358.568C420.942 358.916 420.144 359.09 419.28 359.09ZM414.906 352.61C414.906 353.258 415.008 353.888 415.212 354.5C415.428 355.1 415.728 355.634 416.112 356.102C416.496 356.57 416.958 356.942 417.498 357.218C418.038 357.494 418.638 357.632 419.298 357.632C419.982 357.632 420.594 357.488 421.134 357.2C421.674 356.9 422.13 356.516 422.502 356.048C422.886 355.568 423.174 355.028 423.366 354.428C423.57 353.828 423.672 353.222 423.672 352.61C423.672 351.962 423.564 351.338 423.348 350.738C423.144 350.126 422.844 349.592 422.448 349.136C422.064 348.668 421.602 348.296 421.062 348.02C420.534 347.744 419.946 347.606 419.298 347.606C418.614 347.606 418.002 347.75 417.462 348.038C416.922 348.326 416.46 348.704 416.076 349.172C415.704 349.64 415.416 350.174 415.212 350.774C415.008 351.374 414.906 351.986 414.906 352.61ZM433.897 357.632C434.641 357.632 435.259 357.488 435.751 357.2C436.243 356.912 436.633 356.54 436.921 356.084C437.221 355.616 437.431 355.088 437.551 354.5C437.671 353.9 437.731 353.294 437.731 352.682V346.22H439.351V352.682C439.351 353.546 439.249 354.368 439.045 355.148C438.853 355.916 438.541 356.594 438.109 357.182C437.677 357.77 437.113 358.238 436.417 358.586C435.733 358.922 434.899 359.09 433.915 359.09C432.895 359.09 432.037 358.91 431.341 358.55C430.645 358.19 430.081 357.716 429.649 357.128C429.229 356.528 428.923 355.844 428.731 355.076C428.551 354.296 428.461 353.498 428.461 352.682V346.22H430.081V352.682C430.081 353.318 430.141 353.936 430.261 354.536C430.393 355.124 430.603 355.646 430.891 356.102C431.191 356.558 431.581 356.93 432.061 357.218C432.553 357.494 433.165 357.632 433.897 357.632ZM444.929 349.244V359H443.309V346.22H444.569L452.489 356.174V346.238H454.109V359H452.741L444.929 349.244ZM458.24 359V346.22H462.668C463.688 346.22 464.582 346.388 465.35 346.724C466.13 347.06 466.778 347.516 467.294 348.092C467.81 348.668 468.194 349.346 468.446 350.126C468.71 350.894 468.842 351.716 468.842 352.592C468.842 353.564 468.698 354.446 468.41 355.238C468.122 356.018 467.708 356.69 467.168 357.254C466.628 357.806 465.974 358.238 465.206 358.55C464.45 358.85 463.604 359 462.668 359H458.24ZM467.204 352.592C467.204 351.872 467.102 351.212 466.898 350.612C466.706 350 466.412 349.478 466.016 349.046C465.632 348.614 465.158 348.278 464.594 348.038C464.03 347.786 463.388 347.66 462.668 347.66H459.86V357.56H462.668C463.4 357.56 464.048 357.434 464.612 357.182C465.188 356.93 465.662 356.582 466.034 356.138C466.418 355.694 466.706 355.172 466.898 354.572C467.102 353.96 467.204 353.3 467.204 352.592ZM81.53 384V371.22H83.15V384H81.53ZM88.9058 374.244V384H87.2858V371.22H88.5458L96.4658 381.174V371.238H98.0858V384H96.7178L88.9058 374.244ZM116.521 372.66H112.111V384H110.491V372.66H106.081V371.22H116.521V372.66ZM129.72 371.22V384H128.1V378.186H121.062V384H119.442V371.22H121.062V376.746H128.1V371.22H129.72ZM142.54 382.56V384H133.864V371.22H142.378V372.66H135.484V376.8H141.478V378.15H135.484V382.56H142.54ZM151.475 384V371.22H153.095V382.56H160.223V384H151.475ZM163.066 384V371.22H164.686V384H163.066ZM177.84 382.272C176.712 383.484 175.416 384.09 173.952 384.09C173.1 384.09 172.308 383.904 171.576 383.532C170.856 383.16 170.232 382.674 169.704 382.074C169.176 381.462 168.756 380.766 168.444 379.986C168.144 379.206 167.994 378.402 167.994 377.574C167.994 376.71 168.144 375.894 168.444 375.126C168.744 374.346 169.158 373.662 169.686 373.074C170.214 372.474 170.844 372 171.576 371.652C172.308 371.304 173.1 371.13 173.952 371.13C175.188 371.13 176.202 371.388 176.994 371.904C177.798 372.42 178.41 373.092 178.83 373.92L177.588 374.784C177.204 374.04 176.694 373.488 176.058 373.128C175.422 372.768 174.708 372.588 173.916 372.588C173.268 372.588 172.68 372.732 172.152 373.02C171.624 373.296 171.174 373.668 170.802 374.136C170.43 374.592 170.142 375.126 169.938 375.738C169.734 376.338 169.632 376.962 169.632 377.61C169.632 378.294 169.746 378.942 169.974 379.554C170.202 380.154 170.514 380.688 170.91 381.156C171.306 381.612 171.774 381.972 172.314 382.236C172.854 382.5 173.442 382.632 174.078 382.632C175.47 382.632 176.724 381.96 177.84 380.616V378.852H175.086V377.628H179.208V384H177.84V382.272ZM193.03 371.22V384H191.41V378.186H184.372V384H182.752V371.22H184.372V376.746H191.41V371.22H193.03ZM206.39 372.66H201.98V384H200.36V372.66H195.95V371.22H206.39V372.66ZM81.53 434V421.22H83.15V432.56H90.278V434H81.53ZM93.1217 434V421.22H94.7417V434H93.1217ZM107.896 432.272C106.768 433.484 105.472 434.09 104.007 434.09C103.156 434.09 102.364 433.904 101.631 433.532C100.911 433.16 100.287 432.674 99.7595 432.074C99.2315 431.462 98.8115 430.766 98.4995 429.986C98.1995 429.206 98.0495 428.402 98.0495 427.574C98.0495 426.71 98.1995 425.894 98.4995 425.126C98.7995 424.346 99.2135 423.662 99.7415 423.074C100.269 422.474 100.899 422 101.631 421.652C102.364 421.304 103.156 421.13 104.007 421.13C105.244 421.13 106.258 421.388 107.05 421.904C107.854 422.42 108.466 423.092 108.886 423.92L107.644 424.784C107.26 424.04 106.75 423.488 106.114 423.128C105.478 422.768 104.764 422.588 103.972 422.588C103.324 422.588 102.736 422.732 102.208 423.02C101.68 423.296 101.23 423.668 100.857 424.136C100.485 424.592 100.197 425.126 99.9935 425.738C99.7895 426.338 99.6875 426.962 99.6875 427.61C99.6875 428.294 99.8015 428.942 100.029 429.554C100.258 430.154 100.57 430.688 100.965 431.156C101.362 431.612 101.83 431.972 102.37 432.236C102.909 432.5 103.497 432.632 104.133 432.632C105.526 432.632 106.78 431.96 107.896 430.616V428.852H105.142V427.628H109.264V434H107.896V432.272ZM123.085 421.22V434H121.465V428.186H114.427V434H112.807V421.22H114.427V426.746H121.465V421.22H123.085ZM136.445 422.66H132.035V434H130.415V422.66H126.005V421.22H136.445V422.66ZM148.395 421.238H151.113L152.409 425.324L153.705 421.238H156.441L154.299 427.178L155.595 430.616L158.799 421.22H162.021L156.909 434H154.443L152.409 428.996L150.393 434H147.909L142.815 421.22H146.019L149.241 430.616L150.501 427.178L148.395 421.238ZM166.596 421.22H169.26L173.922 434H170.898L169.908 431.138H165.93L164.958 434H161.934L166.596 421.22ZM169.422 429.104L167.928 424.586L166.398 429.104H169.422ZM179.212 426.692V434H176.26V421.22H178.564L184.522 428.726V421.22H187.474V434H185.098L179.212 426.692ZM190.999 434V421.22H195.769C196.825 421.22 197.749 421.388 198.541 421.724C199.333 422.06 199.993 422.516 200.521 423.092C201.061 423.668 201.463 424.346 201.727 425.126C202.003 425.894 202.141 426.716 202.141 427.592C202.141 428.564 201.991 429.446 201.691 430.238C201.391 431.018 200.959 431.69 200.395 432.254C199.843 432.806 199.171 433.238 198.379 433.55C197.599 433.85 196.729 434 195.769 434H190.999ZM199.135 427.592C199.135 427.028 199.057 426.518 198.901 426.062C198.757 425.594 198.541 425.192 198.253 424.856C197.965 424.52 197.611 424.262 197.191 424.082C196.771 423.902 196.297 423.812 195.769 423.812H193.951V431.408H195.769C196.309 431.408 196.789 431.312 197.209 431.12C197.629 430.928 197.977 430.664 198.253 430.328C198.541 429.98 198.757 429.578 198.901 429.122C199.057 428.654 199.135 428.144 199.135 427.592ZM213.945 431.408V434H204.963V421.22H213.783V423.812H207.915V426.296H212.955V428.69H207.915V431.408H213.945ZM216.819 434V421.22H222.579C223.179 421.22 223.731 421.346 224.235 421.598C224.751 421.85 225.195 422.18 225.567 422.588C225.939 422.996 226.227 423.458 226.431 423.974C226.647 424.49 226.755 425.012 226.755 425.54C226.755 425.936 226.707 426.32 226.611 426.692C226.515 427.052 226.377 427.394 226.197 427.718C226.017 428.042 225.795 428.336 225.531 428.6C225.279 428.852 224.991 429.068 224.667 429.248L227.475 434H224.145L221.697 429.878H219.771V434H216.819ZM219.771 427.304H222.471C222.819 427.304 223.119 427.142 223.371 426.818C223.623 426.482 223.749 426.056 223.749 425.54C223.749 425.012 223.605 424.592 223.317 424.28C223.029 423.968 222.717 423.812 222.381 423.812H219.771V427.304ZM238.939 431.408V434H229.957V421.22H238.777V423.812H232.909V426.296H237.949V428.69H232.909V431.408H238.939ZM241.813 434V421.22H247.573C248.173 421.22 248.725 421.346 249.229 421.598C249.745 421.85 250.189 422.18 250.561 422.588C250.933 422.996 251.221 423.458 251.425 423.974C251.641 424.49 251.749 425.012 251.749 425.54C251.749 425.936 251.701 426.32 251.605 426.692C251.509 427.052 251.371 427.394 251.191 427.718C251.011 428.042 250.789 428.336 250.525 428.6C250.273 428.852 249.985 429.068 249.661 429.248L252.469 434H249.139L246.691 429.878H244.765V434H241.813ZM244.765 427.304H247.465C247.813 427.304 248.113 427.142 248.365 426.818C248.617 426.482 248.743 426.056 248.743 425.54C248.743 425.012 248.599 424.592 248.311 424.28C248.023 423.968 247.711 423.812 247.375 423.812H244.765V427.304ZM262.619 424.964C262.583 424.916 262.457 424.826 262.241 424.694C262.025 424.562 261.755 424.424 261.431 424.28C261.107 424.136 260.753 424.01 260.369 423.902C259.985 423.794 259.601 423.74 259.217 423.74C258.161 423.74 257.633 424.094 257.633 424.802C257.633 425.018 257.687 425.198 257.795 425.342C257.915 425.486 258.083 425.618 258.299 425.738C258.527 425.846 258.809 425.948 259.145 426.044C259.481 426.14 259.871 426.248 260.315 426.368C260.927 426.536 261.479 426.722 261.971 426.926C262.463 427.118 262.877 427.364 263.213 427.664C263.561 427.952 263.825 428.306 264.005 428.726C264.197 429.146 264.293 429.65 264.293 430.238C264.293 430.958 264.155 431.57 263.879 432.074C263.615 432.566 263.261 432.968 262.817 433.28C262.373 433.58 261.863 433.802 261.287 433.946C260.711 434.078 260.117 434.144 259.505 434.144C259.037 434.144 258.557 434.108 258.065 434.036C257.573 433.964 257.093 433.862 256.625 433.73C256.157 433.586 255.701 433.418 255.257 433.226C254.825 433.034 254.423 432.812 254.051 432.56L255.347 429.986C255.395 430.046 255.551 430.16 255.815 430.328C256.079 430.496 256.403 430.664 256.787 430.832C257.183 431 257.621 431.15 258.101 431.282C258.581 431.414 259.067 431.48 259.559 431.48C260.603 431.48 261.125 431.162 261.125 430.526C261.125 430.286 261.047 430.088 260.891 429.932C260.735 429.776 260.519 429.638 260.243 429.518C259.967 429.386 259.637 429.266 259.253 429.158C258.881 429.05 258.473 428.93 258.029 428.798C257.441 428.618 256.931 428.426 256.499 428.222C256.067 428.006 255.707 427.76 255.419 427.484C255.143 427.208 254.933 426.89 254.789 426.53C254.657 426.17 254.591 425.75 254.591 425.27C254.591 424.598 254.717 424.004 254.969 423.488C255.221 422.972 255.563 422.54 255.995 422.192C256.427 421.832 256.925 421.562 257.489 421.382C258.065 421.202 258.671 421.112 259.307 421.112C259.751 421.112 260.189 421.154 260.621 421.238C261.053 421.322 261.467 421.43 261.863 421.562C262.259 421.694 262.625 421.844 262.961 422.012C263.309 422.18 263.627 422.348 263.915 422.516L262.619 424.964ZM272.216 427.52C272.216 426.752 272.348 425.99 272.612 425.234C272.888 424.466 273.284 423.782 273.8 423.182C274.328 422.57 274.97 422.078 275.726 421.706C276.482 421.334 277.34 421.148 278.3 421.148C279.44 421.148 280.418 421.406 281.234 421.922C282.05 422.438 282.656 423.11 283.052 423.938L281.774 424.766C281.582 424.358 281.348 424.016 281.072 423.74C280.808 423.464 280.514 423.242 280.19 423.074C279.878 422.906 279.554 422.786 279.218 422.714C278.882 422.642 278.552 422.606 278.228 422.606C277.52 422.606 276.89 422.756 276.338 423.056C275.798 423.344 275.342 423.728 274.97 424.208C274.598 424.676 274.316 425.21 274.124 425.81C273.944 426.398 273.854 426.992 273.854 427.592C273.854 428.264 273.962 428.906 274.178 429.518C274.406 430.118 274.718 430.652 275.114 431.12C275.51 431.588 275.978 431.96 276.518 432.236C277.058 432.512 277.646 432.65 278.282 432.65C278.618 432.65 278.96 432.608 279.308 432.524C279.668 432.44 280.01 432.308 280.334 432.128C280.658 431.936 280.958 431.702 281.234 431.426C281.522 431.138 281.756 430.796 281.936 430.4L283.286 431.138C283.082 431.618 282.794 432.044 282.422 432.416C282.062 432.776 281.648 433.082 281.18 433.334C280.724 433.586 280.238 433.778 279.722 433.91C279.206 434.042 278.702 434.108 278.21 434.108C277.334 434.108 276.53 433.916 275.798 433.532C275.066 433.148 274.43 432.65 273.89 432.038C273.362 431.414 272.948 430.712 272.648 429.932C272.36 429.14 272.216 428.336 272.216 427.52ZM290.106 421.22H291.474L296.694 434H294.966L293.454 430.256H288.09L286.596 434H284.868L290.106 421.22ZM293.094 428.996L290.79 423.092L288.414 428.996H293.094ZM301.1 424.244V434H299.48V421.22H300.74L308.66 431.174V421.238H310.28V434H308.912L301.1 424.244ZM325.228 434.09C324.328 434.09 323.506 433.91 322.762 433.55C322.03 433.178 321.4 432.692 320.872 432.092C320.344 431.48 319.936 430.784 319.648 430.004C319.36 429.224 319.216 428.426 319.216 427.61C319.216 426.758 319.366 425.942 319.666 425.162C319.978 424.382 320.404 423.692 320.944 423.092C321.484 422.492 322.12 422.018 322.852 421.67C323.596 421.31 324.4 421.13 325.264 421.13C326.164 421.13 326.98 421.322 327.712 421.706C328.444 422.078 329.074 422.57 329.602 423.182C330.13 423.794 330.538 424.49 330.826 425.27C331.114 426.038 331.258 426.824 331.258 427.628C331.258 428.48 331.102 429.296 330.79 430.076C330.49 430.856 330.07 431.546 329.53 432.146C329.002 432.734 328.366 433.208 327.622 433.568C326.89 433.916 326.092 434.09 325.228 434.09ZM320.854 427.61C320.854 428.258 320.956 428.888 321.16 429.5C321.376 430.1 321.676 430.634 322.06 431.102C322.444 431.57 322.906 431.942 323.446 432.218C323.986 432.494 324.586 432.632 325.246 432.632C325.93 432.632 326.542 432.488 327.082 432.2C327.622 431.9 328.078 431.516 328.45 431.048C328.834 430.568 329.122 430.028 329.314 429.428C329.518 428.828 329.62 428.222 329.62 427.61C329.62 426.962 329.512 426.338 329.296 425.738C329.092 425.126 328.792 424.592 328.396 424.136C328.012 423.668 327.55 423.296 327.01 423.02C326.482 422.744 325.894 422.606 325.246 422.606C324.562 422.606 323.95 422.75 323.41 423.038C322.87 423.326 322.408 423.704 322.024 424.172C321.652 424.64 321.364 425.174 321.16 425.774C320.956 426.374 320.854 426.986 320.854 427.61ZM336.209 424.244V434H334.589V421.22H335.849L343.769 431.174V421.238H345.389V434H344.021L336.209 424.244ZM349.52 434V421.22H351.14V432.56H358.268V434H349.52ZM359.629 421.22L363.499 427.88L367.405 421.22H369.169L364.309 429.338V434H362.689V429.302L357.847 421.22H359.629ZM386.793 430.706C386.793 431.198 386.691 431.648 386.487 432.056C386.295 432.464 386.025 432.812 385.677 433.1C385.341 433.388 384.945 433.61 384.489 433.766C384.045 433.922 383.565 434 383.049 434H376.983V421.22H383.337C383.781 421.22 384.183 421.316 384.543 421.508C384.903 421.7 385.209 421.952 385.461 422.264C385.713 422.564 385.905 422.912 386.037 423.308C386.181 423.692 386.253 424.082 386.253 424.478C386.253 425.114 386.091 425.702 385.767 426.242C385.455 426.782 385.005 427.184 384.417 427.448C385.149 427.664 385.725 428.066 386.145 428.654C386.577 429.23 386.793 429.914 386.793 430.706ZM385.155 430.418C385.155 430.13 385.101 429.854 384.993 429.59C384.897 429.314 384.759 429.074 384.579 428.87C384.411 428.666 384.207 428.504 383.967 428.384C383.727 428.264 383.463 428.204 383.175 428.204H378.603V432.596H383.049C383.349 432.596 383.625 432.536 383.877 432.416C384.129 432.296 384.351 432.14 384.543 431.948C384.735 431.744 384.885 431.51 384.993 431.246C385.101 430.982 385.155 430.706 385.155 430.418ZM378.603 422.624V426.89H382.671C382.959 426.89 383.223 426.836 383.463 426.728C383.703 426.608 383.907 426.452 384.075 426.26C384.255 426.068 384.393 425.846 384.489 425.594C384.597 425.33 384.651 425.054 384.651 424.766C384.651 424.466 384.603 424.184 384.507 423.92C384.411 423.656 384.279 423.428 384.111 423.236C383.955 423.044 383.757 422.894 383.517 422.786C383.289 422.678 383.043 422.624 382.779 422.624H378.603ZM398.815 432.56V434H390.139V421.22H398.653V422.66H391.759V426.8H397.753V428.15H391.759V432.56H398.815ZM407.75 434V421.22H416.192V422.66H409.37V426.926H415.112V428.276H409.37V434H407.75ZM424.28 434.09C423.38 434.09 422.558 433.91 421.814 433.55C421.082 433.178 420.452 432.692 419.924 432.092C419.396 431.48 418.988 430.784 418.7 430.004C418.412 429.224 418.268 428.426 418.268 427.61C418.268 426.758 418.418 425.942 418.718 425.162C419.03 424.382 419.456 423.692 419.996 423.092C420.536 422.492 421.172 422.018 421.904 421.67C422.648 421.31 423.452 421.13 424.316 421.13C425.216 421.13 426.032 421.322 426.764 421.706C427.496 422.078 428.126 422.57 428.654 423.182C429.182 423.794 429.59 424.49 429.878 425.27C430.166 426.038 430.31 426.824 430.31 427.628C430.31 428.48 430.154 429.296 429.842 430.076C429.542 430.856 429.122 431.546 428.582 432.146C428.054 432.734 427.418 433.208 426.674 433.568C425.942 433.916 425.144 434.09 424.28 434.09ZM419.906 427.61C419.906 428.258 420.008 428.888 420.212 429.5C420.428 430.1 420.728 430.634 421.112 431.102C421.496 431.57 421.958 431.942 422.498 432.218C423.038 432.494 423.638 432.632 424.298 432.632C424.982 432.632 425.594 432.488 426.134 432.2C426.674 431.9 427.13 431.516 427.502 431.048C427.886 430.568 428.174 430.028 428.366 429.428C428.57 428.828 428.672 428.222 428.672 427.61C428.672 426.962 428.564 426.338 428.348 425.738C428.144 425.126 427.844 424.592 427.448 424.136C427.064 423.668 426.602 423.296 426.062 423.02C425.534 422.744 424.946 422.606 424.298 422.606C423.614 422.606 423.002 422.75 422.462 423.038C421.922 423.326 421.46 423.704 421.076 424.172C420.704 424.64 420.416 425.174 420.212 425.774C420.008 426.374 419.906 426.986 419.906 427.61ZM438.897 432.632C439.641 432.632 440.259 432.488 440.751 432.2C441.243 431.912 441.633 431.54 441.921 431.084C442.221 430.616 442.431 430.088 442.551 429.5C442.671 428.9 442.731 428.294 442.731 427.682V421.22H444.351V427.682C444.351 428.546 444.249 429.368 444.045 430.148C443.853 430.916 443.541 431.594 443.109 432.182C442.677 432.77 442.113 433.238 441.417 433.586C440.733 433.922 439.899 434.09 438.915 434.09C437.895 434.09 437.037 433.91 436.341 433.55C435.645 433.19 435.081 432.716 434.649 432.128C434.229 431.528 433.923 430.844 433.731 430.076C433.551 429.296 433.461 428.498 433.461 427.682V421.22H435.081V427.682C435.081 428.318 435.141 428.936 435.261 429.536C435.393 430.124 435.603 430.646 435.891 431.102C436.191 431.558 436.581 431.93 437.061 432.218C437.553 432.494 438.165 432.632 438.897 432.632ZM449.929 424.244V434H448.309V421.22H449.569L457.489 431.174V421.238H459.109V434H457.741L449.929 424.244ZM463.24 434V421.22H467.668C468.688 421.22 469.582 421.388 470.35 421.724C471.13 422.06 471.778 422.516 472.294 423.092C472.81 423.668 473.194 424.346 473.446 425.126C473.71 425.894 473.842 426.716 473.842 427.592C473.842 428.564 473.698 429.446 473.41 430.238C473.122 431.018 472.708 431.69 472.168 432.254C471.628 432.806 470.974 433.238 470.206 433.55C469.45 433.85 468.604 434 467.668 434H463.24ZM472.204 427.592C472.204 426.872 472.102 426.212 471.898 425.612C471.706 425 471.412 424.478 471.016 424.046C470.632 423.614 470.158 423.278 469.594 423.038C469.03 422.786 468.388 422.66 467.668 422.66H464.86V432.56H467.668C468.4 432.56 469.048 432.434 469.612 432.182C470.188 431.93 470.662 431.582 471.034 431.138C471.418 430.694 471.706 430.172 471.898 429.572C472.102 428.96 472.204 428.3 472.204 427.592ZM81.53 459V446.22H83.15V459H81.53ZM88.9058 449.244V459H87.2858V446.22H88.5458L96.4658 456.174V446.238H98.0858V459H96.7178L88.9058 449.244ZM116.521 447.66H112.111V459H110.491V447.66H106.081V446.22H116.521V447.66ZM129.72 446.22V459H128.1V453.186H121.062V459H119.442V446.22H121.062V451.746H128.1V446.22H129.72ZM142.54 457.56V459H133.864V446.22H142.378V447.66H135.484V451.8H141.478V453.15H135.484V457.56H142.54ZM151.475 459V446.22H155.903C156.923 446.22 157.817 446.388 158.585 446.724C159.365 447.06 160.013 447.516 160.529 448.092C161.045 448.668 161.429 449.346 161.681 450.126C161.945 450.894 162.077 451.716 162.077 452.592C162.077 453.564 161.933 454.446 161.645 455.238C161.357 456.018 160.943 456.69 160.403 457.254C159.863 457.806 159.209 458.238 158.441 458.55C157.685 458.85 156.839 459 155.903 459H151.475ZM160.439 452.592C160.439 451.872 160.337 451.212 160.133 450.612C159.941 450 159.647 449.478 159.251 449.046C158.867 448.614 158.393 448.278 157.829 448.038C157.265 447.786 156.623 447.66 155.903 447.66H153.095V457.56H155.903C156.635 457.56 157.283 457.434 157.847 457.182C158.423 456.93 158.897 456.582 159.269 456.138C159.653 455.694 159.941 455.172 160.133 454.572C160.337 453.96 160.439 453.3 160.439 452.592ZM168.87 446.22H170.238L175.459 459H173.731L172.218 455.256H166.854L165.36 459H163.632L168.87 446.22ZM171.858 453.996L169.554 448.092L167.178 453.996H171.858ZM178.244 459V446.22H183.716C184.28 446.22 184.796 446.34 185.264 446.58C185.744 446.808 186.152 447.12 186.488 447.516C186.836 447.9 187.106 448.338 187.298 448.83C187.49 449.31 187.586 449.802 187.586 450.306C187.586 450.75 187.52 451.182 187.388 451.602C187.268 452.01 187.088 452.382 186.848 452.718C186.62 453.054 186.338 453.342 186.002 453.582C185.678 453.822 185.312 453.996 184.904 454.104L188 459H186.164L183.248 454.41H179.864V459H178.244ZM179.864 452.97H183.734C184.07 452.97 184.37 452.898 184.634 452.754C184.91 452.61 185.144 452.418 185.336 452.178C185.528 451.926 185.678 451.638 185.786 451.314C185.894 450.99 185.948 450.654 185.948 450.306C185.948 449.946 185.882 449.61 185.75 449.298C185.63 448.974 185.462 448.692 185.246 448.452C185.042 448.2 184.796 448.008 184.508 447.876C184.232 447.732 183.938 447.66 183.626 447.66H179.864V452.97ZM191.154 459V446.238H192.774V453.294L199.362 446.22H201.108L195.978 451.854L201.396 459H199.632L194.988 452.79L192.774 455.094V459H191.154Z" fill="white"/>
<path d="M103.53 615V602.22H108.858C109.422 602.22 109.938 602.34 110.406 602.58C110.886 602.808 111.294 603.12 111.63 603.516C111.978 603.9 112.248 604.338 112.44 604.83C112.632 605.31 112.728 605.802 112.728 606.306C112.728 606.834 112.638 607.344 112.458 607.836C112.278 608.328 112.02 608.766 111.684 609.15C111.36 609.534 110.964 609.84 110.496 610.068C110.04 610.296 109.53 610.41 108.966 610.41H105.15V615H103.53ZM105.15 608.97H108.876C109.212 608.97 109.512 608.904 109.776 608.772C110.052 608.628 110.286 608.436 110.478 608.196C110.67 607.944 110.82 607.656 110.928 607.332C111.036 607.008 111.09 606.666 111.09 606.306C111.09 605.934 111.024 605.586 110.892 605.262C110.772 604.938 110.604 604.656 110.388 604.416C110.184 604.176 109.938 603.99 109.65 603.858C109.374 603.726 109.08 603.66 108.768 603.66H105.15V608.97ZM115.825 615V602.22H121.297C121.861 602.22 122.377 602.34 122.845 602.58C123.325 602.808 123.733 603.12 124.069 603.516C124.417 603.9 124.687 604.338 124.879 604.83C125.071 605.31 125.167 605.802 125.167 606.306C125.167 606.75 125.101 607.182 124.969 607.602C124.849 608.01 124.669 608.382 124.429 608.718C124.201 609.054 123.919 609.342 123.583 609.582C123.259 609.822 122.893 609.996 122.485 610.104L125.581 615H123.745L120.829 610.41H117.445V615H115.825ZM117.445 608.97H121.315C121.651 608.97 121.951 608.898 122.215 608.754C122.491 608.61 122.725 608.418 122.917 608.178C123.109 607.926 123.259 607.638 123.367 607.314C123.475 606.99 123.529 606.654 123.529 606.306C123.529 605.946 123.463 605.61 123.331 605.298C123.211 604.974 123.043 604.692 122.827 604.452C122.623 604.2 122.377 604.008 122.089 603.876C121.813 603.732 121.519 603.66 121.207 603.66H117.445V608.97ZM137.411 613.56V615H128.735V602.22H137.249V603.66H130.355V607.8H136.349V609.15H130.355V613.56H137.411ZM148.219 604.902C148.075 604.734 147.883 604.572 147.643 604.416C147.403 604.26 147.133 604.122 146.833 604.002C146.533 603.87 146.203 603.768 145.843 603.696C145.495 603.612 145.129 603.57 144.745 603.57C143.749 603.57 143.017 603.756 142.549 604.128C142.093 604.5 141.865 605.01 141.865 605.658C141.865 606.006 141.931 606.294 142.063 606.522C142.195 606.75 142.399 606.948 142.675 607.116C142.963 607.272 143.317 607.41 143.737 607.53C144.157 607.65 144.655 607.776 145.231 607.908C145.891 608.052 146.485 608.22 147.013 608.412C147.553 608.592 148.009 608.82 148.381 609.096C148.765 609.372 149.053 609.708 149.245 610.104C149.449 610.5 149.551 610.986 149.551 611.562C149.551 612.174 149.431 612.708 149.191 613.164C148.951 613.608 148.621 613.98 148.201 614.28C147.793 614.568 147.307 614.784 146.743 614.928C146.179 615.06 145.567 615.126 144.907 615.126C143.923 615.126 142.987 614.976 142.099 614.676C141.223 614.364 140.425 613.914 139.705 613.326L140.479 611.958C140.671 612.162 140.917 612.366 141.217 612.57C141.529 612.774 141.877 612.96 142.261 613.128C142.657 613.284 143.077 613.416 143.521 613.524C143.977 613.62 144.451 613.668 144.943 613.668C145.855 613.668 146.563 613.506 147.067 613.182C147.571 612.858 147.823 612.372 147.823 611.724C147.823 611.364 147.739 611.064 147.571 610.824C147.415 610.572 147.181 610.356 146.869 610.176C146.557 609.996 146.167 609.84 145.699 609.708C145.243 609.564 144.721 609.42 144.133 609.276C143.485 609.12 142.915 608.952 142.423 608.772C141.931 608.592 141.517 608.376 141.181 608.124C140.857 607.872 140.611 607.566 140.443 607.206C140.275 606.846 140.191 606.414 140.191 605.91C140.191 605.298 140.305 604.758 140.533 604.29C140.761 603.822 141.079 603.426 141.487 603.102C141.895 602.778 142.381 602.538 142.945 602.382C143.509 602.214 144.121 602.13 144.781 602.13C145.645 602.13 146.425 602.262 147.121 602.526C147.817 602.79 148.435 603.144 148.975 603.588L148.219 604.902ZM160.268 604.902C160.124 604.734 159.932 604.572 159.692 604.416C159.452 604.26 159.182 604.122 158.882 604.002C158.582 603.87 158.252 603.768 157.892 603.696C157.544 603.612 157.178 603.57 156.794 603.57C155.798 603.57 155.066 603.756 154.598 604.128C154.142 604.5 153.914 605.01 153.914 605.658C153.914 606.006 153.98 606.294 154.112 606.522C154.244 606.75 154.448 606.948 154.724 607.116C155.012 607.272 155.366 607.41 155.786 607.53C156.206 607.65 156.704 607.776 157.28 607.908C157.94 608.052 158.534 608.22 159.062 608.412C159.602 608.592 160.058 608.82 160.43 609.096C160.814 609.372 161.102 609.708 161.294 610.104C161.498 610.5 161.6 610.986 161.6 611.562C161.6 612.174 161.48 612.708 161.24 613.164C161 613.608 160.67 613.98 160.25 614.28C159.842 614.568 159.356 614.784 158.792 614.928C158.228 615.06 157.616 615.126 156.956 615.126C155.972 615.126 155.036 614.976 154.148 614.676C153.272 614.364 152.474 613.914 151.754 613.326L152.528 611.958C152.72 612.162 152.966 612.366 153.266 612.57C153.578 612.774 153.926 612.96 154.31 613.128C154.706 613.284 155.126 613.416 155.57 613.524C156.026 613.62 156.5 613.668 156.992 613.668C157.904 613.668 158.612 613.506 159.116 613.182C159.62 612.858 159.872 612.372 159.872 611.724C159.872 611.364 159.788 611.064 159.62 610.824C159.464 610.572 159.23 610.356 158.918 610.176C158.606 609.996 158.216 609.84 157.748 609.708C157.292 609.564 156.77 609.42 156.182 609.276C155.534 609.12 154.964 608.952 154.472 608.772C153.98 608.592 153.566 608.376 153.23 608.124C152.906 607.872 152.66 607.566 152.492 607.206C152.324 606.846 152.24 606.414 152.24 605.91C152.24 605.298 152.354 604.758 152.582 604.29C152.81 603.822 153.128 603.426 153.536 603.102C153.944 602.778 154.43 602.538 154.994 602.382C155.558 602.214 156.17 602.13 156.83 602.13C157.694 602.13 158.474 602.262 159.17 602.526C159.866 602.79 160.484 603.144 161.024 603.588L160.268 604.902ZM173.769 602.22H175.137L180.357 615H178.629L177.117 611.256H171.753L170.259 615H168.531L173.769 602.22ZM176.757 609.996L174.453 604.092L172.077 609.996H176.757ZM198.023 611.706C198.023 612.198 197.921 612.648 197.717 613.056C197.525 613.464 197.255 613.812 196.907 614.1C196.571 614.388 196.175 614.61 195.719 614.766C195.275 614.922 194.795 615 194.279 615H188.213V602.22H194.567C195.011 602.22 195.413 602.316 195.773 602.508C196.133 602.7 196.439 602.952 196.691 603.264C196.943 603.564 197.135 603.912 197.267 604.308C197.411 604.692 197.483 605.082 197.483 605.478C197.483 606.114 197.321 606.702 196.997 607.242C196.685 607.782 196.235 608.184 195.647 608.448C196.379 608.664 196.955 609.066 197.375 609.654C197.807 610.23 198.023 610.914 198.023 611.706ZM196.385 611.418C196.385 611.13 196.331 610.854 196.223 610.59C196.127 610.314 195.989 610.074 195.809 609.87C195.641 609.666 195.437 609.504 195.197 609.384C194.957 609.264 194.693 609.204 194.405 609.204H189.833V613.596H194.279C194.579 613.596 194.855 613.536 195.107 613.416C195.359 613.296 195.581 613.14 195.773 612.948C195.965 612.744 196.115 612.51 196.223 612.246C196.331 611.982 196.385 611.706 196.385 611.418ZM189.833 603.624V607.89H193.901C194.189 607.89 194.453 607.836 194.693 607.728C194.933 607.608 195.137 607.452 195.305 607.26C195.485 607.068 195.623 606.846 195.719 606.594C195.827 606.33 195.881 606.054 195.881 605.766C195.881 605.466 195.833 605.184 195.737 604.92C195.641 604.656 195.509 604.428 195.341 604.236C195.185 604.044 194.987 603.894 194.747 603.786C194.519 603.678 194.273 603.624 194.009 603.624H189.833ZM206.625 613.632C207.369 613.632 207.987 613.488 208.479 613.2C208.971 612.912 209.361 612.54 209.649 612.084C209.949 611.616 210.159 611.088 210.279 610.5C210.399 609.9 210.459 609.294 210.459 608.682V602.22H212.079V608.682C212.079 609.546 211.977 610.368 211.773 611.148C211.581 611.916 211.269 612.594 210.837 613.182C210.405 613.77 209.841 614.238 209.145 614.586C208.461 614.922 207.627 615.09 206.643 615.09C205.623 615.09 204.765 614.91 204.069 614.55C203.373 614.19 202.809 613.716 202.377 613.128C201.957 612.528 201.651 611.844 201.459 611.076C201.279 610.296 201.189 609.498 201.189 608.682V602.22H202.809V608.682C202.809 609.318 202.869 609.936 202.989 610.536C203.121 611.124 203.331 611.646 203.619 612.102C203.919 612.558 204.309 612.93 204.789 613.218C205.281 613.494 205.893 613.632 206.625 613.632ZM225.253 603.66H220.843V615H219.223V603.66H214.813V602.22H225.253V603.66ZM237.39 603.66H232.98V615H231.36V603.66H226.95V602.22H237.39V603.66ZM245.108 615.09C244.208 615.09 243.386 614.91 242.642 614.55C241.91 614.178 241.28 613.692 240.752 613.092C240.224 612.48 239.816 611.784 239.528 611.004C239.24 610.224 239.096 609.426 239.096 608.61C239.096 607.758 239.246 606.942 239.546 606.162C239.858 605.382 240.284 604.692 240.824 604.092C241.364 603.492 242 603.018 242.732 602.67C243.476 602.31 244.28 602.13 245.144 602.13C246.044 602.13 246.86 602.322 247.592 602.706C248.324 603.078 248.954 603.57 249.482 604.182C250.01 604.794 250.418 605.49 250.706 606.27C250.994 607.038 251.138 607.824 251.138 608.628C251.138 609.48 250.982 610.296 250.67 611.076C250.37 611.856 249.95 612.546 249.41 613.146C248.882 613.734 248.246 614.208 247.502 614.568C246.77 614.916 245.972 615.09 245.108 615.09ZM240.734 608.61C240.734 609.258 240.836 609.888 241.04 610.5C241.256 611.1 241.556 611.634 241.94 612.102C242.324 612.57 242.786 612.942 243.326 613.218C243.866 613.494 244.466 613.632 245.126 613.632C245.81 613.632 246.422 613.488 246.962 613.2C247.502 612.9 247.958 612.516 248.33 612.048C248.714 611.568 249.002 611.028 249.194 610.428C249.398 609.828 249.5 609.222 249.5 608.61C249.5 607.962 249.392 607.338 249.176 606.738C248.972 606.126 248.672 605.592 248.276 605.136C247.892 604.668 247.43 604.296 246.89 604.02C246.362 603.744 245.774 603.606 245.126 603.606C244.442 603.606 243.83 603.75 243.29 604.038C242.75 604.326 242.288 604.704 241.904 605.172C241.532 605.64 241.244 606.174 241.04 606.774C240.836 607.374 240.734 607.986 240.734 608.61ZM256.088 605.244V615H254.468V602.22H255.728L263.648 612.174V602.238H265.268V615H263.9L256.088 605.244ZM283.704 603.66H279.294V615H277.674V603.66H273.264V602.22H283.704V603.66ZM291.422 615.09C290.522 615.09 289.7 614.91 288.956 614.55C288.224 614.178 287.594 613.692 287.066 613.092C286.538 612.48 286.13 611.784 285.842 611.004C285.554 610.224 285.41 609.426 285.41 608.61C285.41 607.758 285.56 606.942 285.86 606.162C286.172 605.382 286.598 604.692 287.138 604.092C287.678 603.492 288.314 603.018 289.046 602.67C289.79 602.31 290.594 602.13 291.458 602.13C292.358 602.13 293.174 602.322 293.906 602.706C294.638 603.078 295.268 603.57 295.796 604.182C296.324 604.794 296.732 605.49 297.02 606.27C297.308 607.038 297.452 607.824 297.452 608.628C297.452 609.48 297.296 610.296 296.984 611.076C296.684 611.856 296.264 612.546 295.724 613.146C295.196 613.734 294.56 614.208 293.816 614.568C293.084 614.916 292.286 615.09 291.422 615.09ZM287.048 608.61C287.048 609.258 287.15 609.888 287.354 610.5C287.57 611.1 287.87 611.634 288.254 612.102C288.638 612.57 289.1 612.942 289.64 613.218C290.18 613.494 290.78 613.632 291.44 613.632C292.124 613.632 292.736 613.488 293.276 613.2C293.816 612.9 294.272 612.516 294.644 612.048C295.028 611.568 295.316 611.028 295.508 610.428C295.712 609.828 295.814 609.222 295.814 608.61C295.814 607.962 295.706 607.338 295.49 606.738C295.286 606.126 294.986 605.592 294.59 605.136C294.206 604.668 293.744 604.296 293.204 604.02C292.676 603.744 292.088 603.606 291.44 603.606C290.756 603.606 290.144 603.75 289.604 604.038C289.064 604.326 288.602 604.704 288.218 605.172C287.846 605.64 287.558 606.174 287.354 606.774C287.15 607.374 287.048 607.986 287.048 608.61ZM313.921 604.902C313.777 604.734 313.585 604.572 313.345 604.416C313.105 604.26 312.835 604.122 312.535 604.002C312.235 603.87 311.905 603.768 311.545 603.696C311.197 603.612 310.831 603.57 310.447 603.57C309.451 603.57 308.719 603.756 308.251 604.128C307.795 604.5 307.567 605.01 307.567 605.658C307.567 606.006 307.633 606.294 307.765 606.522C307.897 606.75 308.101 606.948 308.377 607.116C308.665 607.272 309.019 607.41 309.439 607.53C309.859 607.65 310.357 607.776 310.933 607.908C311.593 608.052 312.187 608.22 312.715 608.412C313.255 608.592 313.711 608.82 314.083 609.096C314.467 609.372 314.755 609.708 314.947 610.104C315.151 610.5 315.253 610.986 315.253 611.562C315.253 612.174 315.133 612.708 314.893 613.164C314.653 613.608 314.323 613.98 313.903 614.28C313.495 614.568 313.009 614.784 312.445 614.928C311.881 615.06 311.269 615.126 310.609 615.126C309.625 615.126 308.689 614.976 307.801 614.676C306.925 614.364 306.127 613.914 305.407 613.326L306.181 611.958C306.373 612.162 306.619 612.366 306.919 612.57C307.231 612.774 307.579 612.96 307.963 613.128C308.359 613.284 308.779 613.416 309.223 613.524C309.679 613.62 310.153 613.668 310.645 613.668C311.557 613.668 312.265 613.506 312.769 613.182C313.273 612.858 313.525 612.372 313.525 611.724C313.525 611.364 313.441 611.064 313.273 610.824C313.117 610.572 312.883 610.356 312.571 610.176C312.259 609.996 311.869 609.84 311.401 609.708C310.945 609.564 310.423 609.42 309.835 609.276C309.187 609.12 308.617 608.952 308.125 608.772C307.633 608.592 307.219 608.376 306.883 608.124C306.559 607.872 306.313 607.566 306.145 607.206C305.977 606.846 305.893 606.414 305.893 605.91C305.893 605.298 306.007 604.758 306.235 604.29C306.463 603.822 306.781 603.426 307.189 603.102C307.597 602.778 308.083 602.538 308.647 602.382C309.211 602.214 309.823 602.13 310.483 602.13C311.347 602.13 312.127 602.262 312.823 602.526C313.519 602.79 314.137 603.144 314.677 603.588L313.921 604.902ZM327.68 603.66H323.27V615H321.65V603.66H317.24V602.22H327.68V603.66ZM333.276 602.22H334.644L339.864 615H338.136L336.624 611.256H331.26L329.766 615H328.038L333.276 602.22ZM336.264 609.996L333.96 604.092L331.584 609.996H336.264ZM342.649 615V602.22H348.121C348.685 602.22 349.201 602.34 349.669 602.58C350.149 602.808 350.557 603.12 350.893 603.516C351.241 603.9 351.511 604.338 351.703 604.83C351.895 605.31 351.991 605.802 351.991 606.306C351.991 606.75 351.925 607.182 351.793 607.602C351.673 608.01 351.493 608.382 351.253 608.718C351.025 609.054 350.743 609.342 350.407 609.582C350.083 609.822 349.717 609.996 349.309 610.104L352.405 615H350.569L347.653 610.41H344.269V615H342.649ZM344.269 608.97H348.139C348.475 608.97 348.775 608.898 349.039 608.754C349.315 608.61 349.549 608.418 349.741 608.178C349.933 607.926 350.083 607.638 350.191 607.314C350.299 606.99 350.353 606.654 350.353 606.306C350.353 605.946 350.287 605.61 350.155 605.298C350.035 604.974 349.867 604.692 349.651 604.452C349.447 604.2 349.201 604.008 348.913 603.876C348.637 603.732 348.343 603.66 348.031 603.66H344.269V608.97ZM364.67 603.66H360.26V615H358.64V603.66H354.23V602.22H364.67V603.66Z" fill="white"/>
<path d="M444.045 623C436.252 623 430 616.748 430 609.045C430 601.252 436.252 595 444.045 595C451.748 595 458 601.252 458 609.045C458 616.748 451.748 623 444.045 623ZM444.045 596.812C437.249 596.812 431.812 602.249 431.812 609.045C431.812 615.751 437.249 621.278 444.045 621.278C450.751 621.278 456.278 615.841 456.278 609.045C456.188 602.249 450.751 596.812 444.045 596.812Z" fill="white"/>
<path d="M444.045 612.851C446.147 612.851 447.851 611.147 447.851 609.045C447.851 606.943 446.147 605.239 444.045 605.239C441.943 605.239 440.239 606.943 440.239 609.045C440.239 611.147 441.943 612.851 444.045 612.851Z" fill="white"/>
<path d="M443.139 615.751C443.139 615.207 443.592 614.845 444.045 614.845C444.498 614.845 444.951 615.207 444.951 615.751C444.951 616.204 444.589 616.657 444.045 616.657C443.502 616.657 443.139 616.295 443.139 615.751ZM438.608 614.482C438.246 614.12 438.246 613.576 438.608 613.214C438.971 612.851 439.515 612.851 439.877 613.214C440.239 613.576 440.239 614.12 439.877 614.482C439.696 614.664 439.424 614.754 439.243 614.754C439.061 614.664 438.79 614.664 438.608 614.482ZM448.123 614.392C447.761 614.029 447.761 613.486 448.123 613.123C448.485 612.761 449.029 612.761 449.392 613.123C449.754 613.486 449.754 614.029 449.392 614.392C449.21 614.573 449.029 614.664 448.757 614.664C448.576 614.664 448.304 614.573 448.123 614.392ZM436.343 609.046C436.343 608.502 436.706 608.139 437.249 608.139C437.702 608.139 438.155 608.502 438.155 609.046C438.155 609.499 437.793 609.952 437.249 609.952C436.796 609.952 436.343 609.589 436.343 609.046ZM449.845 609.046C449.845 608.955 449.845 608.955 449.845 609.046C449.845 608.502 450.207 608.049 450.751 608.049C451.204 608.049 451.657 608.411 451.657 608.955C451.657 609.408 451.204 609.861 450.751 609.861C450.298 609.952 449.845 609.499 449.845 609.046ZM438.608 604.877C438.246 604.515 438.246 603.971 438.608 603.609C438.971 603.246 439.515 603.246 439.877 603.609C440.239 603.971 440.239 604.515 439.877 604.877C439.696 605.058 439.424 605.149 439.243 605.149C438.971 605.149 438.699 605.058 438.608 604.877ZM448.123 604.877C447.761 604.515 447.761 603.971 448.123 603.609C448.485 603.246 449.029 603.246 449.392 603.609C449.754 603.971 449.754 604.515 449.392 604.877C449.21 605.058 448.939 605.149 448.757 605.149C448.485 605.058 448.304 604.968 448.123 604.877ZM443.049 602.249C443.049 601.706 443.411 601.343 443.955 601.343C444.408 601.343 444.861 601.706 444.861 602.249C444.861 602.793 444.498 603.156 443.955 603.156C443.502 603.156 443.049 602.793 443.049 602.249Z" fill="white"/>
<line opacity="0.5" x1="80.5" y1="556.5" x2="479.5" y2="556.5" stroke="white" stroke-linecap="round"/>
<path d="M180.98 209.243C182.177 207.55 183.575 206.156 185.271 204.96C185.77 204.662 185.571 203.964 185.072 203.765L182.277 203.068L179.084 202.172C178.585 202.072 178.086 202.57 178.185 203.068L179.084 206.255L179.882 209.044C179.982 209.642 180.68 209.741 180.98 209.243Z" fill="white"/>
<path d="M196.05 205.657C188.066 205.657 181.679 212.032 181.679 220C181.679 227.868 188.066 234.342 196.05 234.342C203.934 234.342 210.421 227.968 210.421 220C210.421 212.032 203.934 205.657 196.05 205.657ZM196.05 231.056C189.862 231.056 184.872 226.076 184.872 219.9C184.872 213.725 189.862 208.745 196.05 208.745C202.238 208.745 207.228 213.725 207.228 219.9C207.228 226.076 202.138 231.056 196.05 231.056Z" fill="white"/>
<path d="M180.98 209.243C182.177 207.55 183.575 206.156 185.271 204.96C185.77 204.662 185.571 203.964 185.072 203.765L182.277 203.068L179.084 202.172C178.585 202.072 178.086 202.57 178.185 203.068L179.084 206.255L179.882 209.044C179.982 209.642 180.68 209.741 180.98 209.243Z" fill="white"/>
<path d="M196.05 201.574C197.048 201.574 198.046 201.673 199.044 201.773C199.643 201.873 200.042 201.275 199.743 200.777L198.246 198.187L196.549 195.299C196.25 194.9 195.651 194.9 195.451 195.299L193.755 198.187L192.258 200.777C191.958 201.275 192.357 201.873 192.956 201.773C193.954 201.673 195.052 201.574 196.05 201.574Z" fill="white"/>
<path d="M211.02 209.243C211.319 209.741 212.018 209.542 212.218 209.044L213.016 206.156L213.814 203.068C214.014 202.57 213.515 202.072 213.016 202.172L209.822 203.068L206.928 203.865C206.429 203.964 206.229 204.662 206.728 205.06C208.425 206.156 209.822 207.65 211.02 209.243Z" fill="white"/>
<path d="M217.806 217.809L215.212 216.315C214.713 216.016 214.114 216.414 214.214 217.012C214.413 218.008 214.413 219.004 214.413 220C214.413 220.996 214.313 221.992 214.214 222.988C214.114 223.585 214.713 223.984 215.212 223.685L217.806 222.191L220.701 220.498C221.1 220.199 221.1 219.601 220.701 219.402L217.806 217.809Z" fill="white"/>
<path d="M211.02 230.657C209.822 232.351 208.425 233.745 206.728 234.94C206.229 235.239 206.429 235.936 206.928 236.136L209.822 236.932L213.016 237.829C213.515 237.928 213.914 237.53 213.814 237.032L213.016 233.745L212.218 230.857C212.018 230.359 211.319 230.259 211.02 230.657Z" fill="white"/>
<path d="M196.05 238.426C195.052 238.426 194.054 238.327 193.056 238.227C192.457 238.128 192.058 238.725 192.357 239.223L193.854 241.813L195.551 244.701C195.85 245.1 196.449 245.1 196.649 244.701L198.345 241.813L199.842 239.223C200.142 238.725 199.743 238.128 199.144 238.227C198.046 238.327 197.048 238.426 196.05 238.426Z" fill="white"/>
<path d="M180.98 230.658C180.68 230.16 179.982 230.359 179.782 230.857L179.084 233.745L178.185 236.933C178.086 237.431 178.585 237.929 179.084 237.729L182.277 236.833L185.171 236.036C185.67 235.936 185.87 235.239 185.371 234.841C183.674 233.745 182.177 232.351 180.98 230.658Z" fill="white"/>
<path d="M177.587 220C177.587 219.004 177.687 218.008 177.786 217.012C177.886 216.414 177.287 216.016 176.788 216.315L174.194 217.809L171.299 219.502C170.9 219.801 170.9 220.398 171.299 220.597L174.194 222.291L176.788 223.785C177.287 224.083 177.886 223.685 177.786 223.087C177.687 221.992 177.587 220.996 177.587 220Z" fill="white"/>
<rect opacity="0.15" x="389" y="215" width="10" height="150" rx="5" transform="rotate(90 389 215)" fill="white"/>
<rect x="273" y="215" width="10" height="34" rx="5" transform="rotate(90 273 215)" fill="white"/>
<path d="M195.5 269C184.7 269 176 277.7 176 288.5C176 299.3 184.7 308 195.5 308C206.299 308 214.999 299.3 214.999 288.5C215.099 277.7 206.299 269 195.5 269ZM195.5 304.5C186.7 304.5 179.6 297.4 179.6 288.6C179.6 279.8 186.7 272.6 195.5 272.6C204.299 272.6 211.399 279.7 211.399 288.5C211.399 297.3 204.299 304.5 195.5 304.5Z" fill="white"/>
<path d="M191.8 288.5C191.8 283.3 195.1 278.8 199.7 277.1C198.4 276.6 197 276.3 195.5 276.3C188.8 276.3 183.4 281.7 183.4 288.4C183.4 295.1 188.8 300.5 195.5 300.5C197 300.5 198.4 300.2 199.7 299.7C195.1 298.2 191.8 293.8 191.8 288.5Z" fill="white"/>
<rect opacity="0.15" x="389" y="283.5" width="10" height="150" rx="5" transform="rotate(90 389 283.5)" fill="white"/>
<rect x="324" y="283" width="10" height="85" rx="5" transform="rotate(90 324 283)" fill="white"/>
<path d="M80.702 100.52C80.702 99.752 80.834 98.99 81.098 98.234C81.374 97.466 81.77 96.782 82.286 96.182C82.814 95.57 83.456 95.078 84.212 94.706C84.968 94.334 85.826 94.148 86.786 94.148C87.926 94.148 88.904 94.406 89.72 94.922C90.536 95.438 91.142 96.11 91.538 96.938L90.26 97.766C90.068 97.358 89.834 97.016 89.558 96.74C89.294 96.464 89 96.242 88.676 96.074C88.364 95.906 88.04 95.786 87.704 95.714C87.368 95.642 87.038 95.606 86.714 95.606C86.006 95.606 85.376 95.756 84.824 96.056C84.284 96.344 83.828 96.728 83.456 97.208C83.084 97.676 82.802 98.21 82.61 98.81C82.43 99.398 82.34 99.992 82.34 100.592C82.34 101.264 82.448 101.906 82.664 102.518C82.892 103.118 83.204 103.652 83.6 104.12C83.996 104.588 84.464 104.96 85.004 105.236C85.544 105.512 86.132 105.65 86.768 105.65C87.104 105.65 87.446 105.608 87.794 105.524C88.154 105.44 88.496 105.308 88.82 105.128C89.144 104.936 89.444 104.702 89.72 104.426C90.008 104.138 90.242 103.796 90.422 103.4L91.772 104.138C91.568 104.618 91.28 105.044 90.908 105.416C90.548 105.776 90.134 106.082 89.666 106.334C89.21 106.586 88.724 106.778 88.208 106.91C87.692 107.042 87.188 107.108 86.696 107.108C85.82 107.108 85.016 106.916 84.284 106.532C83.552 106.148 82.916 105.65 82.376 105.038C81.848 104.414 81.434 103.712 81.134 102.932C80.846 102.14 80.702 101.336 80.702 100.52ZM99.9229 107.09C99.0229 107.09 98.2009 106.91 97.4569 106.55C96.7249 106.178 96.0949 105.692 95.5669 105.092C95.0389 104.48 94.6309 103.784 94.3429 103.004C94.0549 102.224 93.9109 101.426 93.9109 100.61C93.9109 99.758 94.0609 98.942 94.3609 98.162C94.6729 97.382 95.0989 96.692 95.6389 96.092C96.1789 95.492 96.8149 95.018 97.5469 94.67C98.2909 94.31 99.0949 94.13 99.9589 94.13C100.859 94.13 101.675 94.322 102.407 94.706C103.139 95.078 103.769 95.57 104.297 96.182C104.825 96.794 105.233 97.49 105.521 98.27C105.809 99.038 105.953 99.824 105.953 100.628C105.953 101.48 105.797 102.296 105.485 103.076C105.185 103.856 104.765 104.546 104.225 105.146C103.697 105.734 103.061 106.208 102.317 106.568C101.585 106.916 100.787 107.09 99.9229 107.09ZM95.5489 100.61C95.5489 101.258 95.6509 101.888 95.8549 102.5C96.0709 103.1 96.3709 103.634 96.7549 104.102C97.1389 104.57 97.6009 104.942 98.1409 105.218C98.6809 105.494 99.2809 105.632 99.9409 105.632C100.625 105.632 101.237 105.488 101.777 105.2C102.317 104.9 102.773 104.516 103.145 104.048C103.529 103.568 103.817 103.028 104.009 102.428C104.213 101.828 104.315 101.222 104.315 100.61C104.315 99.962 104.207 99.338 103.991 98.738C103.787 98.126 103.487 97.592 103.091 97.136C102.707 96.668 102.245 96.296 101.705 96.02C101.177 95.744 100.589 95.606 99.9409 95.606C99.2569 95.606 98.6449 95.75 98.1049 96.038C97.5649 96.326 97.1029 96.704 96.7189 97.172C96.3469 97.64 96.0589 98.174 95.8549 98.774C95.6509 99.374 95.5489 99.986 95.5489 100.61ZM109.284 107V94.22H110.904V105.56H118.032V107H109.284ZM120.875 107V94.22H122.495V105.56H129.623V107H120.875ZM141.143 105.56V107H132.467V94.22H140.981V95.66H134.087V99.8H140.081V101.15H134.087V105.56H141.143ZM143.372 100.52C143.372 99.752 143.504 98.99 143.768 98.234C144.044 97.466 144.44 96.782 144.956 96.182C145.484 95.57 146.126 95.078 146.882 94.706C147.638 94.334 148.496 94.148 149.456 94.148C150.596 94.148 151.574 94.406 152.39 94.922C153.206 95.438 153.812 96.11 154.208 96.938L152.93 97.766C152.738 97.358 152.504 97.016 152.228 96.74C151.964 96.464 151.67 96.242 151.346 96.074C151.034 95.906 150.71 95.786 150.374 95.714C150.038 95.642 149.708 95.606 149.384 95.606C148.676 95.606 148.046 95.756 147.494 96.056C146.954 96.344 146.498 96.728 146.126 97.208C145.754 97.676 145.472 98.21 145.28 98.81C145.1 99.398 145.01 99.992 145.01 100.592C145.01 101.264 145.118 101.906 145.334 102.518C145.562 103.118 145.874 103.652 146.27 104.12C146.666 104.588 147.134 104.96 147.674 105.236C148.214 105.512 148.802 105.65 149.438 105.65C149.774 105.65 150.116 105.608 150.464 105.524C150.824 105.44 151.166 105.308 151.49 105.128C151.814 104.936 152.114 104.702 152.39 104.426C152.678 104.138 152.912 103.796 153.092 103.4L154.442 104.138C154.238 104.618 153.95 105.044 153.578 105.416C153.218 105.776 152.804 106.082 152.336 106.334C151.88 106.586 151.394 106.778 150.878 106.91C150.362 107.042 149.858 107.108 149.366 107.108C148.49 107.108 147.686 106.916 146.954 106.532C146.222 106.148 145.586 105.65 145.046 105.038C144.518 104.414 144.104 103.712 143.804 102.932C143.516 102.14 143.372 101.336 143.372 100.52ZM166.765 95.66H162.355V107H160.735V95.66H156.325V94.22H166.765V95.66ZM183.445 95.66H179.035V107H177.415V95.66H173.005V94.22H183.445V95.66ZM196.643 94.22V107H195.023V101.186H187.985V107H186.365V94.22H187.985V99.746H195.023V94.22H196.643ZM209.463 105.56V107H200.787V94.22H209.301V95.66H202.407V99.8H208.401V101.15H202.407V105.56H209.463ZM222.34 94.238H225.058L226.354 98.324L227.65 94.238H230.386L228.244 100.178L229.54 103.616L232.744 94.22H235.966L230.854 107H228.388L226.354 101.996L224.338 107H221.854L216.76 94.22H219.964L223.186 103.616L224.446 100.178L222.34 94.238ZM240.541 94.22H243.205L247.867 107H244.843L243.853 104.138H239.875L238.903 107H235.879L240.541 94.22ZM243.367 102.104L241.873 97.586L240.343 102.104H243.367ZM253.157 99.692V107H250.205V94.22H252.509L258.467 101.726V94.22H261.419V107H259.043L253.157 99.692ZM264.944 107V94.22H269.714C270.77 94.22 271.694 94.388 272.486 94.724C273.278 95.06 273.938 95.516 274.466 96.092C275.006 96.668 275.408 97.346 275.672 98.126C275.948 98.894 276.086 99.716 276.086 100.592C276.086 101.564 275.936 102.446 275.636 103.238C275.336 104.018 274.904 104.69 274.34 105.254C273.788 105.806 273.116 106.238 272.324 106.55C271.544 106.85 270.674 107 269.714 107H264.944ZM273.08 100.592C273.08 100.028 273.002 99.518 272.846 99.062C272.702 98.594 272.486 98.192 272.198 97.856C271.91 97.52 271.556 97.262 271.136 97.082C270.716 96.902 270.242 96.812 269.714 96.812H267.896V104.408H269.714C270.254 104.408 270.734 104.312 271.154 104.12C271.574 103.928 271.922 103.664 272.198 103.328C272.486 102.98 272.702 102.578 272.846 102.122C273.002 101.654 273.08 101.144 273.08 100.592ZM287.89 104.408V107H278.908V94.22H287.728V96.812H281.86V99.296H286.9V101.69H281.86V104.408H287.89ZM290.764 107V94.22H296.524C297.124 94.22 297.676 94.346 298.18 94.598C298.696 94.85 299.14 95.18 299.512 95.588C299.884 95.996 300.172 96.458 300.376 96.974C300.592 97.49 300.7 98.012 300.7 98.54C300.7 98.936 300.652 99.32 300.556 99.692C300.46 100.052 300.322 100.394 300.142 100.718C299.962 101.042 299.74 101.336 299.476 101.6C299.224 101.852 298.936 102.068 298.612 102.248L301.42 107H298.09L295.642 102.878H293.716V107H290.764ZM293.716 100.304H296.416C296.764 100.304 297.064 100.142 297.316 99.818C297.568 99.482 297.694 99.056 297.694 98.54C297.694 98.012 297.55 97.592 297.262 97.28C296.974 96.968 296.662 96.812 296.326 96.812H293.716V100.304ZM312.884 104.408V107H303.902V94.22H312.722V96.812H306.854V99.296H311.894V101.69H306.854V104.408H312.884ZM315.758 107V94.22H321.518C322.118 94.22 322.67 94.346 323.174 94.598C323.69 94.85 324.134 95.18 324.506 95.588C324.878 95.996 325.166 96.458 325.37 96.974C325.586 97.49 325.694 98.012 325.694 98.54C325.694 98.936 325.646 99.32 325.55 99.692C325.454 100.052 325.316 100.394 325.136 100.718C324.956 101.042 324.734 101.336 324.47 101.6C324.218 101.852 323.93 102.068 323.606 102.248L326.414 107H323.084L320.636 102.878H318.71V107H315.758ZM318.71 100.304H321.41C321.758 100.304 322.058 100.142 322.31 99.818C322.562 99.482 322.688 99.056 322.688 98.54C322.688 98.012 322.544 97.592 322.256 97.28C321.968 96.968 321.656 96.812 321.32 96.812H318.71V100.304ZM336.564 97.964C336.528 97.916 336.402 97.826 336.186 97.694C335.97 97.562 335.7 97.424 335.376 97.28C335.052 97.136 334.698 97.01 334.314 96.902C333.93 96.794 333.546 96.74 333.162 96.74C332.106 96.74 331.578 97.094 331.578 97.802C331.578 98.018 331.632 98.198 331.74 98.342C331.86 98.486 332.028 98.618 332.244 98.738C332.472 98.846 332.754 98.948 333.09 99.044C333.426 99.14 333.816 99.248 334.26 99.368C334.872 99.536 335.424 99.722 335.916 99.926C336.408 100.118 336.822 100.364 337.158 100.664C337.506 100.952 337.77 101.306 337.95 101.726C338.142 102.146 338.238 102.65 338.238 103.238C338.238 103.958 338.1 104.57 337.824 105.074C337.56 105.566 337.206 105.968 336.762 106.28C336.318 106.58 335.808 106.802 335.232 106.946C334.656 107.078 334.062 107.144 333.45 107.144C332.982 107.144 332.502 107.108 332.01 107.036C331.518 106.964 331.038 106.862 330.57 106.73C330.102 106.586 329.646 106.418 329.202 106.226C328.77 106.034 328.368 105.812 327.996 105.56L329.292 102.986C329.34 103.046 329.496 103.16 329.76 103.328C330.024 103.496 330.348 103.664 330.732 103.832C331.128 104 331.566 104.15 332.046 104.282C332.526 104.414 333.012 104.48 333.504 104.48C334.548 104.48 335.07 104.162 335.07 103.526C335.07 103.286 334.992 103.088 334.836 102.932C334.68 102.776 334.464 102.638 334.188 102.518C333.912 102.386 333.582 102.266 333.198 102.158C332.826 102.05 332.418 101.93 331.974 101.798C331.386 101.618 330.876 101.426 330.444 101.222C330.012 101.006 329.652 100.76 329.364 100.484C329.088 100.208 328.878 99.89 328.734 99.53C328.602 99.17 328.536 98.75 328.536 98.27C328.536 97.598 328.662 97.004 328.914 96.488C329.166 95.972 329.508 95.54 329.94 95.192C330.372 94.832 330.87 94.562 331.434 94.382C332.01 94.202 332.616 94.112 333.252 94.112C333.696 94.112 334.134 94.154 334.566 94.238C334.998 94.322 335.412 94.43 335.808 94.562C336.204 94.694 336.57 94.844 336.906 95.012C337.254 95.18 337.572 95.348 337.86 95.516L336.564 97.964ZM355.66 95.66H351.25V107H349.63V95.66H345.22V94.22H355.66V95.66ZM363.378 107.09C362.478 107.09 361.656 106.91 360.912 106.55C360.18 106.178 359.55 105.692 359.022 105.092C358.494 104.48 358.086 103.784 357.798 103.004C357.51 102.224 357.366 101.426 357.366 100.61C357.366 99.758 357.516 98.942 357.816 98.162C358.128 97.382 358.554 96.692 359.094 96.092C359.634 95.492 360.27 95.018 361.002 94.67C361.746 94.31 362.55 94.13 363.414 94.13C364.314 94.13 365.13 94.322 365.862 94.706C366.594 95.078 367.224 95.57 367.752 96.182C368.28 96.794 368.688 97.49 368.976 98.27C369.264 99.038 369.408 99.824 369.408 100.628C369.408 101.48 369.252 102.296 368.94 103.076C368.64 103.856 368.22 104.546 367.68 105.146C367.152 105.734 366.516 106.208 365.772 106.568C365.04 106.916 364.242 107.09 363.378 107.09ZM359.004 100.61C359.004 101.258 359.106 101.888 359.31 102.5C359.526 103.1 359.826 103.634 360.21 104.102C360.594 104.57 361.056 104.942 361.596 105.218C362.136 105.494 362.736 105.632 363.396 105.632C364.08 105.632 364.692 105.488 365.232 105.2C365.772 104.9 366.228 104.516 366.6 104.048C366.984 103.568 367.272 103.028 367.464 102.428C367.668 101.828 367.77 101.222 367.77 100.61C367.77 99.962 367.662 99.338 367.446 98.738C367.242 98.126 366.942 97.592 366.546 97.136C366.162 96.668 365.7 96.296 365.16 96.02C364.632 95.744 364.044 95.606 363.396 95.606C362.712 95.606 362.1 95.75 361.56 96.038C361.02 96.326 360.558 96.704 360.174 97.172C359.802 97.64 359.514 98.174 359.31 98.774C359.106 99.374 359.004 99.986 359.004 100.61ZM378.372 107V94.22H386.814V95.66H379.992V99.926H385.734V101.276H379.992V107H378.372ZM389.946 107V94.22H391.566V107H389.946ZM395.702 107V94.22H397.322V105.56H404.45V107H395.702ZM407.293 107V94.22H408.913V105.56H416.041V107H407.293ZM429.229 105.632C429.973 105.632 430.591 105.488 431.083 105.2C431.575 104.912 431.965 104.54 432.253 104.084C432.553 103.616 432.763 103.088 432.883 102.5C433.003 101.9 433.063 101.294 433.063 100.682V94.22H434.683V100.682C434.683 101.546 434.581 102.368 434.377 103.148C434.185 103.916 433.873 104.594 433.441 105.182C433.009 105.77 432.445 106.238 431.749 106.586C431.065 106.922 430.231 107.09 429.247 107.09C428.227 107.09 427.369 106.91 426.673 106.55C425.977 106.19 425.413 105.716 424.981 105.128C424.561 104.528 424.255 103.844 424.063 103.076C423.883 102.296 423.793 101.498 423.793 100.682V94.22H425.413V100.682C425.413 101.318 425.473 101.936 425.593 102.536C425.725 103.124 425.935 103.646 426.223 104.102C426.523 104.558 426.913 104.93 427.393 105.218C427.885 105.494 428.497 105.632 429.229 105.632ZM438.641 107V94.22H443.969C444.533 94.22 445.049 94.34 445.517 94.58C445.997 94.808 446.405 95.12 446.741 95.516C447.089 95.9 447.359 96.338 447.551 96.83C447.743 97.31 447.839 97.802 447.839 98.306C447.839 98.834 447.749 99.344 447.569 99.836C447.389 100.328 447.131 100.766 446.795 101.15C446.471 101.534 446.075 101.84 445.607 102.068C445.151 102.296 444.641 102.41 444.077 102.41H440.261V107H438.641ZM440.261 100.97H443.987C444.323 100.97 444.623 100.904 444.887 100.772C445.163 100.628 445.397 100.436 445.589 100.196C445.781 99.944 445.931 99.656 446.039 99.332C446.147 99.008 446.201 98.666 446.201 98.306C446.201 97.934 446.135 97.586 446.003 97.262C445.883 96.938 445.715 96.656 445.499 96.416C445.295 96.176 445.049 95.99 444.761 95.858C444.485 95.726 444.191 95.66 443.879 95.66H440.261V100.97ZM90.746 120.66H86.336V132H84.716V120.66H80.306V119.22H90.746V120.66ZM103.945 119.22V132H102.325V126.186H95.2866V132H93.6666V119.22H95.2866V124.746H102.325V119.22H103.945ZM116.764 130.56V132H108.088V119.22H116.602V120.66H109.708V124.8H115.702V126.15H109.708V130.56H116.764ZM135.51 128.706C135.51 129.198 135.408 129.648 135.204 130.056C135.012 130.464 134.742 130.812 134.394 131.1C134.058 131.388 133.662 131.61 133.206 131.766C132.762 131.922 132.282 132 131.766 132H125.7V119.22H132.054C132.498 119.22 132.9 119.316 133.26 119.508C133.62 119.7 133.926 119.952 134.178 120.264C134.43 120.564 134.622 120.912 134.754 121.308C134.898 121.692 134.97 122.082 134.97 122.478C134.97 123.114 134.808 123.702 134.484 124.242C134.172 124.782 133.722 125.184 133.134 125.448C133.866 125.664 134.442 126.066 134.862 126.654C135.294 127.23 135.51 127.914 135.51 128.706ZM133.872 128.418C133.872 128.13 133.818 127.854 133.71 127.59C133.614 127.314 133.476 127.074 133.296 126.87C133.128 126.666 132.924 126.504 132.684 126.384C132.444 126.264 132.18 126.204 131.892 126.204H127.32V130.596H131.766C132.066 130.596 132.342 130.536 132.594 130.416C132.846 130.296 133.068 130.14 133.26 129.948C133.452 129.744 133.602 129.51 133.71 129.246C133.818 128.982 133.872 128.706 133.872 128.418ZM127.32 120.624V124.89H131.388C131.676 124.89 131.94 124.836 132.18 124.728C132.42 124.608 132.624 124.452 132.792 124.26C132.972 124.068 133.11 123.846 133.206 123.594C133.314 123.33 133.368 123.054 133.368 122.766C133.368 122.466 133.32 122.184 133.224 121.92C133.128 121.656 132.996 121.428 132.828 121.236C132.672 121.044 132.474 120.894 132.234 120.786C132.006 120.678 131.76 120.624 131.496 120.624H127.32ZM142.48 119.22H143.848L149.068 132H147.34L145.828 128.256H140.464L138.97 132H137.242L142.48 119.22ZM145.468 126.996L143.164 121.092L140.788 126.996H145.468ZM151.854 132V119.22H157.326C157.89 119.22 158.406 119.34 158.874 119.58C159.354 119.808 159.762 120.12 160.098 120.516C160.446 120.9 160.716 121.338 160.908 121.83C161.1 122.31 161.196 122.802 161.196 123.306C161.196 123.75 161.13 124.182 160.998 124.602C160.878 125.01 160.698 125.382 160.458 125.718C160.23 126.054 159.948 126.342 159.612 126.582C159.288 126.822 158.922 126.996 158.514 127.104L161.61 132H159.774L156.858 127.41H153.474V132H151.854ZM153.474 125.97H157.344C157.68 125.97 157.98 125.898 158.244 125.754C158.52 125.61 158.754 125.418 158.946 125.178C159.138 124.926 159.288 124.638 159.396 124.314C159.504 123.99 159.558 123.654 159.558 123.306C159.558 122.946 159.492 122.61 159.36 122.298C159.24 121.974 159.072 121.692 158.856 121.452C158.652 121.2 158.406 121.008 158.118 120.876C157.842 120.732 157.548 120.66 157.236 120.66H153.474V125.97ZM172.27 121.902C172.126 121.734 171.934 121.572 171.694 121.416C171.454 121.26 171.184 121.122 170.884 121.002C170.584 120.87 170.254 120.768 169.894 120.696C169.546 120.612 169.18 120.57 168.796 120.57C167.8 120.57 167.068 120.756 166.6 121.128C166.144 121.5 165.916 122.01 165.916 122.658C165.916 123.006 165.982 123.294 166.114 123.522C166.246 123.75 166.45 123.948 166.726 124.116C167.014 124.272 167.368 124.41 167.788 124.53C168.208 124.65 168.706 124.776 169.282 124.908C169.942 125.052 170.536 125.22 171.064 125.412C171.604 125.592 172.06 125.82 172.432 126.096C172.816 126.372 173.104 126.708 173.296 127.104C173.5 127.5 173.602 127.986 173.602 128.562C173.602 129.174 173.482 129.708 173.242 130.164C173.002 130.608 172.672 130.98 172.252 131.28C171.844 131.568 171.358 131.784 170.794 131.928C170.23 132.06 169.618 132.126 168.958 132.126C167.974 132.126 167.038 131.976 166.15 131.676C165.274 131.364 164.476 130.914 163.756 130.326L164.53 128.958C164.722 129.162 164.968 129.366 165.268 129.57C165.58 129.774 165.928 129.96 166.312 130.128C166.708 130.284 167.128 130.416 167.572 130.524C168.028 130.62 168.502 130.668 168.994 130.668C169.906 130.668 170.614 130.506 171.118 130.182C171.622 129.858 171.874 129.372 171.874 128.724C171.874 128.364 171.79 128.064 171.622 127.824C171.466 127.572 171.232 127.356 170.92 127.176C170.608 126.996 170.218 126.84 169.75 126.708C169.294 126.564 168.772 126.42 168.184 126.276C167.536 126.12 166.966 125.952 166.474 125.772C165.982 125.592 165.568 125.376 165.232 125.124C164.908 124.872 164.662 124.566 164.494 124.206C164.326 123.846 164.242 123.414 164.242 122.91C164.242 122.298 164.356 121.758 164.584 121.29C164.812 120.822 165.13 120.426 165.538 120.102C165.946 119.778 166.432 119.538 166.996 119.382C167.56 119.214 168.172 119.13 168.832 119.13C169.696 119.13 170.476 119.262 171.172 119.526C171.868 119.79 172.486 120.144 173.026 120.588L172.27 121.902ZM185.771 119.22H187.139L192.359 132H190.631L189.119 128.256H183.755L182.261 132H180.533L185.771 119.22ZM188.759 126.996L186.455 121.092L184.079 126.996H188.759ZM196.764 122.244V132H195.144V119.22H196.404L204.324 129.174V119.238H205.944V132H204.576L196.764 122.244ZM210.076 132V119.22H214.504C215.524 119.22 216.418 119.388 217.186 119.724C217.966 120.06 218.614 120.516 219.13 121.092C219.646 121.668 220.03 122.346 220.282 123.126C220.546 123.894 220.678 124.716 220.678 125.592C220.678 126.564 220.534 127.446 220.246 128.238C219.958 129.018 219.544 129.69 219.004 130.254C218.464 130.806 217.81 131.238 217.042 131.55C216.286 131.85 215.44 132 214.504 132H210.076ZM219.04 125.592C219.04 124.872 218.938 124.212 218.734 123.612C218.542 123 218.248 122.478 217.852 122.046C217.468 121.614 216.994 121.278 216.43 121.038C215.866 120.786 215.224 120.66 214.504 120.66H211.696V130.56H214.504C215.236 130.56 215.884 130.434 216.448 130.182C217.024 129.93 217.498 129.582 217.87 129.138C218.254 128.694 218.542 128.172 218.734 127.572C218.938 126.96 219.04 126.3 219.04 125.592ZM239.484 128.706C239.484 129.198 239.382 129.648 239.178 130.056C238.986 130.464 238.716 130.812 238.368 131.1C238.032 131.388 237.636 131.61 237.18 131.766C236.736 131.922 236.256 132 235.74 132H229.674V119.22H236.028C236.472 119.22 236.874 119.316 237.234 119.508C237.594 119.7 237.9 119.952 238.152 120.264C238.404 120.564 238.596 120.912 238.728 121.308C238.872 121.692 238.944 122.082 238.944 122.478C238.944 123.114 238.782 123.702 238.458 124.242C238.146 124.782 237.696 125.184 237.108 125.448C237.84 125.664 238.416 126.066 238.836 126.654C239.268 127.23 239.484 127.914 239.484 128.706ZM237.846 128.418C237.846 128.13 237.792 127.854 237.684 127.59C237.588 127.314 237.45 127.074 237.27 126.87C237.102 126.666 236.898 126.504 236.658 126.384C236.418 126.264 236.154 126.204 235.866 126.204H231.294V130.596H235.74C236.04 130.596 236.316 130.536 236.568 130.416C236.82 130.296 237.042 130.14 237.234 129.948C237.426 129.744 237.576 129.51 237.684 129.246C237.792 128.982 237.846 128.706 237.846 128.418ZM231.294 120.624V124.89H235.362C235.65 124.89 235.914 124.836 236.154 124.728C236.394 124.608 236.598 124.452 236.766 124.26C236.946 124.068 237.084 123.846 237.18 123.594C237.288 123.33 237.342 123.054 237.342 122.766C237.342 122.466 237.294 122.184 237.198 121.92C237.102 121.656 236.97 121.428 236.802 121.236C236.646 121.044 236.448 120.894 236.208 120.786C235.98 120.678 235.734 120.624 235.47 120.624H231.294ZM242.83 132V119.22H248.302C248.866 119.22 249.382 119.34 249.85 119.58C250.33 119.808 250.738 120.12 251.074 120.516C251.422 120.9 251.692 121.338 251.884 121.83C252.076 122.31 252.172 122.802 252.172 123.306C252.172 123.75 252.106 124.182 251.974 124.602C251.854 125.01 251.674 125.382 251.434 125.718C251.206 126.054 250.924 126.342 250.588 126.582C250.264 126.822 249.898 126.996 249.49 127.104L252.586 132H250.75L247.834 127.41H244.45V132H242.83ZM244.45 125.97H248.32C248.656 125.97 248.956 125.898 249.22 125.754C249.496 125.61 249.73 125.418 249.922 125.178C250.114 124.926 250.264 124.638 250.372 124.314C250.48 123.99 250.534 123.654 250.534 123.306C250.534 122.946 250.468 122.61 250.336 122.298C250.216 121.974 250.048 121.692 249.832 121.452C249.628 121.2 249.382 121.008 249.094 120.876C248.818 120.732 248.524 120.66 248.212 120.66H244.45V125.97ZM255.74 132V119.22H257.36V132H255.74ZM263.116 122.244V132H261.496V119.22H262.756L270.676 129.174V119.238H272.296V132H270.928L263.116 122.244ZM285.445 130.272C284.317 131.484 283.021 132.09 281.557 132.09C280.705 132.09 279.913 131.904 279.181 131.532C278.461 131.16 277.837 130.674 277.309 130.074C276.781 129.462 276.361 128.766 276.049 127.986C275.749 127.206 275.599 126.402 275.599 125.574C275.599 124.71 275.749 123.894 276.049 123.126C276.349 122.346 276.763 121.662 277.291 121.074C277.819 120.474 278.449 120 279.181 119.652C279.913 119.304 280.705 119.13 281.557 119.13C282.793 119.13 283.807 119.388 284.599 119.904C285.403 120.42 286.015 121.092 286.435 121.92L285.193 122.784C284.809 122.04 284.299 121.488 283.663 121.128C283.027 120.768 282.313 120.588 281.521 120.588C280.873 120.588 280.285 120.732 279.757 121.02C279.229 121.296 278.779 121.668 278.407 122.136C278.035 122.592 277.747 123.126 277.543 123.738C277.339 124.338 277.237 124.962 277.237 125.61C277.237 126.294 277.351 126.942 277.579 127.554C277.807 128.154 278.119 128.688 278.515 129.156C278.911 129.612 279.379 129.972 279.919 130.236C280.459 130.5 281.047 130.632 281.683 130.632C283.075 130.632 284.329 129.96 285.445 128.616V126.852H282.691V125.628H286.813V132H285.445V130.272ZM304.661 120.66H300.251V132H298.631V120.66H294.221V119.22H304.661V120.66ZM317.859 119.22V132H316.239V126.186H309.201V132H307.581V119.22H309.201V124.746H316.239V119.22H317.859ZM330.679 130.56V132H322.003V119.22H330.517V120.66H323.623V124.8H329.617V126.15H323.623V130.56H330.679ZM347.12 121.902C346.976 121.734 346.784 121.572 346.544 121.416C346.304 121.26 346.034 121.122 345.734 121.002C345.434 120.87 345.104 120.768 344.744 120.696C344.396 120.612 344.03 120.57 343.646 120.57C342.65 120.57 341.918 120.756 341.45 121.128C340.994 121.5 340.766 122.01 340.766 122.658C340.766 123.006 340.832 123.294 340.964 123.522C341.096 123.75 341.3 123.948 341.576 124.116C341.864 124.272 342.218 124.41 342.638 124.53C343.058 124.65 343.556 124.776 344.132 124.908C344.792 125.052 345.386 125.22 345.914 125.412C346.454 125.592 346.91 125.82 347.282 126.096C347.666 126.372 347.954 126.708 348.146 127.104C348.35 127.5 348.452 127.986 348.452 128.562C348.452 129.174 348.332 129.708 348.092 130.164C347.852 130.608 347.522 130.98 347.102 131.28C346.694 131.568 346.208 131.784 345.644 131.928C345.08 132.06 344.468 132.126 343.808 132.126C342.824 132.126 341.888 131.976 341 131.676C340.124 131.364 339.326 130.914 338.606 130.326L339.38 128.958C339.572 129.162 339.818 129.366 340.118 129.57C340.43 129.774 340.778 129.96 341.162 130.128C341.558 130.284 341.978 130.416 342.422 130.524C342.878 130.62 343.352 130.668 343.844 130.668C344.756 130.668 345.464 130.506 345.968 130.182C346.472 129.858 346.724 129.372 346.724 128.724C346.724 128.364 346.64 128.064 346.472 127.824C346.316 127.572 346.082 127.356 345.77 127.176C345.458 126.996 345.068 126.84 344.6 126.708C344.144 126.564 343.622 126.42 343.034 126.276C342.386 126.12 341.816 125.952 341.324 125.772C340.832 125.592 340.418 125.376 340.082 125.124C339.758 124.872 339.512 124.566 339.344 124.206C339.176 123.846 339.092 123.414 339.092 122.91C339.092 122.298 339.206 121.758 339.434 121.29C339.662 120.822 339.98 120.426 340.388 120.102C340.796 119.778 341.282 119.538 341.846 119.382C342.41 119.214 343.022 119.13 343.682 119.13C344.546 119.13 345.326 119.262 346.022 119.526C346.718 119.79 347.336 120.144 347.876 120.588L347.12 121.902ZM356.919 130.632C357.663 130.632 358.281 130.488 358.773 130.2C359.265 129.912 359.655 129.54 359.943 129.084C360.243 128.616 360.453 128.088 360.573 127.5C360.693 126.9 360.753 126.294 360.753 125.682V119.22H362.373V125.682C362.373 126.546 362.271 127.368 362.067 128.148C361.875 128.916 361.563 129.594 361.131 130.182C360.699 130.77 360.135 131.238 359.439 131.586C358.755 131.922 357.921 132.09 356.937 132.09C355.917 132.09 355.059 131.91 354.363 131.55C353.667 131.19 353.103 130.716 352.671 130.128C352.251 129.528 351.945 128.844 351.753 128.076C351.573 127.296 351.483 126.498 351.483 125.682V119.22H353.103V125.682C353.103 126.318 353.163 126.936 353.283 127.536C353.415 128.124 353.625 128.646 353.913 129.102C354.213 129.558 354.603 129.93 355.083 130.218C355.575 130.494 356.187 130.632 356.919 130.632ZM367.951 122.244V132H366.331V119.22H367.591L375.511 129.174V119.238H377.131V132H375.763L367.951 122.244ZM390.221 119.22H391.589L396.809 132H395.081L393.569 128.256H388.205L386.711 132H384.983L390.221 119.22ZM393.209 126.996L390.905 121.092L388.529 126.996H393.209ZM401.214 122.244V132H399.594V119.22H400.854L408.774 129.174V119.238H410.394V132H409.026L401.214 122.244ZM414.526 132V119.22H418.954C419.974 119.22 420.868 119.388 421.636 119.724C422.416 120.06 423.064 120.516 423.58 121.092C424.096 121.668 424.48 122.346 424.732 123.126C424.996 123.894 425.128 124.716 425.128 125.592C425.128 126.564 424.984 127.446 424.696 128.238C424.408 129.018 423.994 129.69 423.454 130.254C422.914 130.806 422.26 131.238 421.492 131.55C420.736 131.85 419.89 132 418.954 132H414.526ZM423.49 125.592C423.49 124.872 423.388 124.212 423.184 123.612C422.992 123 422.698 122.478 422.302 122.046C421.918 121.614 421.444 121.278 420.88 121.038C420.316 120.786 419.674 120.66 418.954 120.66H416.146V130.56H418.954C419.686 130.56 420.334 130.434 420.898 130.182C421.474 129.93 421.948 129.582 422.32 129.138C422.704 128.694 422.992 128.172 423.184 127.572C423.388 126.96 423.49 126.3 423.49 125.592ZM442.794 120.66H438.384V132H436.764V120.66H432.354V119.22H442.794V120.66ZM455.993 119.22V132H454.373V126.186H447.335V132H445.715V119.22H447.335V124.746H454.373V119.22H455.993ZM468.813 130.56V132H460.137V119.22H468.651V120.66H461.757V124.8H467.751V126.15H461.757V130.56H468.813ZM92.582 157V147.118L88.334 154.696H87.416L83.15 147.118V157H81.53V144.22H83.24L87.866 152.518L92.51 144.22H94.202V157H92.582ZM103.526 157.09C102.626 157.09 101.804 156.91 101.06 156.55C100.328 156.178 99.6984 155.692 99.1704 155.092C98.6424 154.48 98.2344 153.784 97.9464 153.004C97.6584 152.224 97.5144 151.426 97.5144 150.61C97.5144 149.758 97.6644 148.942 97.9644 148.162C98.2764 147.382 98.7024 146.692 99.2424 146.092C99.7824 145.492 100.418 145.018 101.15 144.67C101.894 144.31 102.698 144.13 103.562 144.13C104.462 144.13 105.278 144.322 106.01 144.706C106.742 145.078 107.372 145.57 107.9 146.182C108.428 146.794 108.836 147.49 109.124 148.27C109.412 149.038 109.556 149.824 109.556 150.628C109.556 151.48 109.4 152.296 109.088 153.076C108.788 153.856 108.368 154.546 107.828 155.146C107.3 155.734 106.664 156.208 105.92 156.568C105.188 156.916 104.39 157.09 103.526 157.09ZM99.1524 150.61C99.1524 151.258 99.2544 151.888 99.4584 152.5C99.6744 153.1 99.9744 153.634 100.358 154.102C100.742 154.57 101.204 154.942 101.744 155.218C102.284 155.494 102.884 155.632 103.544 155.632C104.228 155.632 104.84 155.488 105.38 155.2C105.92 154.9 106.376 154.516 106.748 154.048C107.132 153.568 107.42 153.028 107.612 152.428C107.816 151.828 107.918 151.222 107.918 150.61C107.918 149.962 107.81 149.338 107.594 148.738C107.39 148.126 107.09 147.592 106.694 147.136C106.31 146.668 105.848 146.296 105.308 146.02C104.78 145.744 104.192 145.606 103.544 145.606C102.86 145.606 102.248 145.75 101.708 146.038C101.168 146.326 100.706 146.704 100.322 147.172C99.9504 147.64 99.6624 148.174 99.4584 148.774C99.2544 149.374 99.1524 149.986 99.1524 150.61ZM118.071 157.09C117.171 157.09 116.349 156.91 115.605 156.55C114.873 156.178 114.243 155.692 113.715 155.092C113.187 154.48 112.779 153.784 112.491 153.004C112.203 152.224 112.059 151.426 112.059 150.61C112.059 149.758 112.209 148.942 112.509 148.162C112.821 147.382 113.247 146.692 113.787 146.092C114.327 145.492 114.963 145.018 115.695 144.67C116.439 144.31 117.243 144.13 118.107 144.13C119.007 144.13 119.823 144.322 120.555 144.706C121.287 145.078 121.917 145.57 122.445 146.182C122.973 146.794 123.381 147.49 123.669 148.27C123.957 149.038 124.101 149.824 124.101 150.628C124.101 151.48 123.945 152.296 123.633 153.076C123.333 153.856 122.913 154.546 122.373 155.146C121.845 155.734 121.209 156.208 120.465 156.568C119.733 156.916 118.935 157.09 118.071 157.09ZM113.697 150.61C113.697 151.258 113.799 151.888 114.003 152.5C114.219 153.1 114.519 153.634 114.903 154.102C115.287 154.57 115.749 154.942 116.289 155.218C116.829 155.494 117.429 155.632 118.089 155.632C118.773 155.632 119.385 155.488 119.925 155.2C120.465 154.9 120.921 154.516 121.293 154.048C121.677 153.568 121.965 153.028 122.157 152.428C122.361 151.828 122.463 151.222 122.463 150.61C122.463 149.962 122.355 149.338 122.139 148.738C121.935 148.126 121.635 147.592 121.239 147.136C120.855 146.668 120.393 146.296 119.853 146.02C119.325 145.744 118.737 145.606 118.089 145.606C117.405 145.606 116.793 145.75 116.253 146.038C115.713 146.326 115.251 146.704 114.867 147.172C114.495 147.64 114.207 148.174 114.003 148.774C113.799 149.374 113.697 149.986 113.697 150.61ZM129.052 147.244V157H127.432V144.22H128.692L136.612 154.174V144.238H138.232V157H136.864L129.052 147.244ZM147.168 150.52C147.168 149.752 147.3 148.99 147.564 148.234C147.84 147.466 148.236 146.782 148.752 146.182C149.28 145.57 149.922 145.078 150.678 144.706C151.434 144.334 152.292 144.148 153.252 144.148C154.392 144.148 155.37 144.406 156.186 144.922C157.002 145.438 157.608 146.11 158.004 146.938L156.726 147.766C156.534 147.358 156.3 147.016 156.024 146.74C155.76 146.464 155.466 146.242 155.142 146.074C154.83 145.906 154.506 145.786 154.17 145.714C153.834 145.642 153.504 145.606 153.18 145.606C152.472 145.606 151.842 145.756 151.29 146.056C150.75 146.344 150.294 146.728 149.922 147.208C149.55 147.676 149.268 148.21 149.076 148.81C148.896 149.398 148.806 149.992 148.806 150.592C148.806 151.264 148.914 151.906 149.13 152.518C149.358 153.118 149.67 153.652 150.066 154.12C150.462 154.588 150.93 154.96 151.47 155.236C152.01 155.512 152.598 155.65 153.234 155.65C153.57 155.65 153.912 155.608 154.26 155.524C154.62 155.44 154.962 155.308 155.286 155.128C155.61 154.936 155.91 154.702 156.186 154.426C156.474 154.138 156.708 153.796 156.888 153.4L158.238 154.138C158.034 154.618 157.746 155.044 157.374 155.416C157.014 155.776 156.6 156.082 156.132 156.334C155.676 156.586 155.19 156.778 154.674 156.91C154.158 157.042 153.654 157.108 153.162 157.108C152.286 157.108 151.482 156.916 150.75 156.532C150.018 156.148 149.382 155.65 148.842 155.038C148.314 154.414 147.9 153.712 147.6 152.932C147.312 152.14 147.168 151.336 147.168 150.52ZM161.346 157V144.22H162.966V155.56H170.094V157H161.346ZM177.717 157.09C176.817 157.09 175.995 156.91 175.251 156.55C174.519 156.178 173.889 155.692 173.361 155.092C172.833 154.48 172.425 153.784 172.137 153.004C171.849 152.224 171.705 151.426 171.705 150.61C171.705 149.758 171.855 148.942 172.155 148.162C172.467 147.382 172.893 146.692 173.433 146.092C173.973 145.492 174.609 145.018 175.341 144.67C176.085 144.31 176.889 144.13 177.753 144.13C178.653 144.13 179.469 144.322 180.201 144.706C180.933 145.078 181.563 145.57 182.091 146.182C182.619 146.794 183.027 147.49 183.315 148.27C183.603 149.038 183.747 149.824 183.747 150.628C183.747 151.48 183.591 152.296 183.279 153.076C182.979 153.856 182.559 154.546 182.019 155.146C181.491 155.734 180.855 156.208 180.111 156.568C179.379 156.916 178.581 157.09 177.717 157.09ZM173.343 150.61C173.343 151.258 173.445 151.888 173.649 152.5C173.865 153.1 174.165 153.634 174.549 154.102C174.933 154.57 175.395 154.942 175.935 155.218C176.475 155.494 177.075 155.632 177.735 155.632C178.419 155.632 179.031 155.488 179.571 155.2C180.111 154.9 180.567 154.516 180.939 154.048C181.323 153.568 181.611 153.028 181.803 152.428C182.007 151.828 182.109 151.222 182.109 150.61C182.109 149.962 182.001 149.338 181.785 148.738C181.581 148.126 181.281 147.592 180.885 147.136C180.501 146.668 180.039 146.296 179.499 146.02C178.971 145.744 178.383 145.606 177.735 145.606C177.051 145.606 176.439 145.75 175.899 146.038C175.359 146.326 174.897 146.704 174.513 147.172C174.141 147.64 173.853 148.174 173.649 148.774C173.445 149.374 173.343 149.986 173.343 150.61ZM194.584 146.902C194.44 146.734 194.248 146.572 194.008 146.416C193.768 146.26 193.498 146.122 193.198 146.002C192.898 145.87 192.568 145.768 192.208 145.696C191.86 145.612 191.494 145.57 191.11 145.57C190.114 145.57 189.382 145.756 188.914 146.128C188.458 146.5 188.23 147.01 188.23 147.658C188.23 148.006 188.296 148.294 188.428 148.522C188.56 148.75 188.764 148.948 189.04 149.116C189.328 149.272 189.682 149.41 190.102 149.53C190.522 149.65 191.02 149.776 191.596 149.908C192.256 150.052 192.85 150.22 193.378 150.412C193.918 150.592 194.374 150.82 194.746 151.096C195.13 151.372 195.418 151.708 195.61 152.104C195.814 152.5 195.916 152.986 195.916 153.562C195.916 154.174 195.796 154.708 195.556 155.164C195.316 155.608 194.986 155.98 194.566 156.28C194.158 156.568 193.672 156.784 193.108 156.928C192.544 157.06 191.932 157.126 191.272 157.126C190.288 157.126 189.352 156.976 188.464 156.676C187.588 156.364 186.79 155.914 186.07 155.326L186.844 153.958C187.036 154.162 187.282 154.366 187.582 154.57C187.894 154.774 188.242 154.96 188.626 155.128C189.022 155.284 189.442 155.416 189.886 155.524C190.342 155.62 190.816 155.668 191.308 155.668C192.22 155.668 192.928 155.506 193.432 155.182C193.936 154.858 194.188 154.372 194.188 153.724C194.188 153.364 194.104 153.064 193.936 152.824C193.78 152.572 193.546 152.356 193.234 152.176C192.922 151.996 192.532 151.84 192.064 151.708C191.608 151.564 191.086 151.42 190.498 151.276C189.85 151.12 189.28 150.952 188.788 150.772C188.296 150.592 187.882 150.376 187.546 150.124C187.222 149.872 186.976 149.566 186.808 149.206C186.64 148.846 186.556 148.414 186.556 147.91C186.556 147.298 186.67 146.758 186.898 146.29C187.126 145.822 187.444 145.426 187.852 145.102C188.26 144.778 188.746 144.538 189.31 144.382C189.874 144.214 190.486 144.13 191.146 144.13C192.01 144.13 192.79 144.262 193.486 144.526C194.182 144.79 194.8 145.144 195.34 145.588L194.584 146.902ZM207.803 155.56V157H199.127V144.22H207.641V145.66H200.747V149.8H206.741V151.15H200.747V155.56H207.803ZM211.105 157V144.22H216.577C217.141 144.22 217.657 144.34 218.125 144.58C218.605 144.808 219.013 145.12 219.349 145.516C219.697 145.9 219.967 146.338 220.159 146.83C220.351 147.31 220.447 147.802 220.447 148.306C220.447 148.75 220.381 149.182 220.249 149.602C220.129 150.01 219.949 150.382 219.709 150.718C219.481 151.054 219.199 151.342 218.863 151.582C218.539 151.822 218.173 151.996 217.765 152.104L220.861 157H219.025L216.109 152.41H212.725V157H211.105ZM212.725 150.97H216.595C216.931 150.97 217.231 150.898 217.495 150.754C217.771 150.61 218.005 150.418 218.197 150.178C218.389 149.926 218.539 149.638 218.647 149.314C218.755 148.99 218.809 148.654 218.809 148.306C218.809 147.946 218.743 147.61 218.611 147.298C218.491 146.974 218.323 146.692 218.107 146.452C217.903 146.2 217.657 146.008 217.369 145.876C217.093 145.732 216.799 145.66 216.487 145.66H212.725V150.97ZM238.319 145.66H233.909V157H232.289V145.66H227.879V144.22H238.319V145.66ZM246.037 157.09C245.137 157.09 244.315 156.91 243.571 156.55C242.839 156.178 242.209 155.692 241.681 155.092C241.153 154.48 240.745 153.784 240.457 153.004C240.169 152.224 240.025 151.426 240.025 150.61C240.025 149.758 240.175 148.942 240.475 148.162C240.787 147.382 241.213 146.692 241.753 146.092C242.293 145.492 242.929 145.018 243.661 144.67C244.405 144.31 245.209 144.13 246.073 144.13C246.973 144.13 247.789 144.322 248.521 144.706C249.253 145.078 249.883 145.57 250.411 146.182C250.939 146.794 251.347 147.49 251.635 148.27C251.923 149.038 252.067 149.824 252.067 150.628C252.067 151.48 251.911 152.296 251.599 153.076C251.299 153.856 250.879 154.546 250.339 155.146C249.811 155.734 249.175 156.208 248.431 156.568C247.699 156.916 246.901 157.09 246.037 157.09ZM241.663 150.61C241.663 151.258 241.765 151.888 241.969 152.5C242.185 153.1 242.485 153.634 242.869 154.102C243.253 154.57 243.715 154.942 244.255 155.218C244.795 155.494 245.395 155.632 246.055 155.632C246.739 155.632 247.351 155.488 247.891 155.2C248.431 154.9 248.887 154.516 249.259 154.048C249.643 153.568 249.931 153.028 250.123 152.428C250.327 151.828 250.429 151.222 250.429 150.61C250.429 149.962 250.321 149.338 250.105 148.738C249.901 148.126 249.601 147.592 249.205 147.136C248.821 146.668 248.359 146.296 247.819 146.02C247.291 145.744 246.703 145.606 246.055 145.606C245.371 145.606 244.759 145.75 244.219 146.038C243.679 146.326 243.217 146.704 242.833 147.172C242.461 147.64 242.173 148.174 241.969 148.774C241.765 149.374 241.663 149.986 241.663 150.61ZM264.416 155.272C263.288 156.484 261.992 157.09 260.528 157.09C259.676 157.09 258.884 156.904 258.152 156.532C257.432 156.16 256.808 155.674 256.28 155.074C255.752 154.462 255.332 153.766 255.02 152.986C254.72 152.206 254.57 151.402 254.57 150.574C254.57 149.71 254.72 148.894 255.02 148.126C255.32 147.346 255.734 146.662 256.262 146.074C256.79 145.474 257.42 145 258.152 144.652C258.884 144.304 259.676 144.13 260.528 144.13C261.764 144.13 262.778 144.388 263.57 144.904C264.374 145.42 264.986 146.092 265.406 146.92L264.164 147.784C263.78 147.04 263.27 146.488 262.634 146.128C261.998 145.768 261.284 145.588 260.492 145.588C259.844 145.588 259.256 145.732 258.728 146.02C258.2 146.296 257.75 146.668 257.378 147.136C257.006 147.592 256.718 148.126 256.514 148.738C256.31 149.338 256.208 149.962 256.208 150.61C256.208 151.294 256.322 151.942 256.55 152.554C256.778 153.154 257.09 153.688 257.486 154.156C257.882 154.612 258.35 154.972 258.89 155.236C259.43 155.5 260.018 155.632 260.654 155.632C262.046 155.632 263.3 154.96 264.416 153.616V151.852H261.662V150.628H265.784V157H264.416V155.272ZM278.004 155.56V157H269.328V144.22H277.842V145.66H270.948V149.8H276.942V151.15H270.948V155.56H278.004ZM290.522 145.66H286.112V157H284.492V145.66H280.082V144.22H290.522V145.66ZM303.721 144.22V157H302.101V151.186H295.063V157H293.443V144.22H295.063V149.746H302.101V144.22H303.721ZM316.541 155.56V157H307.865V144.22H316.379V145.66H309.485V149.8H315.479V151.15H309.485V155.56H316.541ZM319.843 157V144.22H325.315C325.879 144.22 326.395 144.34 326.863 144.58C327.343 144.808 327.751 145.12 328.087 145.516C328.435 145.9 328.705 146.338 328.897 146.83C329.089 147.31 329.185 147.802 329.185 148.306C329.185 148.75 329.119 149.182 328.987 149.602C328.867 150.01 328.687 150.382 328.447 150.718C328.219 151.054 327.937 151.342 327.601 151.582C327.277 151.822 326.911 151.996 326.503 152.104L329.599 157H327.763L324.847 152.41H321.463V157H319.843ZM321.463 150.97H325.333C325.669 150.97 325.969 150.898 326.233 150.754C326.509 150.61 326.743 150.418 326.935 150.178C327.127 149.926 327.277 149.638 327.385 149.314C327.493 148.99 327.547 148.654 327.547 148.306C327.547 147.946 327.481 147.61 327.349 147.298C327.229 146.974 327.061 146.692 326.845 146.452C326.641 146.2 326.395 146.008 326.107 145.876C325.831 145.732 325.537 145.66 325.225 145.66H321.463V150.97Z" fill="white"/>
<circle opacity="0.2" cx="253" cy="50" r="6" fill="white"/>
<circle opacity="0.35" cx="279" cy="50" r="6" fill="white"/>
<circle opacity="0.5" cx="305" cy="50" r="6" fill="white"/>
<circle cx="331" cy="50" r="6" fill="white"/>
<circle opacity="0.05" cx="227" cy="50" r="6" fill="white"/>
<circle cx="331" cy="50" r="9" stroke="white" stroke-width="2"/>
</svg>
