<svg width="25" height="36" viewBox="0 0 25 36" fill="none" xmlns="http://www.w3.org/2000/svg">
<g clip-path="url(#clip0)">
<path d="M20.6979 13.1471C19.533 12 18.3682 11.1176 17.1137 10.5C17.8305 9.52941 18.2786 8.38235 18.2786 7.14706C18.2786 5.73529 17.7409 4.5 16.9345 3.52941L18.9954 1.5C19.3538 1.14706 19.3538 0.617647 18.9954 0.264706C18.637 -0.0882353 18.0993 -0.0882353 17.7409 0.264706L15.68 2.29412C14.7839 1.76471 13.7087 1.41176 12.5438 1.41176C11.3789 1.41176 10.3036 1.76471 9.40759 2.29412L7.25705 0.264706C6.89863 -0.0882353 6.36099 -0.0882353 6.00257 0.264706C5.64415 0.617647 5.64415 1.14706 6.00257 1.5L8.0635 3.52941C7.16745 4.5 6.71942 5.73529 6.71942 7.14706C6.71942 8.38235 7.16745 9.52941 7.88429 10.5C6.62981 11.2059 5.46494 12.0882 4.30006 13.1471C0.178201 17.2059 -1.16589 22.4118 1.25347 24.7941C2.50795 26.0294 4.65849 26.2941 6.89863 25.5882C7.9739 27.5294 10.1244 28.8529 12.4542 28.8529C14.7839 28.8529 16.9345 27.5294 18.0097 25.5882C20.3395 26.2941 22.4004 26.0294 23.6549 24.7941C26.1639 22.4118 24.8198 17.2059 20.6979 13.1471ZM16.4864 7.14706C16.4864 8.11765 16.128 9 15.5008 9.70588C15.3216 9.88235 15.1424 10.0588 14.8735 10.2353C14.6943 10.4118 14.4255 10.5 14.2463 10.5882H14.1567C13.9775 10.6765 13.7087 10.7647 13.5295 10.8529C13.4398 10.8529 13.4398 10.8529 13.3502 10.9412C13.0814 11.0294 12.8126 11.0294 12.5438 11.0294C12.275 11.0294 12.0062 11.0294 11.7373 10.9412C11.6477 10.9412 11.6477 10.9412 11.5581 10.8529C11.2893 10.7647 11.1101 10.7647 10.9309 10.5882H10.8413C10.5725 10.5 10.3933 10.3235 10.214 10.2353C10.0348 10.0588 9.76601 9.88235 9.5868 9.70588C8.95956 9 8.60114 8.11765 8.60114 7.14706C8.60114 4.94118 10.3933 3.17647 12.6334 3.17647C14.8735 3.17647 16.4864 4.94118 16.4864 7.14706ZM12.4542 27.0882C10.8413 27.0882 9.40759 26.2059 8.51153 24.9706C9.85562 24.3529 11.1997 23.4706 12.4542 22.3235C13.7087 23.4706 15.0527 24.3529 16.3968 24.9706C15.5904 26.2059 14.1567 27.0882 12.4542 27.0882Z" fill="white"/>
<path d="M12.4553 32.3824C11.9176 32.3824 11.5592 32.7353 11.5592 33.2647V35.1177C11.5592 35.6471 11.9176 36 12.4553 36C12.9929 36 13.3513 35.6471 13.3513 35.1177V33.2647C13.3513 32.7353 12.9929 32.3824 12.4553 32.3824Z" fill="white"/>
<path d="M3.94274 29.9118L2.59865 31.3235C2.24023 31.6765 2.24023 32.2059 2.59865 32.5588C2.77786 32.7353 2.95707 32.8235 3.22589 32.8235C3.49471 32.8235 3.67392 32.7353 3.85313 32.5588L5.19722 31.1471C5.55564 30.7941 5.55564 30.2647 5.19722 29.9118C4.8388 29.5588 4.30116 29.5588 3.94274 29.9118Z" fill="white"/>
<path d="M20.8782 29.9118C20.5197 29.5588 19.9821 29.5588 19.6237 29.9118C19.2653 30.2647 19.2653 30.7941 19.6237 31.1471L20.9678 32.5588C21.147 32.7353 21.4158 32.8235 21.595 32.8235C21.7742 32.8235 22.043 32.7353 22.2222 32.5588C22.5807 32.2059 22.5807 31.6765 22.2222 31.3235L20.8782 29.9118Z" fill="white"/>
</g>
<defs>
<clipPath id="clip0">
<rect width="25" height="36" fill="white"/>
</clipPath>
</defs>
</svg>
