<svg width="50" height="32" viewBox="0 0 50 32" fill="none" xmlns="http://www.w3.org/2000/svg">
<rect x="18.75" y="0.75" width="12.5" height="12.5" rx="1.25" stroke="white" stroke-width="1.5"/>
<rect x="18.75" y="18.75" width="12.5" height="12.5" rx="1.25" stroke="white" stroke-width="1.5"/>
<rect x="0.75" y="18.75" width="12.5" height="12.5" rx="1.25" stroke="white" stroke-width="1.5"/>
<rect x="36.75" y="18.75" width="12.5" height="12.5" rx="1.25" stroke="white" stroke-width="1.5"/>
<path d="M7.30881 25.2377C7.15281 25.1176 7.15281 24.8824 7.30881 24.7623L8.767 23.6398C8.96427 23.4879 9.25 23.6285 9.25 23.8775L9.25 26.1225C9.25 26.3715 8.96427 26.5121 8.767 26.3602L7.30881 25.2377Z" fill="white"/>
<path d="M41.6912 24.7623C41.8472 24.8824 41.8472 25.1176 41.6912 25.2377L40.233 26.3602C40.0357 26.5121 39.75 26.3715 39.75 26.1225L39.75 23.8775C39.75 23.6285 40.0357 23.4879 40.233 23.6398L41.6912 24.7623Z" fill="white"/>
<path d="M25.2377 25.6912C25.1176 25.8472 24.8824 25.8472 24.7623 25.6912L23.6398 24.233C23.4879 24.0357 23.6285 23.75 23.8775 23.75L26.1225 23.75C26.3715 23.75 26.5121 24.0357 26.3602 24.233L25.2377 25.6912Z" fill="white"/>
<path d="M24.7623 6.30881C24.8824 6.15281 25.1176 6.15281 25.2377 6.30881L26.3602 7.767C26.5121 7.96427 26.3715 8.25 26.1225 8.25H23.8775C23.6285 8.25 23.4879 7.96427 23.6398 7.767L24.7623 6.30881Z" fill="white"/>
</svg>
