<svg width="39" height="39" viewBox="0 0 39 39" fill="none" xmlns="http://www.w3.org/2000/svg">
<path d="M19.4996 0C8.69981 0 0 8.7 0 19.5C0 30.3 8.69981 39 19.4996 39C30.2993 39 38.9992 30.3 38.9992 19.5C39.0992 8.7 30.2993 0 19.4996 0ZM19.4996 35.5C10.6998 35.5 3.59992 28.4 3.59992 19.6C3.59992 10.8 10.6998 3.6 19.4996 3.6C28.2994 3.6 35.3992 10.7 35.3992 19.5C35.3992 28.3 28.2994 35.5 19.4996 35.5Z" fill="white"/>
<path d="M15.7997 19.5C15.7997 14.3 19.0997 9.80002 23.6996 8.10002C22.3996 7.60002 20.9996 7.30002 19.4996 7.30002C12.7998 7.30002 7.3999 12.7 7.3999 19.4C7.3999 26.1 12.7998 31.5 19.4996 31.5C20.9996 31.5 22.3996 31.2 23.6996 30.7C19.0997 29.2 15.7997 24.8 15.7997 19.5Z" fill="white"/>
</svg>
