<svg width="560" height="680" viewBox="0 0 560 680" fill="none" xmlns="http://www.w3.org/2000/svg">
<rect opacity="0.15" width="560" height="680" rx="40" fill="white"/>
<path d="M87.786 439.632C88.53 439.632 89.148 439.488 89.64 439.2C90.132 438.912 90.522 438.54 90.81 438.084C91.11 437.616 91.32 437.088 91.44 436.5C91.56 435.9 91.62 435.294 91.62 434.682V428.22H93.24V434.682C93.24 435.546 93.138 436.368 92.934 437.148C92.742 437.916 92.43 438.594 91.998 439.182C91.566 439.77 91.002 440.238 90.306 440.586C89.622 440.922 88.788 441.09 87.804 441.09C86.784 441.09 85.926 440.91 85.23 440.55C84.534 440.19 83.97 439.716 83.538 439.128C83.118 438.528 82.812 437.844 82.62 437.076C82.44 436.296 82.35 435.498 82.35 434.682V428.22H83.97V434.682C83.97 435.318 84.03 435.936 84.15 436.536C84.282 437.124 84.492 437.646 84.78 438.102C85.08 438.558 85.47 438.93 85.95 439.218C86.442 439.494 87.054 439.632 87.786 439.632ZM104.704 430.902C104.56 430.734 104.368 430.572 104.128 430.416C103.888 430.26 103.618 430.122 103.318 430.002C103.018 429.87 102.688 429.768 102.328 429.696C101.98 429.612 101.614 429.57 101.23 429.57C100.234 429.57 99.5019 429.756 99.0339 430.128C98.5779 430.5 98.3499 431.01 98.3499 431.658C98.3499 432.006 98.4159 432.294 98.5479 432.522C98.6799 432.75 98.8839 432.948 99.1599 433.116C99.4479 433.272 99.8019 433.41 100.222 433.53C100.642 433.65 101.14 433.776 101.716 433.908C102.376 434.052 102.97 434.22 103.498 434.412C104.038 434.592 104.494 434.82 104.866 435.096C105.25 435.372 105.538 435.708 105.73 436.104C105.934 436.5 106.036 436.986 106.036 437.562C106.036 438.174 105.916 438.708 105.676 439.164C105.436 439.608 105.106 439.98 104.686 440.28C104.278 440.568 103.792 440.784 103.228 440.928C102.664 441.06 102.052 441.126 101.392 441.126C100.408 441.126 99.4719 440.976 98.5839 440.676C97.7079 440.364 96.9099 439.914 96.1899 439.326L96.9639 437.958C97.1559 438.162 97.4019 438.366 97.7019 438.57C98.0139 438.774 98.3619 438.96 98.7459 439.128C99.1419 439.284 99.5619 439.416 100.006 439.524C100.462 439.62 100.936 439.668 101.428 439.668C102.34 439.668 103.048 439.506 103.552 439.182C104.056 438.858 104.308 438.372 104.308 437.724C104.308 437.364 104.224 437.064 104.056 436.824C103.9 436.572 103.666 436.356 103.354 436.176C103.042 435.996 102.652 435.84 102.184 435.708C101.728 435.564 101.206 435.42 100.618 435.276C99.9699 435.12 99.3999 434.952 98.9079 434.772C98.4159 434.592 98.0019 434.376 97.6659 434.124C97.3419 433.872 97.0959 433.566 96.9279 433.206C96.7599 432.846 96.6759 432.414 96.6759 431.91C96.6759 431.298 96.7899 430.758 97.0179 430.29C97.2459 429.822 97.5639 429.426 97.9719 429.102C98.3799 428.778 98.8659 428.538 99.4299 428.382C99.9939 428.214 100.606 428.13 101.266 428.13C102.13 428.13 102.91 428.262 103.606 428.526C104.302 428.79 104.92 429.144 105.46 429.588L104.704 430.902ZM117.923 439.56V441H109.247V428.22H117.761V429.66H110.867V433.8H116.861V435.15H110.867V439.56H117.923ZM135.529 429.66H131.119V441H129.499V429.66H125.089V428.22H135.529V429.66ZM148.728 428.22V441H147.108V435.186H140.07V441H138.45V428.22H140.07V433.746H147.108V428.22H148.728ZM161.547 439.56V441H152.871V428.22H161.385V429.66H154.491V433.8H160.485V435.15H154.491V439.56H161.547ZM173.808 428.22H175.176L180.396 441H178.668L177.156 437.256H171.792L170.298 441H168.57L173.808 428.22ZM176.796 435.996L174.492 430.092L172.116 435.996H176.796ZM183.182 441V428.22H188.654C189.218 428.22 189.734 428.34 190.202 428.58C190.682 428.808 191.09 429.12 191.426 429.516C191.774 429.9 192.044 430.338 192.236 430.83C192.428 431.31 192.524 431.802 192.524 432.306C192.524 432.75 192.458 433.182 192.326 433.602C192.206 434.01 192.026 434.382 191.786 434.718C191.558 435.054 191.276 435.342 190.94 435.582C190.616 435.822 190.25 435.996 189.842 436.104L192.938 441H191.102L188.186 436.41H184.802V441H183.182ZM184.802 434.97H188.672C189.008 434.97 189.308 434.898 189.572 434.754C189.848 434.61 190.082 434.418 190.274 434.178C190.466 433.926 190.616 433.638 190.724 433.314C190.832 432.99 190.886 432.654 190.886 432.306C190.886 431.946 190.82 431.61 190.688 431.298C190.568 430.974 190.4 430.692 190.184 430.452C189.98 430.2 189.734 430.008 189.446 429.876C189.17 429.732 188.876 429.66 188.564 429.66H184.802V434.97ZM196.092 441V428.22H201.564C202.128 428.22 202.644 428.34 203.112 428.58C203.592 428.808 204 429.12 204.336 429.516C204.684 429.9 204.954 430.338 205.146 430.83C205.338 431.31 205.434 431.802 205.434 432.306C205.434 432.75 205.368 433.182 205.236 433.602C205.116 434.01 204.936 434.382 204.696 434.718C204.468 435.054 204.186 435.342 203.85 435.582C203.526 435.822 203.16 435.996 202.752 436.104L205.848 441H204.012L201.096 436.41H197.712V441H196.092ZM197.712 434.97H201.582C201.918 434.97 202.218 434.898 202.482 434.754C202.758 434.61 202.992 434.418 203.184 434.178C203.376 433.926 203.526 433.638 203.634 433.314C203.742 432.99 203.796 432.654 203.796 432.306C203.796 431.946 203.73 431.61 203.598 431.298C203.478 430.974 203.31 430.692 203.094 430.452C202.89 430.2 202.644 430.008 202.356 429.876C202.08 429.732 201.786 429.66 201.474 429.66H197.712V434.97ZM214.186 441.09C213.286 441.09 212.464 440.91 211.72 440.55C210.988 440.178 210.358 439.692 209.83 439.092C209.302 438.48 208.894 437.784 208.606 437.004C208.318 436.224 208.174 435.426 208.174 434.61C208.174 433.758 208.324 432.942 208.624 432.162C208.936 431.382 209.362 430.692 209.902 430.092C210.442 429.492 211.078 429.018 211.81 428.67C212.554 428.31 213.358 428.13 214.222 428.13C215.122 428.13 215.938 428.322 216.67 428.706C217.402 429.078 218.032 429.57 218.56 430.182C219.088 430.794 219.496 431.49 219.784 432.27C220.072 433.038 220.216 433.824 220.216 434.628C220.216 435.48 220.06 436.296 219.748 437.076C219.448 437.856 219.028 438.546 218.488 439.146C217.96 439.734 217.324 440.208 216.58 440.568C215.848 440.916 215.05 441.09 214.186 441.09ZM209.812 434.61C209.812 435.258 209.914 435.888 210.118 436.5C210.334 437.1 210.634 437.634 211.018 438.102C211.402 438.57 211.864 438.942 212.404 439.218C212.944 439.494 213.544 439.632 214.204 439.632C214.888 439.632 215.5 439.488 216.04 439.2C216.58 438.9 217.036 438.516 217.408 438.048C217.792 437.568 218.08 437.028 218.272 436.428C218.476 435.828 218.578 435.222 218.578 434.61C218.578 433.962 218.47 433.338 218.254 432.738C218.05 432.126 217.75 431.592 217.354 431.136C216.97 430.668 216.508 430.296 215.968 430.02C215.44 429.744 214.852 429.606 214.204 429.606C213.52 429.606 212.908 429.75 212.368 430.038C211.828 430.326 211.366 430.704 210.982 431.172C210.61 431.64 210.322 432.174 210.118 432.774C209.914 433.374 209.812 433.986 209.812 434.61ZM227.734 428.292H229.264L230.956 432.738L232.666 428.292H234.196L231.982 433.854L234.178 439.128L238.498 428.22H240.262L234.916 441H233.512L230.974 434.97L228.418 441H227.014L221.686 428.22H223.432L227.77 439.128L229.948 433.854L227.734 428.292ZM248.013 441V428.238H249.633V435.294L256.221 428.22H257.967L252.837 433.854L258.255 441H256.491L251.847 434.79L249.633 437.094V441H248.013ZM269.511 439.56V441H260.835V428.22H269.349V429.66H262.455V433.8H268.449V435.15H262.455V439.56H269.511ZM273.3 428.22L277.17 434.88L281.076 428.22H282.84L277.98 436.338V441H276.36V436.302L271.518 428.22H273.3ZM292.703 430.902C292.559 430.734 292.367 430.572 292.127 430.416C291.887 430.26 291.617 430.122 291.317 430.002C291.017 429.87 290.687 429.768 290.327 429.696C289.979 429.612 289.613 429.57 289.229 429.57C288.233 429.57 287.501 429.756 287.033 430.128C286.577 430.5 286.349 431.01 286.349 431.658C286.349 432.006 286.415 432.294 286.547 432.522C286.679 432.75 286.883 432.948 287.159 433.116C287.447 433.272 287.801 433.41 288.221 433.53C288.641 433.65 289.139 433.776 289.715 433.908C290.375 434.052 290.969 434.22 291.497 434.412C292.037 434.592 292.493 434.82 292.865 435.096C293.249 435.372 293.537 435.708 293.729 436.104C293.933 436.5 294.035 436.986 294.035 437.562C294.035 438.174 293.915 438.708 293.675 439.164C293.435 439.608 293.105 439.98 292.685 440.28C292.277 440.568 291.791 440.784 291.227 440.928C290.663 441.06 290.051 441.126 289.391 441.126C288.407 441.126 287.471 440.976 286.583 440.676C285.707 440.364 284.909 439.914 284.189 439.326L284.963 437.958C285.155 438.162 285.401 438.366 285.701 438.57C286.013 438.774 286.361 438.96 286.745 439.128C287.141 439.284 287.561 439.416 288.005 439.524C288.461 439.62 288.935 439.668 289.427 439.668C290.339 439.668 291.047 439.506 291.551 439.182C292.055 438.858 292.307 438.372 292.307 437.724C292.307 437.364 292.223 437.064 292.055 436.824C291.899 436.572 291.665 436.356 291.353 436.176C291.041 435.996 290.651 435.84 290.183 435.708C289.727 435.564 289.205 435.42 288.617 435.276C287.969 435.12 287.399 434.952 286.907 434.772C286.415 434.592 286.001 434.376 285.665 434.124C285.341 433.872 285.095 433.566 284.927 433.206C284.759 432.846 284.675 432.414 284.675 431.91C284.675 431.298 284.789 430.758 285.017 430.29C285.245 429.822 285.563 429.426 285.971 429.102C286.379 428.778 286.865 428.538 287.429 428.382C287.993 428.214 288.605 428.13 289.265 428.13C290.129 428.13 290.909 428.262 291.605 428.526C292.301 428.79 292.919 429.144 293.459 429.588L292.703 430.902ZM311.549 429.66H307.139V441H305.519V429.66H301.109V428.22H311.549V429.66ZM319.267 441.09C318.367 441.09 317.545 440.91 316.801 440.55C316.069 440.178 315.439 439.692 314.911 439.092C314.383 438.48 313.975 437.784 313.687 437.004C313.399 436.224 313.255 435.426 313.255 434.61C313.255 433.758 313.405 432.942 313.705 432.162C314.017 431.382 314.443 430.692 314.983 430.092C315.523 429.492 316.159 429.018 316.891 428.67C317.635 428.31 318.439 428.13 319.303 428.13C320.203 428.13 321.019 428.322 321.751 428.706C322.483 429.078 323.113 429.57 323.641 430.182C324.169 430.794 324.577 431.49 324.865 432.27C325.153 433.038 325.297 433.824 325.297 434.628C325.297 435.48 325.141 436.296 324.829 437.076C324.529 437.856 324.109 438.546 323.569 439.146C323.041 439.734 322.405 440.208 321.661 440.568C320.929 440.916 320.131 441.09 319.267 441.09ZM314.893 434.61C314.893 435.258 314.995 435.888 315.199 436.5C315.415 437.1 315.715 437.634 316.099 438.102C316.483 438.57 316.945 438.942 317.485 439.218C318.025 439.494 318.625 439.632 319.285 439.632C319.969 439.632 320.581 439.488 321.121 439.2C321.661 438.9 322.117 438.516 322.489 438.048C322.873 437.568 323.161 437.028 323.353 436.428C323.557 435.828 323.659 435.222 323.659 434.61C323.659 433.962 323.551 433.338 323.335 432.738C323.131 432.126 322.831 431.592 322.435 431.136C322.051 430.668 321.589 430.296 321.049 430.02C320.521 429.744 319.933 429.606 319.285 429.606C318.601 429.606 317.989 429.75 317.449 430.038C316.909 430.326 316.447 430.704 316.063 431.172C315.691 431.64 315.403 432.174 315.199 432.774C314.995 433.374 314.893 433.986 314.893 434.61ZM345.313 441V431.118L341.065 438.696H340.147L335.881 431.118V441H334.261V428.22H335.971L340.597 436.518L345.241 428.22H346.933V441H345.313ZM356.257 441.09C355.357 441.09 354.535 440.91 353.791 440.55C353.059 440.178 352.429 439.692 351.901 439.092C351.373 438.48 350.965 437.784 350.677 437.004C350.389 436.224 350.245 435.426 350.245 434.61C350.245 433.758 350.395 432.942 350.695 432.162C351.007 431.382 351.433 430.692 351.973 430.092C352.513 429.492 353.149 429.018 353.881 428.67C354.625 428.31 355.429 428.13 356.293 428.13C357.193 428.13 358.009 428.322 358.741 428.706C359.473 429.078 360.103 429.57 360.631 430.182C361.159 430.794 361.567 431.49 361.855 432.27C362.143 433.038 362.287 433.824 362.287 434.628C362.287 435.48 362.131 436.296 361.819 437.076C361.519 437.856 361.099 438.546 360.559 439.146C360.031 439.734 359.395 440.208 358.651 440.568C357.919 440.916 357.121 441.09 356.257 441.09ZM351.883 434.61C351.883 435.258 351.985 435.888 352.189 436.5C352.405 437.1 352.705 437.634 353.089 438.102C353.473 438.57 353.935 438.942 354.475 439.218C355.015 439.494 355.615 439.632 356.275 439.632C356.959 439.632 357.571 439.488 358.111 439.2C358.651 438.9 359.107 438.516 359.479 438.048C359.863 437.568 360.151 437.028 360.343 436.428C360.547 435.828 360.649 435.222 360.649 434.61C360.649 433.962 360.541 433.338 360.325 432.738C360.121 432.126 359.821 431.592 359.425 431.136C359.041 430.668 358.579 430.296 358.039 430.02C357.511 429.744 356.923 429.606 356.275 429.606C355.591 429.606 354.979 429.75 354.439 430.038C353.899 430.326 353.437 430.704 353.053 431.172C352.681 431.64 352.393 432.174 352.189 432.774C351.985 433.374 351.883 433.986 351.883 434.61ZM365.486 428.22L369.716 438.966L373.928 428.22H375.638L370.418 441H369.014L363.776 428.22H365.486ZM387.116 439.56V441H378.44V428.22H386.954V429.66H380.06V433.8H386.054V435.15H380.06V439.56H387.116Z" fill="white"/>
<path d="M90.036 490.902C89.892 490.734 89.7 490.572 89.46 490.416C89.22 490.26 88.95 490.122 88.65 490.002C88.35 489.87 88.02 489.768 87.66 489.696C87.312 489.612 86.946 489.57 86.562 489.57C85.566 489.57 84.834 489.756 84.366 490.128C83.91 490.5 83.682 491.01 83.682 491.658C83.682 492.006 83.748 492.294 83.88 492.522C84.012 492.75 84.216 492.948 84.492 493.116C84.78 493.272 85.134 493.41 85.554 493.53C85.974 493.65 86.472 493.776 87.048 493.908C87.708 494.052 88.302 494.22 88.83 494.412C89.37 494.592 89.826 494.82 90.198 495.096C90.582 495.372 90.87 495.708 91.062 496.104C91.266 496.5 91.368 496.986 91.368 497.562C91.368 498.174 91.248 498.708 91.008 499.164C90.768 499.608 90.438 499.98 90.018 500.28C89.61 500.568 89.124 500.784 88.56 500.928C87.996 501.06 87.384 501.126 86.724 501.126C85.74 501.126 84.804 500.976 83.916 500.676C83.04 500.364 82.242 499.914 81.522 499.326L82.296 497.958C82.488 498.162 82.734 498.366 83.034 498.57C83.346 498.774 83.694 498.96 84.078 499.128C84.474 499.284 84.894 499.416 85.338 499.524C85.794 499.62 86.268 499.668 86.76 499.668C87.672 499.668 88.38 499.506 88.884 499.182C89.388 498.858 89.64 498.372 89.64 497.724C89.64 497.364 89.556 497.064 89.388 496.824C89.232 496.572 88.998 496.356 88.686 496.176C88.374 495.996 87.984 495.84 87.516 495.708C87.06 495.564 86.538 495.42 85.95 495.276C85.302 495.12 84.732 494.952 84.24 494.772C83.748 494.592 83.334 494.376 82.998 494.124C82.674 493.872 82.428 493.566 82.26 493.206C82.092 492.846 82.008 492.414 82.008 491.91C82.008 491.298 82.122 490.758 82.35 490.29C82.578 489.822 82.896 489.426 83.304 489.102C83.712 488.778 84.198 488.538 84.762 488.382C85.326 488.214 85.938 488.13 86.598 488.13C87.462 488.13 88.242 488.262 88.938 488.526C89.634 488.79 90.252 489.144 90.792 489.588L90.036 490.902ZM94.5787 501V488.22H99.9068C100.471 488.22 100.987 488.34 101.455 488.58C101.935 488.808 102.343 489.12 102.679 489.516C103.027 489.9 103.297 490.338 103.489 490.83C103.681 491.31 103.777 491.802 103.777 492.306C103.777 492.834 103.687 493.344 103.507 493.836C103.327 494.328 103.069 494.766 102.733 495.15C102.409 495.534 102.013 495.84 101.545 496.068C101.089 496.296 100.579 496.41 100.015 496.41H96.1988V501H94.5787ZM96.1988 494.97H99.9248C100.261 494.97 100.561 494.904 100.825 494.772C101.101 494.628 101.335 494.436 101.527 494.196C101.719 493.944 101.869 493.656 101.977 493.332C102.085 493.008 102.139 492.666 102.139 492.306C102.139 491.934 102.073 491.586 101.941 491.262C101.821 490.938 101.653 490.656 101.437 490.416C101.233 490.176 100.987 489.99 100.699 489.858C100.423 489.726 100.129 489.66 99.8168 489.66H96.1988V494.97ZM109.848 488.22H111.216L116.436 501H114.708L113.196 497.256H107.832L106.338 501H104.61L109.848 488.22ZM112.836 495.996L110.532 490.092L108.156 495.996H112.836ZM117.919 494.52C117.919 493.752 118.051 492.99 118.315 492.234C118.591 491.466 118.987 490.782 119.503 490.182C120.031 489.57 120.673 489.078 121.429 488.706C122.185 488.334 123.043 488.148 124.003 488.148C125.143 488.148 126.121 488.406 126.937 488.922C127.753 489.438 128.359 490.11 128.755 490.938L127.477 491.766C127.285 491.358 127.051 491.016 126.775 490.74C126.511 490.464 126.217 490.242 125.893 490.074C125.581 489.906 125.257 489.786 124.921 489.714C124.585 489.642 124.255 489.606 123.931 489.606C123.223 489.606 122.593 489.756 122.041 490.056C121.501 490.344 121.045 490.728 120.673 491.208C120.301 491.676 120.019 492.21 119.827 492.81C119.647 493.398 119.557 493.992 119.557 494.592C119.557 495.264 119.665 495.906 119.881 496.518C120.109 497.118 120.421 497.652 120.817 498.12C121.213 498.588 121.681 498.96 122.221 499.236C122.761 499.512 123.349 499.65 123.985 499.65C124.321 499.65 124.663 499.608 125.011 499.524C125.371 499.44 125.713 499.308 126.037 499.128C126.361 498.936 126.661 498.702 126.937 498.426C127.225 498.138 127.459 497.796 127.639 497.4L128.989 498.138C128.785 498.618 128.497 499.044 128.125 499.416C127.765 499.776 127.351 500.082 126.883 500.334C126.427 500.586 125.941 500.778 125.425 500.91C124.909 501.042 124.405 501.108 123.913 501.108C123.037 501.108 122.233 500.916 121.501 500.532C120.769 500.148 120.133 499.65 119.593 499.038C119.065 498.414 118.651 497.712 118.351 496.932C118.063 496.14 117.919 495.336 117.919 494.52ZM140.772 499.56V501H132.096V488.22H140.61V489.66H133.716V493.8H139.71V495.15H133.716V499.56H140.772ZM153.885 497.706C153.885 498.198 153.783 498.648 153.579 499.056C153.387 499.464 153.117 499.812 152.769 500.1C152.433 500.388 152.037 500.61 151.581 500.766C151.137 500.922 150.657 501 150.141 501H144.075V488.22H150.429C150.873 488.22 151.275 488.316 151.635 488.508C151.995 488.7 152.301 488.952 152.553 489.264C152.805 489.564 152.997 489.912 153.129 490.308C153.273 490.692 153.345 491.082 153.345 491.478C153.345 492.114 153.183 492.702 152.859 493.242C152.547 493.782 152.097 494.184 151.509 494.448C152.241 494.664 152.817 495.066 153.237 495.654C153.669 496.23 153.885 496.914 153.885 497.706ZM152.247 497.418C152.247 497.13 152.193 496.854 152.085 496.59C151.989 496.314 151.851 496.074 151.671 495.87C151.503 495.666 151.299 495.504 151.059 495.384C150.819 495.264 150.555 495.204 150.267 495.204H145.695V499.596H150.141C150.441 499.596 150.717 499.536 150.969 499.416C151.221 499.296 151.443 499.14 151.635 498.948C151.827 498.744 151.977 498.51 152.085 498.246C152.193 497.982 152.247 497.706 152.247 497.418ZM145.695 489.624V493.89H149.763C150.051 493.89 150.315 493.836 150.555 493.728C150.795 493.608 150.999 493.452 151.167 493.26C151.347 493.068 151.485 492.846 151.581 492.594C151.689 492.33 151.743 492.054 151.743 491.766C151.743 491.466 151.695 491.184 151.599 490.92C151.503 490.656 151.371 490.428 151.203 490.236C151.047 490.044 150.849 489.894 150.609 489.786C150.381 489.678 150.135 489.624 149.871 489.624H145.695ZM160.855 488.22H162.223L167.443 501H165.715L164.203 497.256H158.839L157.345 501H155.617L160.855 488.22ZM163.843 495.996L161.539 490.092L159.163 495.996H163.843ZM170.229 501V488.22H175.701C176.265 488.22 176.781 488.34 177.249 488.58C177.729 488.808 178.137 489.12 178.473 489.516C178.821 489.9 179.091 490.338 179.283 490.83C179.475 491.31 179.571 491.802 179.571 492.306C179.571 492.75 179.505 493.182 179.373 493.602C179.253 494.01 179.073 494.382 178.833 494.718C178.605 495.054 178.323 495.342 177.987 495.582C177.663 495.822 177.297 495.996 176.889 496.104L179.985 501H178.149L175.233 496.41H171.849V501H170.229ZM171.849 494.97H175.719C176.055 494.97 176.355 494.898 176.619 494.754C176.895 494.61 177.129 494.418 177.321 494.178C177.513 493.926 177.663 493.638 177.771 493.314C177.879 492.99 177.933 492.654 177.933 492.306C177.933 491.946 177.867 491.61 177.735 491.298C177.615 490.974 177.447 490.692 177.231 490.452C177.027 490.2 176.781 490.008 176.493 489.876C176.217 489.732 175.923 489.66 175.611 489.66H171.849V494.97ZM188.771 501V488.22H190.391V501H188.771ZM202.033 490.902C201.889 490.734 201.697 490.572 201.457 490.416C201.217 490.26 200.947 490.122 200.647 490.002C200.347 489.87 200.017 489.768 199.657 489.696C199.309 489.612 198.943 489.57 198.559 489.57C197.563 489.57 196.831 489.756 196.363 490.128C195.907 490.5 195.679 491.01 195.679 491.658C195.679 492.006 195.745 492.294 195.877 492.522C196.009 492.75 196.213 492.948 196.489 493.116C196.777 493.272 197.131 493.41 197.551 493.53C197.971 493.65 198.469 493.776 199.045 493.908C199.705 494.052 200.299 494.22 200.827 494.412C201.367 494.592 201.823 494.82 202.195 495.096C202.579 495.372 202.867 495.708 203.059 496.104C203.263 496.5 203.365 496.986 203.365 497.562C203.365 498.174 203.245 498.708 203.005 499.164C202.765 499.608 202.435 499.98 202.015 500.28C201.607 500.568 201.121 500.784 200.557 500.928C199.993 501.06 199.381 501.126 198.721 501.126C197.737 501.126 196.801 500.976 195.913 500.676C195.037 500.364 194.239 499.914 193.519 499.326L194.293 497.958C194.485 498.162 194.731 498.366 195.031 498.57C195.343 498.774 195.691 498.96 196.075 499.128C196.471 499.284 196.891 499.416 197.335 499.524C197.791 499.62 198.265 499.668 198.757 499.668C199.669 499.668 200.377 499.506 200.881 499.182C201.385 498.858 201.637 498.372 201.637 497.724C201.637 497.364 201.553 497.064 201.385 496.824C201.229 496.572 200.995 496.356 200.683 496.176C200.371 495.996 199.981 495.84 199.513 495.708C199.057 495.564 198.535 495.42 197.947 495.276C197.299 495.12 196.729 494.952 196.237 494.772C195.745 494.592 195.331 494.376 194.995 494.124C194.671 493.872 194.425 493.566 194.257 493.206C194.089 492.846 194.005 492.414 194.005 491.91C194.005 491.298 194.119 490.758 194.347 490.29C194.575 489.822 194.893 489.426 195.301 489.102C195.709 488.778 196.195 488.538 196.759 488.382C197.323 488.214 197.935 488.13 198.595 488.13C199.459 488.13 200.239 488.262 200.935 488.526C201.631 488.79 202.249 489.144 202.789 489.588L202.033 490.902ZM217.465 499.632C218.209 499.632 218.827 499.488 219.319 499.2C219.811 498.912 220.201 498.54 220.489 498.084C220.789 497.616 220.999 497.088 221.119 496.5C221.239 495.9 221.299 495.294 221.299 494.682V488.22H222.919V494.682C222.919 495.546 222.817 496.368 222.613 497.148C222.421 497.916 222.109 498.594 221.677 499.182C221.245 499.77 220.681 500.238 219.985 500.586C219.301 500.922 218.467 501.09 217.483 501.09C216.463 501.09 215.605 500.91 214.909 500.55C214.213 500.19 213.649 499.716 213.217 499.128C212.797 498.528 212.491 497.844 212.299 497.076C212.119 496.296 212.029 495.498 212.029 494.682V488.22H213.649V494.682C213.649 495.318 213.709 495.936 213.829 496.536C213.961 497.124 214.171 497.646 214.459 498.102C214.759 498.558 215.149 498.93 215.629 499.218C216.121 499.494 216.733 499.632 217.465 499.632ZM234.383 490.902C234.239 490.734 234.047 490.572 233.807 490.416C233.567 490.26 233.297 490.122 232.997 490.002C232.697 489.87 232.367 489.768 232.007 489.696C231.659 489.612 231.293 489.57 230.909 489.57C229.913 489.57 229.181 489.756 228.713 490.128C228.257 490.5 228.029 491.01 228.029 491.658C228.029 492.006 228.095 492.294 228.227 492.522C228.359 492.75 228.563 492.948 228.839 493.116C229.127 493.272 229.481 493.41 229.901 493.53C230.321 493.65 230.819 493.776 231.395 493.908C232.055 494.052 232.649 494.22 233.177 494.412C233.717 494.592 234.173 494.82 234.545 495.096C234.929 495.372 235.217 495.708 235.409 496.104C235.613 496.5 235.715 496.986 235.715 497.562C235.715 498.174 235.595 498.708 235.355 499.164C235.115 499.608 234.785 499.98 234.365 500.28C233.957 500.568 233.471 500.784 232.907 500.928C232.343 501.06 231.731 501.126 231.071 501.126C230.087 501.126 229.151 500.976 228.263 500.676C227.387 500.364 226.589 499.914 225.869 499.326L226.643 497.958C226.835 498.162 227.081 498.366 227.381 498.57C227.693 498.774 228.041 498.96 228.425 499.128C228.821 499.284 229.241 499.416 229.685 499.524C230.141 499.62 230.615 499.668 231.107 499.668C232.019 499.668 232.727 499.506 233.231 499.182C233.735 498.858 233.987 498.372 233.987 497.724C233.987 497.364 233.903 497.064 233.735 496.824C233.579 496.572 233.345 496.356 233.033 496.176C232.721 495.996 232.331 495.84 231.863 495.708C231.407 495.564 230.885 495.42 230.297 495.276C229.649 495.12 229.079 494.952 228.587 494.772C228.095 494.592 227.681 494.376 227.345 494.124C227.021 493.872 226.775 493.566 226.607 493.206C226.439 492.846 226.355 492.414 226.355 491.91C226.355 491.298 226.469 490.758 226.697 490.29C226.925 489.822 227.243 489.426 227.651 489.102C228.059 488.778 228.545 488.538 229.109 488.382C229.673 488.214 230.285 488.13 230.945 488.13C231.809 488.13 232.589 488.262 233.285 488.526C233.981 488.79 234.599 489.144 235.139 489.588L234.383 490.902ZM247.601 499.56V501H238.925V488.22H247.439V489.66H240.545V493.8H246.539V495.15H240.545V499.56H247.601ZM250.904 501V488.22H255.332C256.352 488.22 257.246 488.388 258.014 488.724C258.794 489.06 259.442 489.516 259.958 490.092C260.474 490.668 260.858 491.346 261.11 492.126C261.374 492.894 261.506 493.716 261.506 494.592C261.506 495.564 261.362 496.446 261.074 497.238C260.786 498.018 260.372 498.69 259.832 499.254C259.292 499.806 258.638 500.238 257.87 500.55C257.114 500.85 256.268 501 255.332 501H250.904ZM259.868 494.592C259.868 493.872 259.766 493.212 259.562 492.612C259.37 492 259.076 491.478 258.68 491.046C258.296 490.614 257.822 490.278 257.258 490.038C256.694 489.786 256.052 489.66 255.332 489.66H252.524V499.56H255.332C256.064 499.56 256.712 499.434 257.276 499.182C257.852 498.93 258.326 498.582 258.698 498.138C259.082 497.694 259.37 497.172 259.562 496.572C259.766 495.96 259.868 495.3 259.868 494.592ZM270.501 501V488.22H278.943V489.66H272.121V493.926H277.863V495.276H272.121V501H270.501ZM287.031 501.09C286.131 501.09 285.309 500.91 284.565 500.55C283.833 500.178 283.203 499.692 282.675 499.092C282.147 498.48 281.739 497.784 281.451 497.004C281.163 496.224 281.019 495.426 281.019 494.61C281.019 493.758 281.169 492.942 281.469 492.162C281.781 491.382 282.207 490.692 282.747 490.092C283.287 489.492 283.923 489.018 284.655 488.67C285.399 488.31 286.203 488.13 287.067 488.13C287.967 488.13 288.783 488.322 289.515 488.706C290.247 489.078 290.877 489.57 291.405 490.182C291.933 490.794 292.341 491.49 292.629 492.27C292.917 493.038 293.061 493.824 293.061 494.628C293.061 495.48 292.905 496.296 292.593 497.076C292.293 497.856 291.873 498.546 291.333 499.146C290.805 499.734 290.169 500.208 289.425 500.568C288.693 500.916 287.895 501.09 287.031 501.09ZM282.657 494.61C282.657 495.258 282.759 495.888 282.963 496.5C283.179 497.1 283.479 497.634 283.863 498.102C284.247 498.57 284.709 498.942 285.249 499.218C285.789 499.494 286.389 499.632 287.049 499.632C287.733 499.632 288.345 499.488 288.885 499.2C289.425 498.9 289.881 498.516 290.253 498.048C290.637 497.568 290.925 497.028 291.117 496.428C291.321 495.828 291.423 495.222 291.423 494.61C291.423 493.962 291.315 493.338 291.099 492.738C290.895 492.126 290.595 491.592 290.199 491.136C289.815 490.668 289.353 490.296 288.813 490.02C288.285 489.744 287.697 489.606 287.049 489.606C286.365 489.606 285.753 489.75 285.213 490.038C284.673 490.326 284.211 490.704 283.827 491.172C283.455 491.64 283.167 492.174 282.963 492.774C282.759 493.374 282.657 493.986 282.657 494.61ZM296.392 501V488.22H301.864C302.428 488.22 302.944 488.34 303.412 488.58C303.892 488.808 304.3 489.12 304.636 489.516C304.984 489.9 305.254 490.338 305.446 490.83C305.638 491.31 305.734 491.802 305.734 492.306C305.734 492.75 305.668 493.182 305.536 493.602C305.416 494.01 305.236 494.382 304.996 494.718C304.768 495.054 304.486 495.342 304.15 495.582C303.826 495.822 303.46 495.996 303.052 496.104L306.148 501H304.312L301.396 496.41H298.012V501H296.392ZM298.012 494.97H301.882C302.218 494.97 302.518 494.898 302.782 494.754C303.058 494.61 303.292 494.418 303.484 494.178C303.676 493.926 303.826 493.638 303.934 493.314C304.042 492.99 304.096 492.654 304.096 492.306C304.096 491.946 304.03 491.61 303.898 491.298C303.778 490.974 303.61 490.692 303.394 490.452C303.19 490.2 302.944 490.008 302.656 489.876C302.38 489.732 302.086 489.66 301.774 489.66H298.012V494.97ZM313.542 499.092C313.782 499.26 314.106 499.41 314.514 499.542C314.922 499.674 315.384 499.74 315.9 499.74C316.512 499.74 316.998 499.632 317.358 499.416C317.718 499.2 317.988 498.882 318.168 498.462C318.36 498.03 318.486 497.502 318.546 496.878C318.606 496.254 318.636 495.534 318.636 494.718V488.22H320.256V494.718C320.256 495.69 320.208 496.578 320.112 497.382C320.028 498.174 319.83 498.852 319.518 499.416C319.218 499.98 318.78 500.418 318.204 500.73C317.64 501.042 316.872 501.198 315.9 501.198C314.82 501.198 313.896 500.934 313.128 500.406L313.542 499.092ZM329.515 499.632C330.259 499.632 330.877 499.488 331.369 499.2C331.861 498.912 332.251 498.54 332.539 498.084C332.839 497.616 333.049 497.088 333.169 496.5C333.289 495.9 333.349 495.294 333.349 494.682V488.22H334.969V494.682C334.969 495.546 334.867 496.368 334.663 497.148C334.471 497.916 334.159 498.594 333.727 499.182C333.295 499.77 332.731 500.238 332.035 500.586C331.351 500.922 330.517 501.09 329.533 501.09C328.513 501.09 327.655 500.91 326.959 500.55C326.263 500.19 325.699 499.716 325.267 499.128C324.847 498.528 324.541 497.844 324.349 497.076C324.169 496.296 324.079 495.498 324.079 494.682V488.22H325.699V494.682C325.699 495.318 325.759 495.936 325.879 496.536C326.011 497.124 326.221 497.646 326.509 498.102C326.809 498.558 327.199 498.93 327.679 499.218C328.171 499.494 328.783 499.632 329.515 499.632ZM349.979 501V491.118L345.731 498.696H344.813L340.547 491.118V501H338.927V488.22H340.637L345.263 496.518L349.907 488.22H351.599V501H349.979ZM355.739 501V488.22H361.067C361.631 488.22 362.147 488.34 362.615 488.58C363.095 488.808 363.503 489.12 363.839 489.516C364.187 489.9 364.457 490.338 364.649 490.83C364.841 491.31 364.937 491.802 364.937 492.306C364.937 492.834 364.847 493.344 364.667 493.836C364.487 494.328 364.229 494.766 363.893 495.15C363.569 495.534 363.173 495.84 362.705 496.068C362.249 496.296 361.739 496.41 361.175 496.41H357.359V501H355.739ZM357.359 494.97H361.085C361.421 494.97 361.721 494.904 361.985 494.772C362.261 494.628 362.495 494.436 362.687 494.196C362.879 493.944 363.029 493.656 363.137 493.332C363.245 493.008 363.299 492.666 363.299 492.306C363.299 491.934 363.233 491.586 363.101 491.262C362.981 490.938 362.813 490.656 362.597 490.416C362.393 490.176 362.147 489.99 361.859 489.858C361.583 489.726 361.289 489.66 360.977 489.66H357.359V494.97Z" fill="white"/>
<rect x="434.75" y="420.75" width="12.5" height="12.5" rx="1.25" stroke="white" stroke-width="1.5"/>
<rect x="434.75" y="438.75" width="12.5" height="12.5" rx="1.25" stroke="white" stroke-width="1.5"/>
<rect x="416.75" y="438.75" width="12.5" height="12.5" rx="1.25" stroke="white" stroke-width="1.5"/>
<rect x="452.75" y="438.75" width="12.5" height="12.5" rx="1.25" stroke="white" stroke-width="1.5"/>
<path d="M423.309 445.238C423.153 445.118 423.153 444.882 423.309 444.762L424.767 443.64C424.964 443.488 425.25 443.629 425.25 443.877L425.25 446.123C425.25 446.371 424.964 446.512 424.767 446.36L423.309 445.238Z" fill="white"/>
<path d="M457.691 444.762C457.847 444.882 457.847 445.118 457.691 445.238L456.233 446.36C456.036 446.512 455.75 446.371 455.75 446.123L455.75 443.877C455.75 443.629 456.036 443.488 456.233 443.64L457.691 444.762Z" fill="white"/>
<path d="M441.238 445.691C441.118 445.847 440.882 445.847 440.762 445.691L439.64 444.233C439.488 444.036 439.629 443.75 439.877 443.75L442.123 443.75C442.371 443.75 442.512 444.036 442.36 444.233L441.238 445.691Z" fill="white"/>
<path d="M440.762 426.309C440.882 426.153 441.118 426.153 441.238 426.309L442.36 427.767C442.512 427.964 442.371 428.25 442.123 428.25H439.877C439.629 428.25 439.488 427.964 439.64 427.767L440.762 426.309Z" fill="white"/>
<rect x="416.75" y="487.75" width="48.5" height="12.5" rx="1.25" stroke="white" stroke-width="1.5"/>
<path d="M103.53 615V602.22H108.858C109.422 602.22 109.938 602.34 110.406 602.58C110.886 602.808 111.294 603.12 111.63 603.516C111.978 603.9 112.248 604.338 112.44 604.83C112.632 605.31 112.728 605.802 112.728 606.306C112.728 606.834 112.638 607.344 112.458 607.836C112.278 608.328 112.02 608.766 111.684 609.15C111.36 609.534 110.964 609.84 110.496 610.068C110.04 610.296 109.53 610.41 108.966 610.41H105.15V615H103.53ZM105.15 608.97H108.876C109.212 608.97 109.512 608.904 109.776 608.772C110.052 608.628 110.286 608.436 110.478 608.196C110.67 607.944 110.82 607.656 110.928 607.332C111.036 607.008 111.09 606.666 111.09 606.306C111.09 605.934 111.024 605.586 110.892 605.262C110.772 604.938 110.604 604.656 110.388 604.416C110.184 604.176 109.938 603.99 109.65 603.858C109.374 603.726 109.08 603.66 108.768 603.66H105.15V608.97ZM115.825 615V602.22H121.297C121.861 602.22 122.377 602.34 122.845 602.58C123.325 602.808 123.733 603.12 124.069 603.516C124.417 603.9 124.687 604.338 124.879 604.83C125.071 605.31 125.167 605.802 125.167 606.306C125.167 606.75 125.101 607.182 124.969 607.602C124.849 608.01 124.669 608.382 124.429 608.718C124.201 609.054 123.919 609.342 123.583 609.582C123.259 609.822 122.893 609.996 122.485 610.104L125.581 615H123.745L120.829 610.41H117.445V615H115.825ZM117.445 608.97H121.315C121.651 608.97 121.951 608.898 122.215 608.754C122.491 608.61 122.725 608.418 122.917 608.178C123.109 607.926 123.259 607.638 123.367 607.314C123.475 606.99 123.529 606.654 123.529 606.306C123.529 605.946 123.463 605.61 123.331 605.298C123.211 604.974 123.043 604.692 122.827 604.452C122.623 604.2 122.377 604.008 122.089 603.876C121.813 603.732 121.519 603.66 121.207 603.66H117.445V608.97ZM137.411 613.56V615H128.735V602.22H137.249V603.66H130.355V607.8H136.349V609.15H130.355V613.56H137.411ZM148.219 604.902C148.075 604.734 147.883 604.572 147.643 604.416C147.403 604.26 147.133 604.122 146.833 604.002C146.533 603.87 146.203 603.768 145.843 603.696C145.495 603.612 145.129 603.57 144.745 603.57C143.749 603.57 143.017 603.756 142.549 604.128C142.093 604.5 141.865 605.01 141.865 605.658C141.865 606.006 141.931 606.294 142.063 606.522C142.195 606.75 142.399 606.948 142.675 607.116C142.963 607.272 143.317 607.41 143.737 607.53C144.157 607.65 144.655 607.776 145.231 607.908C145.891 608.052 146.485 608.22 147.013 608.412C147.553 608.592 148.009 608.82 148.381 609.096C148.765 609.372 149.053 609.708 149.245 610.104C149.449 610.5 149.551 610.986 149.551 611.562C149.551 612.174 149.431 612.708 149.191 613.164C148.951 613.608 148.621 613.98 148.201 614.28C147.793 614.568 147.307 614.784 146.743 614.928C146.179 615.06 145.567 615.126 144.907 615.126C143.923 615.126 142.987 614.976 142.099 614.676C141.223 614.364 140.425 613.914 139.705 613.326L140.479 611.958C140.671 612.162 140.917 612.366 141.217 612.57C141.529 612.774 141.877 612.96 142.261 613.128C142.657 613.284 143.077 613.416 143.521 613.524C143.977 613.62 144.451 613.668 144.943 613.668C145.855 613.668 146.563 613.506 147.067 613.182C147.571 612.858 147.823 612.372 147.823 611.724C147.823 611.364 147.739 611.064 147.571 610.824C147.415 610.572 147.181 610.356 146.869 610.176C146.557 609.996 146.167 609.84 145.699 609.708C145.243 609.564 144.721 609.42 144.133 609.276C143.485 609.12 142.915 608.952 142.423 608.772C141.931 608.592 141.517 608.376 141.181 608.124C140.857 607.872 140.611 607.566 140.443 607.206C140.275 606.846 140.191 606.414 140.191 605.91C140.191 605.298 140.305 604.758 140.533 604.29C140.761 603.822 141.079 603.426 141.487 603.102C141.895 602.778 142.381 602.538 142.945 602.382C143.509 602.214 144.121 602.13 144.781 602.13C145.645 602.13 146.425 602.262 147.121 602.526C147.817 602.79 148.435 603.144 148.975 603.588L148.219 604.902ZM160.268 604.902C160.124 604.734 159.932 604.572 159.692 604.416C159.452 604.26 159.182 604.122 158.882 604.002C158.582 603.87 158.252 603.768 157.892 603.696C157.544 603.612 157.178 603.57 156.794 603.57C155.798 603.57 155.066 603.756 154.598 604.128C154.142 604.5 153.914 605.01 153.914 605.658C153.914 606.006 153.98 606.294 154.112 606.522C154.244 606.75 154.448 606.948 154.724 607.116C155.012 607.272 155.366 607.41 155.786 607.53C156.206 607.65 156.704 607.776 157.28 607.908C157.94 608.052 158.534 608.22 159.062 608.412C159.602 608.592 160.058 608.82 160.43 609.096C160.814 609.372 161.102 609.708 161.294 610.104C161.498 610.5 161.6 610.986 161.6 611.562C161.6 612.174 161.48 612.708 161.24 613.164C161 613.608 160.67 613.98 160.25 614.28C159.842 614.568 159.356 614.784 158.792 614.928C158.228 615.06 157.616 615.126 156.956 615.126C155.972 615.126 155.036 614.976 154.148 614.676C153.272 614.364 152.474 613.914 151.754 613.326L152.528 611.958C152.72 612.162 152.966 612.366 153.266 612.57C153.578 612.774 153.926 612.96 154.31 613.128C154.706 613.284 155.126 613.416 155.57 613.524C156.026 613.62 156.5 613.668 156.992 613.668C157.904 613.668 158.612 613.506 159.116 613.182C159.62 612.858 159.872 612.372 159.872 611.724C159.872 611.364 159.788 611.064 159.62 610.824C159.464 610.572 159.23 610.356 158.918 610.176C158.606 609.996 158.216 609.84 157.748 609.708C157.292 609.564 156.77 609.42 156.182 609.276C155.534 609.12 154.964 608.952 154.472 608.772C153.98 608.592 153.566 608.376 153.23 608.124C152.906 607.872 152.66 607.566 152.492 607.206C152.324 606.846 152.24 606.414 152.24 605.91C152.24 605.298 152.354 604.758 152.582 604.29C152.81 603.822 153.128 603.426 153.536 603.102C153.944 602.778 154.43 602.538 154.994 602.382C155.558 602.214 156.17 602.13 156.83 602.13C157.694 602.13 158.474 602.262 159.17 602.526C159.866 602.79 160.484 603.144 161.024 603.588L160.268 604.902ZM173.769 602.22H175.137L180.357 615H178.629L177.117 611.256H171.753L170.259 615H168.531L173.769 602.22ZM176.757 609.996L174.453 604.092L172.077 609.996H176.757ZM198.023 611.706C198.023 612.198 197.921 612.648 197.717 613.056C197.525 613.464 197.255 613.812 196.907 614.1C196.571 614.388 196.175 614.61 195.719 614.766C195.275 614.922 194.795 615 194.279 615H188.213V602.22H194.567C195.011 602.22 195.413 602.316 195.773 602.508C196.133 602.7 196.439 602.952 196.691 603.264C196.943 603.564 197.135 603.912 197.267 604.308C197.411 604.692 197.483 605.082 197.483 605.478C197.483 606.114 197.321 606.702 196.997 607.242C196.685 607.782 196.235 608.184 195.647 608.448C196.379 608.664 196.955 609.066 197.375 609.654C197.807 610.23 198.023 610.914 198.023 611.706ZM196.385 611.418C196.385 611.13 196.331 610.854 196.223 610.59C196.127 610.314 195.989 610.074 195.809 609.87C195.641 609.666 195.437 609.504 195.197 609.384C194.957 609.264 194.693 609.204 194.405 609.204H189.833V613.596H194.279C194.579 613.596 194.855 613.536 195.107 613.416C195.359 613.296 195.581 613.14 195.773 612.948C195.965 612.744 196.115 612.51 196.223 612.246C196.331 611.982 196.385 611.706 196.385 611.418ZM189.833 603.624V607.89H193.901C194.189 607.89 194.453 607.836 194.693 607.728C194.933 607.608 195.137 607.452 195.305 607.26C195.485 607.068 195.623 606.846 195.719 606.594C195.827 606.33 195.881 606.054 195.881 605.766C195.881 605.466 195.833 605.184 195.737 604.92C195.641 604.656 195.509 604.428 195.341 604.236C195.185 604.044 194.987 603.894 194.747 603.786C194.519 603.678 194.273 603.624 194.009 603.624H189.833ZM206.625 613.632C207.369 613.632 207.987 613.488 208.479 613.2C208.971 612.912 209.361 612.54 209.649 612.084C209.949 611.616 210.159 611.088 210.279 610.5C210.399 609.9 210.459 609.294 210.459 608.682V602.22H212.079V608.682C212.079 609.546 211.977 610.368 211.773 611.148C211.581 611.916 211.269 612.594 210.837 613.182C210.405 613.77 209.841 614.238 209.145 614.586C208.461 614.922 207.627 615.09 206.643 615.09C205.623 615.09 204.765 614.91 204.069 614.55C203.373 614.19 202.809 613.716 202.377 613.128C201.957 612.528 201.651 611.844 201.459 611.076C201.279 610.296 201.189 609.498 201.189 608.682V602.22H202.809V608.682C202.809 609.318 202.869 609.936 202.989 610.536C203.121 611.124 203.331 611.646 203.619 612.102C203.919 612.558 204.309 612.93 204.789 613.218C205.281 613.494 205.893 613.632 206.625 613.632ZM225.253 603.66H220.843V615H219.223V603.66H214.813V602.22H225.253V603.66ZM237.39 603.66H232.98V615H231.36V603.66H226.95V602.22H237.39V603.66ZM245.108 615.09C244.208 615.09 243.386 614.91 242.642 614.55C241.91 614.178 241.28 613.692 240.752 613.092C240.224 612.48 239.816 611.784 239.528 611.004C239.24 610.224 239.096 609.426 239.096 608.61C239.096 607.758 239.246 606.942 239.546 606.162C239.858 605.382 240.284 604.692 240.824 604.092C241.364 603.492 242 603.018 242.732 602.67C243.476 602.31 244.28 602.13 245.144 602.13C246.044 602.13 246.86 602.322 247.592 602.706C248.324 603.078 248.954 603.57 249.482 604.182C250.01 604.794 250.418 605.49 250.706 606.27C250.994 607.038 251.138 607.824 251.138 608.628C251.138 609.48 250.982 610.296 250.67 611.076C250.37 611.856 249.95 612.546 249.41 613.146C248.882 613.734 248.246 614.208 247.502 614.568C246.77 614.916 245.972 615.09 245.108 615.09ZM240.734 608.61C240.734 609.258 240.836 609.888 241.04 610.5C241.256 611.1 241.556 611.634 241.94 612.102C242.324 612.57 242.786 612.942 243.326 613.218C243.866 613.494 244.466 613.632 245.126 613.632C245.81 613.632 246.422 613.488 246.962 613.2C247.502 612.9 247.958 612.516 248.33 612.048C248.714 611.568 249.002 611.028 249.194 610.428C249.398 609.828 249.5 609.222 249.5 608.61C249.5 607.962 249.392 607.338 249.176 606.738C248.972 606.126 248.672 605.592 248.276 605.136C247.892 604.668 247.43 604.296 246.89 604.02C246.362 603.744 245.774 603.606 245.126 603.606C244.442 603.606 243.83 603.75 243.29 604.038C242.75 604.326 242.288 604.704 241.904 605.172C241.532 605.64 241.244 606.174 241.04 606.774C240.836 607.374 240.734 607.986 240.734 608.61ZM256.088 605.244V615H254.468V602.22H255.728L263.648 612.174V602.238H265.268V615H263.9L256.088 605.244ZM283.704 603.66H279.294V615H277.674V603.66H273.264V602.22H283.704V603.66ZM291.422 615.09C290.522 615.09 289.7 614.91 288.956 614.55C288.224 614.178 287.594 613.692 287.066 613.092C286.538 612.48 286.13 611.784 285.842 611.004C285.554 610.224 285.41 609.426 285.41 608.61C285.41 607.758 285.56 606.942 285.86 606.162C286.172 605.382 286.598 604.692 287.138 604.092C287.678 603.492 288.314 603.018 289.046 602.67C289.79 602.31 290.594 602.13 291.458 602.13C292.358 602.13 293.174 602.322 293.906 602.706C294.638 603.078 295.268 603.57 295.796 604.182C296.324 604.794 296.732 605.49 297.02 606.27C297.308 607.038 297.452 607.824 297.452 608.628C297.452 609.48 297.296 610.296 296.984 611.076C296.684 611.856 296.264 612.546 295.724 613.146C295.196 613.734 294.56 614.208 293.816 614.568C293.084 614.916 292.286 615.09 291.422 615.09ZM287.048 608.61C287.048 609.258 287.15 609.888 287.354 610.5C287.57 611.1 287.87 611.634 288.254 612.102C288.638 612.57 289.1 612.942 289.64 613.218C290.18 613.494 290.78 613.632 291.44 613.632C292.124 613.632 292.736 613.488 293.276 613.2C293.816 612.9 294.272 612.516 294.644 612.048C295.028 611.568 295.316 611.028 295.508 610.428C295.712 609.828 295.814 609.222 295.814 608.61C295.814 607.962 295.706 607.338 295.49 606.738C295.286 606.126 294.986 605.592 294.59 605.136C294.206 604.668 293.744 604.296 293.204 604.02C292.676 603.744 292.088 603.606 291.44 603.606C290.756 603.606 290.144 603.75 289.604 604.038C289.064 604.326 288.602 604.704 288.218 605.172C287.846 605.64 287.558 606.174 287.354 606.774C287.15 607.374 287.048 607.986 287.048 608.61ZM305.587 608.52C305.587 607.752 305.719 606.99 305.983 606.234C306.259 605.466 306.655 604.782 307.171 604.182C307.699 603.57 308.341 603.078 309.097 602.706C309.853 602.334 310.711 602.148 311.671 602.148C312.811 602.148 313.789 602.406 314.605 602.922C315.421 603.438 316.027 604.11 316.423 604.938L315.145 605.766C314.953 605.358 314.719 605.016 314.443 604.74C314.179 604.464 313.885 604.242 313.561 604.074C313.249 603.906 312.925 603.786 312.589 603.714C312.253 603.642 311.923 603.606 311.599 603.606C310.891 603.606 310.261 603.756 309.709 604.056C309.169 604.344 308.713 604.728 308.341 605.208C307.969 605.676 307.687 606.21 307.495 606.81C307.315 607.398 307.225 607.992 307.225 608.592C307.225 609.264 307.333 609.906 307.549 610.518C307.777 611.118 308.089 611.652 308.485 612.12C308.881 612.588 309.349 612.96 309.889 613.236C310.429 613.512 311.017 613.65 311.653 613.65C311.989 613.65 312.331 613.608 312.679 613.524C313.039 613.44 313.381 613.308 313.705 613.128C314.029 612.936 314.329 612.702 314.605 612.426C314.893 612.138 315.127 611.796 315.307 611.4L316.657 612.138C316.453 612.618 316.165 613.044 315.793 613.416C315.433 613.776 315.019 614.082 314.551 614.334C314.095 614.586 313.609 614.778 313.093 614.91C312.577 615.042 312.073 615.108 311.581 615.108C310.705 615.108 309.901 614.916 309.169 614.532C308.437 614.148 307.801 613.65 307.261 613.038C306.733 612.414 306.319 611.712 306.019 610.932C305.731 610.14 305.587 609.336 305.587 608.52ZM324.808 615.09C323.908 615.09 323.086 614.91 322.342 614.55C321.61 614.178 320.98 613.692 320.452 613.092C319.924 612.48 319.516 611.784 319.228 611.004C318.94 610.224 318.796 609.426 318.796 608.61C318.796 607.758 318.946 606.942 319.246 606.162C319.558 605.382 319.984 604.692 320.524 604.092C321.064 603.492 321.7 603.018 322.432 602.67C323.176 602.31 323.98 602.13 324.844 602.13C325.744 602.13 326.56 602.322 327.292 602.706C328.024 603.078 328.654 603.57 329.182 604.182C329.71 604.794 330.118 605.49 330.406 606.27C330.694 607.038 330.838 607.824 330.838 608.628C330.838 609.48 330.682 610.296 330.37 611.076C330.07 611.856 329.65 612.546 329.11 613.146C328.582 613.734 327.946 614.208 327.202 614.568C326.47 614.916 325.672 615.09 324.808 615.09ZM320.434 608.61C320.434 609.258 320.536 609.888 320.74 610.5C320.956 611.1 321.256 611.634 321.64 612.102C322.024 612.57 322.486 612.942 323.026 613.218C323.566 613.494 324.166 613.632 324.826 613.632C325.51 613.632 326.122 613.488 326.662 613.2C327.202 612.9 327.658 612.516 328.03 612.048C328.414 611.568 328.702 611.028 328.894 610.428C329.098 609.828 329.2 609.222 329.2 608.61C329.2 607.962 329.092 607.338 328.876 606.738C328.672 606.126 328.372 605.592 327.976 605.136C327.592 604.668 327.13 604.296 326.59 604.02C326.062 603.744 325.474 603.606 324.826 603.606C324.142 603.606 323.53 603.75 322.99 604.038C322.45 604.326 321.988 604.704 321.604 605.172C321.232 605.64 320.944 606.174 320.74 606.774C320.536 607.374 320.434 607.986 320.434 608.61ZM335.789 605.244V615H334.169V602.22H335.429L343.349 612.174V602.238H344.969V615H343.601L335.789 605.244ZM358.317 603.66H353.907V615H352.287V603.66H347.877V602.22H358.317V603.66ZM361.237 615V602.22H362.857V615H361.237ZM368.613 605.244V615H366.993V602.22H368.253L376.173 612.174V602.238H377.793V615H376.425L368.613 605.244ZM387.181 613.632C387.925 613.632 388.543 613.488 389.035 613.2C389.527 612.912 389.917 612.54 390.205 612.084C390.505 611.616 390.715 611.088 390.835 610.5C390.955 609.9 391.015 609.294 391.015 608.682V602.22H392.635V608.682C392.635 609.546 392.533 610.368 392.329 611.148C392.137 611.916 391.825 612.594 391.393 613.182C390.961 613.77 390.397 614.238 389.701 614.586C389.017 614.922 388.183 615.09 387.199 615.09C386.179 615.09 385.321 614.91 384.625 614.55C383.929 614.19 383.365 613.716 382.933 613.128C382.513 612.528 382.207 611.844 382.015 611.076C381.835 610.296 381.745 609.498 381.745 608.682V602.22H383.365V608.682C383.365 609.318 383.425 609.936 383.545 610.536C383.677 611.124 383.887 611.646 384.175 612.102C384.475 612.558 384.865 612.93 385.345 613.218C385.837 613.494 386.449 613.632 387.181 613.632ZM405.269 613.56V615H396.593V602.22H405.107V603.66H398.213V607.8H404.207V609.15H398.213V613.56H405.269Z" fill="white"/>
<path d="M444.045 623C436.252 623 430 616.748 430 609.045C430 601.252 436.252 595 444.045 595C451.748 595 458 601.252 458 609.045C458 616.748 451.748 623 444.045 623ZM444.045 596.812C437.249 596.812 431.812 602.249 431.812 609.045C431.812 615.751 437.249 621.278 444.045 621.278C450.751 621.278 456.278 615.841 456.278 609.045C456.188 602.249 450.751 596.812 444.045 596.812Z" fill="white"/>
<path d="M444.045 612.851C446.147 612.851 447.851 611.147 447.851 609.045C447.851 606.943 446.147 605.24 444.045 605.24C441.943 605.24 440.239 606.943 440.239 609.045C440.239 611.147 441.943 612.851 444.045 612.851Z" fill="white"/>
<path d="M443.139 615.751C443.139 615.207 443.592 614.845 444.045 614.845C444.498 614.845 444.951 615.207 444.951 615.751C444.951 616.204 444.589 616.657 444.045 616.657C443.502 616.657 443.139 616.294 443.139 615.751ZM438.608 614.482C438.246 614.12 438.246 613.576 438.608 613.214C438.971 612.851 439.515 612.851 439.877 613.214C440.239 613.576 440.239 614.12 439.877 614.482C439.696 614.663 439.424 614.754 439.243 614.754C439.061 614.663 438.79 614.663 438.608 614.482ZM448.123 614.392C447.761 614.029 447.761 613.485 448.123 613.123C448.485 612.76 449.029 612.76 449.392 613.123C449.754 613.485 449.754 614.029 449.392 614.392C449.21 614.573 449.029 614.663 448.757 614.663C448.576 614.663 448.304 614.573 448.123 614.392ZM436.343 609.045C436.343 608.502 436.706 608.139 437.249 608.139C437.702 608.139 438.155 608.502 438.155 609.045C438.155 609.498 437.793 609.951 437.249 609.951C436.796 609.951 436.343 609.589 436.343 609.045ZM449.845 609.045C449.845 608.955 449.845 608.955 449.845 609.045C449.845 608.502 450.207 608.049 450.751 608.049C451.204 608.049 451.657 608.411 451.657 608.955C451.657 609.408 451.204 609.861 450.751 609.861C450.298 609.951 449.845 609.498 449.845 609.045ZM438.608 604.877C438.246 604.515 438.246 603.971 438.608 603.608C438.971 603.246 439.515 603.246 439.877 603.608C440.239 603.971 440.239 604.515 439.877 604.877C439.696 605.058 439.424 605.149 439.243 605.149C438.971 605.149 438.699 605.058 438.608 604.877ZM448.123 604.877C447.761 604.515 447.761 603.971 448.123 603.608C448.485 603.246 449.029 603.246 449.392 603.608C449.754 603.971 449.754 604.515 449.392 604.877C449.21 605.058 448.939 605.149 448.757 605.149C448.485 605.058 448.304 604.968 448.123 604.877ZM443.049 602.249C443.049 601.705 443.411 601.343 443.955 601.343C444.408 601.343 444.861 601.705 444.861 602.249C444.861 602.793 444.498 603.155 443.955 603.155C443.502 603.155 443.049 602.793 443.049 602.249Z" fill="white"/>
<line opacity="0.5" x1="80.5" y1="556.5" x2="479.5" y2="556.5" stroke="white" stroke-linecap="round"/>
<circle opacity="0.35" cx="253" cy="50" r="6" fill="white"/>
<circle opacity="0.5" cx="279" cy="50" r="6" fill="white"/>
<circle cx="305" cy="50" r="6" fill="white"/>
<circle cx="331" cy="50" r="5.5" stroke="white"/>
<circle opacity="0.2" cx="227" cy="50" r="6" fill="white"/>
<circle cx="305" cy="50" r="9" stroke="white" stroke-width="2"/>
<g clip-path="url(#clip0)">
<path opacity="0.5" d="M318.358 243.629L332.306 283.256C332.306 283.256 334.244 295.106 322.814 298.796C311.384 302.681 300.148 286.947 300.148 286.947L298.21 243.629H318.358V243.629Z" fill="white"/>
<path opacity="0.5" d="M241.642 243.629L227.694 283.256C227.694 283.256 225.756 295.106 237.186 298.796C248.616 302.681 259.852 286.947 259.852 286.947L261.79 243.629H241.642V243.629Z" fill="white"/>
<path opacity="0.5" d="M279.806 218.377C298.316 218.377 313.321 202.896 313.321 183.8C313.321 164.704 298.316 149.224 279.806 149.224C261.297 149.224 246.292 164.704 246.292 183.8C246.292 202.896 261.297 218.377 279.806 218.377Z" fill="white"/>
<path d="M316.614 322.883H242.998L255.009 243.629H304.603L316.614 322.883Z" fill="white"/>
<g opacity="0.5">
<path opacity="0.5" d="M264.114 366.978C264.114 370.28 266.827 373 270.12 373C273.413 373 276.125 370.28 276.125 366.978V322.883H264.114V366.978V366.978Z" fill="white"/>
<path opacity="0.5" d="M283.487 322.883V366.978C283.487 370.28 286.199 373 289.493 373C292.786 373 295.498 370.28 295.498 366.978V322.883H283.487V322.883Z" fill="white"/>
</g>
<path d="M319.327 243.629H240.286C239.317 243.629 238.349 242.658 238.349 241.687V201.671C238.349 200.7 239.317 199.729 240.286 199.729H319.52C320.683 199.729 321.458 200.7 321.458 201.671V241.687C321.264 242.852 320.489 243.629 319.327 243.629Z" fill="white"/>
<path d="M305.766 152.526L281.55 164.181C280.581 164.764 279.225 164.764 278.256 164.181L254.041 152.526L279.806 128.439L305.766 152.526Z" fill="white"/>
<path d="M279.806 123C255.59 123 232.343 152.138 232.343 179.721C232.343 207.305 255.59 222.65 279.806 222.65C304.022 222.65 327.269 207.305 327.269 179.721C327.269 152.138 304.022 123 279.806 123ZM279.806 218.377C261.402 218.377 246.292 202.837 246.292 183.8C246.292 164.764 261.209 149.224 279.806 149.224C298.404 149.224 313.321 164.764 313.321 183.8C313.321 202.837 298.21 218.377 279.806 218.377Z" fill="white"/>
</g>
<defs>
<clipPath id="clip0">
<rect width="105" height="250" fill="white" transform="translate(227.5 123)"/>
</clipPath>
</defs>
</svg>
