<svg width="560" height="680" viewBox="0 0 560 680" fill="none" xmlns="http://www.w3.org/2000/svg">
<rect opacity="0.15" width="560" height="680" rx="40" fill="white"/>
<path d="M103.53 615V602.22H108.858C109.422 602.22 109.938 602.34 110.406 602.58C110.886 602.808 111.294 603.12 111.63 603.516C111.978 603.9 112.248 604.338 112.44 604.83C112.632 605.31 112.728 605.802 112.728 606.306C112.728 606.834 112.638 607.344 112.458 607.836C112.278 608.328 112.02 608.766 111.684 609.15C111.36 609.534 110.964 609.84 110.496 610.068C110.04 610.296 109.53 610.41 108.966 610.41H105.15V615H103.53ZM105.15 608.97H108.876C109.212 608.97 109.512 608.904 109.776 608.772C110.052 608.628 110.286 608.436 110.478 608.196C110.67 607.944 110.82 607.656 110.928 607.332C111.036 607.008 111.09 606.666 111.09 606.306C111.09 605.934 111.024 605.586 110.892 605.262C110.772 604.938 110.604 604.656 110.388 604.416C110.184 604.176 109.938 603.99 109.65 603.858C109.374 603.726 109.08 603.66 108.768 603.66H105.15V608.97ZM115.825 615V602.22H121.297C121.861 602.22 122.377 602.34 122.845 602.58C123.325 602.808 123.733 603.12 124.069 603.516C124.417 603.9 124.687 604.338 124.879 604.83C125.071 605.31 125.167 605.802 125.167 606.306C125.167 606.75 125.101 607.182 124.969 607.602C124.849 608.01 124.669 608.382 124.429 608.718C124.201 609.054 123.919 609.342 123.583 609.582C123.259 609.822 122.893 609.996 122.485 610.104L125.581 615H123.745L120.829 610.41H117.445V615H115.825ZM117.445 608.97H121.315C121.651 608.97 121.951 608.898 122.215 608.754C122.491 608.61 122.725 608.418 122.917 608.178C123.109 607.926 123.259 607.638 123.367 607.314C123.475 606.99 123.529 606.654 123.529 606.306C123.529 605.946 123.463 605.61 123.331 605.298C123.211 604.974 123.043 604.692 122.827 604.452C122.623 604.2 122.377 604.008 122.089 603.876C121.813 603.732 121.519 603.66 121.207 603.66H117.445V608.97ZM137.411 613.56V615H128.735V602.22H137.249V603.66H130.355V607.8H136.349V609.15H130.355V613.56H137.411ZM148.219 604.902C148.075 604.734 147.883 604.572 147.643 604.416C147.403 604.26 147.133 604.122 146.833 604.002C146.533 603.87 146.203 603.768 145.843 603.696C145.495 603.612 145.129 603.57 144.745 603.57C143.749 603.57 143.017 603.756 142.549 604.128C142.093 604.5 141.865 605.01 141.865 605.658C141.865 606.006 141.931 606.294 142.063 606.522C142.195 606.75 142.399 606.948 142.675 607.116C142.963 607.272 143.317 607.41 143.737 607.53C144.157 607.65 144.655 607.776 145.231 607.908C145.891 608.052 146.485 608.22 147.013 608.412C147.553 608.592 148.009 608.82 148.381 609.096C148.765 609.372 149.053 609.708 149.245 610.104C149.449 610.5 149.551 610.986 149.551 611.562C149.551 612.174 149.431 612.708 149.191 613.164C148.951 613.608 148.621 613.98 148.201 614.28C147.793 614.568 147.307 614.784 146.743 614.928C146.179 615.06 145.567 615.126 144.907 615.126C143.923 615.126 142.987 614.976 142.099 614.676C141.223 614.364 140.425 613.914 139.705 613.326L140.479 611.958C140.671 612.162 140.917 612.366 141.217 612.57C141.529 612.774 141.877 612.96 142.261 613.128C142.657 613.284 143.077 613.416 143.521 613.524C143.977 613.62 144.451 613.668 144.943 613.668C145.855 613.668 146.563 613.506 147.067 613.182C147.571 612.858 147.823 612.372 147.823 611.724C147.823 611.364 147.739 611.064 147.571 610.824C147.415 610.572 147.181 610.356 146.869 610.176C146.557 609.996 146.167 609.84 145.699 609.708C145.243 609.564 144.721 609.42 144.133 609.276C143.485 609.12 142.915 608.952 142.423 608.772C141.931 608.592 141.517 608.376 141.181 608.124C140.857 607.872 140.611 607.566 140.443 607.206C140.275 606.846 140.191 606.414 140.191 605.91C140.191 605.298 140.305 604.758 140.533 604.29C140.761 603.822 141.079 603.426 141.487 603.102C141.895 602.778 142.381 602.538 142.945 602.382C143.509 602.214 144.121 602.13 144.781 602.13C145.645 602.13 146.425 602.262 147.121 602.526C147.817 602.79 148.435 603.144 148.975 603.588L148.219 604.902ZM160.268 604.902C160.124 604.734 159.932 604.572 159.692 604.416C159.452 604.26 159.182 604.122 158.882 604.002C158.582 603.87 158.252 603.768 157.892 603.696C157.544 603.612 157.178 603.57 156.794 603.57C155.798 603.57 155.066 603.756 154.598 604.128C154.142 604.5 153.914 605.01 153.914 605.658C153.914 606.006 153.98 606.294 154.112 606.522C154.244 606.75 154.448 606.948 154.724 607.116C155.012 607.272 155.366 607.41 155.786 607.53C156.206 607.65 156.704 607.776 157.28 607.908C157.94 608.052 158.534 608.22 159.062 608.412C159.602 608.592 160.058 608.82 160.43 609.096C160.814 609.372 161.102 609.708 161.294 610.104C161.498 610.5 161.6 610.986 161.6 611.562C161.6 612.174 161.48 612.708 161.24 613.164C161 613.608 160.67 613.98 160.25 614.28C159.842 614.568 159.356 614.784 158.792 614.928C158.228 615.06 157.616 615.126 156.956 615.126C155.972 615.126 155.036 614.976 154.148 614.676C153.272 614.364 152.474 613.914 151.754 613.326L152.528 611.958C152.72 612.162 152.966 612.366 153.266 612.57C153.578 612.774 153.926 612.96 154.31 613.128C154.706 613.284 155.126 613.416 155.57 613.524C156.026 613.62 156.5 613.668 156.992 613.668C157.904 613.668 158.612 613.506 159.116 613.182C159.62 612.858 159.872 612.372 159.872 611.724C159.872 611.364 159.788 611.064 159.62 610.824C159.464 610.572 159.23 610.356 158.918 610.176C158.606 609.996 158.216 609.84 157.748 609.708C157.292 609.564 156.77 609.42 156.182 609.276C155.534 609.12 154.964 608.952 154.472 608.772C153.98 608.592 153.566 608.376 153.23 608.124C152.906 607.872 152.66 607.566 152.492 607.206C152.324 606.846 152.24 606.414 152.24 605.91C152.24 605.298 152.354 604.758 152.582 604.29C152.81 603.822 153.128 603.426 153.536 603.102C153.944 602.778 154.43 602.538 154.994 602.382C155.558 602.214 156.17 602.13 156.83 602.13C157.694 602.13 158.474 602.262 159.17 602.526C159.866 602.79 160.484 603.144 161.024 603.588L160.268 604.902ZM173.769 602.22H175.137L180.357 615H178.629L177.117 611.256H171.753L170.259 615H168.531L173.769 602.22ZM176.757 609.996L174.453 604.092L172.077 609.996H176.757ZM198.023 611.706C198.023 612.198 197.921 612.648 197.717 613.056C197.525 613.464 197.255 613.812 196.907 614.1C196.571 614.388 196.175 614.61 195.719 614.766C195.275 614.922 194.795 615 194.279 615H188.213V602.22H194.567C195.011 602.22 195.413 602.316 195.773 602.508C196.133 602.7 196.439 602.952 196.691 603.264C196.943 603.564 197.135 603.912 197.267 604.308C197.411 604.692 197.483 605.082 197.483 605.478C197.483 606.114 197.321 606.702 196.997 607.242C196.685 607.782 196.235 608.184 195.647 608.448C196.379 608.664 196.955 609.066 197.375 609.654C197.807 610.23 198.023 610.914 198.023 611.706ZM196.385 611.418C196.385 611.13 196.331 610.854 196.223 610.59C196.127 610.314 195.989 610.074 195.809 609.87C195.641 609.666 195.437 609.504 195.197 609.384C194.957 609.264 194.693 609.204 194.405 609.204H189.833V613.596H194.279C194.579 613.596 194.855 613.536 195.107 613.416C195.359 613.296 195.581 613.14 195.773 612.948C195.965 612.744 196.115 612.51 196.223 612.246C196.331 611.982 196.385 611.706 196.385 611.418ZM189.833 603.624V607.89H193.901C194.189 607.89 194.453 607.836 194.693 607.728C194.933 607.608 195.137 607.452 195.305 607.26C195.485 607.068 195.623 606.846 195.719 606.594C195.827 606.33 195.881 606.054 195.881 605.766C195.881 605.466 195.833 605.184 195.737 604.92C195.641 604.656 195.509 604.428 195.341 604.236C195.185 604.044 194.987 603.894 194.747 603.786C194.519 603.678 194.273 603.624 194.009 603.624H189.833ZM206.625 613.632C207.369 613.632 207.987 613.488 208.479 613.2C208.971 612.912 209.361 612.54 209.649 612.084C209.949 611.616 210.159 611.088 210.279 610.5C210.399 609.9 210.459 609.294 210.459 608.682V602.22H212.079V608.682C212.079 609.546 211.977 610.368 211.773 611.148C211.581 611.916 211.269 612.594 210.837 613.182C210.405 613.77 209.841 614.238 209.145 614.586C208.461 614.922 207.627 615.09 206.643 615.09C205.623 615.09 204.765 614.91 204.069 614.55C203.373 614.19 202.809 613.716 202.377 613.128C201.957 612.528 201.651 611.844 201.459 611.076C201.279 610.296 201.189 609.498 201.189 608.682V602.22H202.809V608.682C202.809 609.318 202.869 609.936 202.989 610.536C203.121 611.124 203.331 611.646 203.619 612.102C203.919 612.558 204.309 612.93 204.789 613.218C205.281 613.494 205.893 613.632 206.625 613.632ZM225.253 603.66H220.843V615H219.223V603.66H214.813V602.22H225.253V603.66ZM237.39 603.66H232.98V615H231.36V603.66H226.95V602.22H237.39V603.66ZM245.108 615.09C244.208 615.09 243.386 614.91 242.642 614.55C241.91 614.178 241.28 613.692 240.752 613.092C240.224 612.48 239.816 611.784 239.528 611.004C239.24 610.224 239.096 609.426 239.096 608.61C239.096 607.758 239.246 606.942 239.546 606.162C239.858 605.382 240.284 604.692 240.824 604.092C241.364 603.492 242 603.018 242.732 602.67C243.476 602.31 244.28 602.13 245.144 602.13C246.044 602.13 246.86 602.322 247.592 602.706C248.324 603.078 248.954 603.57 249.482 604.182C250.01 604.794 250.418 605.49 250.706 606.27C250.994 607.038 251.138 607.824 251.138 608.628C251.138 609.48 250.982 610.296 250.67 611.076C250.37 611.856 249.95 612.546 249.41 613.146C248.882 613.734 248.246 614.208 247.502 614.568C246.77 614.916 245.972 615.09 245.108 615.09ZM240.734 608.61C240.734 609.258 240.836 609.888 241.04 610.5C241.256 611.1 241.556 611.634 241.94 612.102C242.324 612.57 242.786 612.942 243.326 613.218C243.866 613.494 244.466 613.632 245.126 613.632C245.81 613.632 246.422 613.488 246.962 613.2C247.502 612.9 247.958 612.516 248.33 612.048C248.714 611.568 249.002 611.028 249.194 610.428C249.398 609.828 249.5 609.222 249.5 608.61C249.5 607.962 249.392 607.338 249.176 606.738C248.972 606.126 248.672 605.592 248.276 605.136C247.892 604.668 247.43 604.296 246.89 604.02C246.362 603.744 245.774 603.606 245.126 603.606C244.442 603.606 243.83 603.75 243.29 604.038C242.75 604.326 242.288 604.704 241.904 605.172C241.532 605.64 241.244 606.174 241.04 606.774C240.836 607.374 240.734 607.986 240.734 608.61ZM256.088 605.244V615H254.468V602.22H255.728L263.648 612.174V602.238H265.268V615H263.9L256.088 605.244ZM283.704 603.66H279.294V615H277.674V603.66H273.264V602.22H283.704V603.66ZM291.422 615.09C290.522 615.09 289.7 614.91 288.956 614.55C288.224 614.178 287.594 613.692 287.066 613.092C286.538 612.48 286.13 611.784 285.842 611.004C285.554 610.224 285.41 609.426 285.41 608.61C285.41 607.758 285.56 606.942 285.86 606.162C286.172 605.382 286.598 604.692 287.138 604.092C287.678 603.492 288.314 603.018 289.046 602.67C289.79 602.31 290.594 602.13 291.458 602.13C292.358 602.13 293.174 602.322 293.906 602.706C294.638 603.078 295.268 603.57 295.796 604.182C296.324 604.794 296.732 605.49 297.02 606.27C297.308 607.038 297.452 607.824 297.452 608.628C297.452 609.48 297.296 610.296 296.984 611.076C296.684 611.856 296.264 612.546 295.724 613.146C295.196 613.734 294.56 614.208 293.816 614.568C293.084 614.916 292.286 615.09 291.422 615.09ZM287.048 608.61C287.048 609.258 287.15 609.888 287.354 610.5C287.57 611.1 287.87 611.634 288.254 612.102C288.638 612.57 289.1 612.942 289.64 613.218C290.18 613.494 290.78 613.632 291.44 613.632C292.124 613.632 292.736 613.488 293.276 613.2C293.816 612.9 294.272 612.516 294.644 612.048C295.028 611.568 295.316 611.028 295.508 610.428C295.712 609.828 295.814 609.222 295.814 608.61C295.814 607.962 295.706 607.338 295.49 606.738C295.286 606.126 294.986 605.592 294.59 605.136C294.206 604.668 293.744 604.296 293.204 604.02C292.676 603.744 292.088 603.606 291.44 603.606C290.756 603.606 290.144 603.75 289.604 604.038C289.064 604.326 288.602 604.704 288.218 605.172C287.846 605.64 287.558 606.174 287.354 606.774C287.15 607.374 287.048 607.986 287.048 608.61ZM305.587 608.52C305.587 607.752 305.719 606.99 305.983 606.234C306.259 605.466 306.655 604.782 307.171 604.182C307.699 603.57 308.341 603.078 309.097 602.706C309.853 602.334 310.711 602.148 311.671 602.148C312.811 602.148 313.789 602.406 314.605 602.922C315.421 603.438 316.027 604.11 316.423 604.938L315.145 605.766C314.953 605.358 314.719 605.016 314.443 604.74C314.179 604.464 313.885 604.242 313.561 604.074C313.249 603.906 312.925 603.786 312.589 603.714C312.253 603.642 311.923 603.606 311.599 603.606C310.891 603.606 310.261 603.756 309.709 604.056C309.169 604.344 308.713 604.728 308.341 605.208C307.969 605.676 307.687 606.21 307.495 606.81C307.315 607.398 307.225 607.992 307.225 608.592C307.225 609.264 307.333 609.906 307.549 610.518C307.777 611.118 308.089 611.652 308.485 612.12C308.881 612.588 309.349 612.96 309.889 613.236C310.429 613.512 311.017 613.65 311.653 613.65C311.989 613.65 312.331 613.608 312.679 613.524C313.039 613.44 313.381 613.308 313.705 613.128C314.029 612.936 314.329 612.702 314.605 612.426C314.893 612.138 315.127 611.796 315.307 611.4L316.657 612.138C316.453 612.618 316.165 613.044 315.793 613.416C315.433 613.776 315.019 614.082 314.551 614.334C314.095 614.586 313.609 614.778 313.093 614.91C312.577 615.042 312.073 615.108 311.581 615.108C310.705 615.108 309.901 614.916 309.169 614.532C308.437 614.148 307.801 613.65 307.261 613.038C306.733 612.414 306.319 611.712 306.019 610.932C305.731 610.14 305.587 609.336 305.587 608.52ZM324.808 615.09C323.908 615.09 323.086 614.91 322.342 614.55C321.61 614.178 320.98 613.692 320.452 613.092C319.924 612.48 319.516 611.784 319.228 611.004C318.94 610.224 318.796 609.426 318.796 608.61C318.796 607.758 318.946 606.942 319.246 606.162C319.558 605.382 319.984 604.692 320.524 604.092C321.064 603.492 321.7 603.018 322.432 602.67C323.176 602.31 323.98 602.13 324.844 602.13C325.744 602.13 326.56 602.322 327.292 602.706C328.024 603.078 328.654 603.57 329.182 604.182C329.71 604.794 330.118 605.49 330.406 606.27C330.694 607.038 330.838 607.824 330.838 608.628C330.838 609.48 330.682 610.296 330.37 611.076C330.07 611.856 329.65 612.546 329.11 613.146C328.582 613.734 327.946 614.208 327.202 614.568C326.47 614.916 325.672 615.09 324.808 615.09ZM320.434 608.61C320.434 609.258 320.536 609.888 320.74 610.5C320.956 611.1 321.256 611.634 321.64 612.102C322.024 612.57 322.486 612.942 323.026 613.218C323.566 613.494 324.166 613.632 324.826 613.632C325.51 613.632 326.122 613.488 326.662 613.2C327.202 612.9 327.658 612.516 328.03 612.048C328.414 611.568 328.702 611.028 328.894 610.428C329.098 609.828 329.2 609.222 329.2 608.61C329.2 607.962 329.092 607.338 328.876 606.738C328.672 606.126 328.372 605.592 327.976 605.136C327.592 604.668 327.13 604.296 326.59 604.02C326.062 603.744 325.474 603.606 324.826 603.606C324.142 603.606 323.53 603.75 322.99 604.038C322.45 604.326 321.988 604.704 321.604 605.172C321.232 605.64 320.944 606.174 320.74 606.774C320.536 607.374 320.434 607.986 320.434 608.61ZM335.789 605.244V615H334.169V602.22H335.429L343.349 612.174V602.238H344.969V615H343.601L335.789 605.244ZM358.317 603.66H353.907V615H352.287V603.66H347.877V602.22H358.317V603.66ZM361.237 615V602.22H362.857V615H361.237ZM368.613 605.244V615H366.993V602.22H368.253L376.173 612.174V602.238H377.793V615H376.425L368.613 605.244ZM387.181 613.632C387.925 613.632 388.543 613.488 389.035 613.2C389.527 612.912 389.917 612.54 390.205 612.084C390.505 611.616 390.715 611.088 390.835 610.5C390.955 609.9 391.015 609.294 391.015 608.682V602.22H392.635V608.682C392.635 609.546 392.533 610.368 392.329 611.148C392.137 611.916 391.825 612.594 391.393 613.182C390.961 613.77 390.397 614.238 389.701 614.586C389.017 614.922 388.183 615.09 387.199 615.09C386.179 615.09 385.321 614.91 384.625 614.55C383.929 614.19 383.365 613.716 382.933 613.128C382.513 612.528 382.207 611.844 382.015 611.076C381.835 610.296 381.745 609.498 381.745 608.682V602.22H383.365V608.682C383.365 609.318 383.425 609.936 383.545 610.536C383.677 611.124 383.887 611.646 384.175 612.102C384.475 612.558 384.865 612.93 385.345 613.218C385.837 613.494 386.449 613.632 387.181 613.632ZM405.269 613.56V615H396.593V602.22H405.107V603.66H398.213V607.8H404.207V609.15H398.213V613.56H405.269Z" fill="white"/>
<path d="M444.045 623C436.252 623 430 616.748 430 609.045C430 601.252 436.252 595 444.045 595C451.748 595 458 601.252 458 609.045C458 616.748 451.748 623 444.045 623ZM444.045 596.812C437.249 596.812 431.812 602.249 431.812 609.045C431.812 615.751 437.249 621.278 444.045 621.278C450.751 621.278 456.278 615.841 456.278 609.045C456.188 602.249 450.751 596.812 444.045 596.812Z" fill="white"/>
<path d="M444.045 612.851C446.147 612.851 447.851 611.147 447.851 609.045C447.851 606.943 446.147 605.239 444.045 605.239C441.943 605.239 440.239 606.943 440.239 609.045C440.239 611.147 441.943 612.851 444.045 612.851Z" fill="white"/>
<path d="M443.139 615.751C443.139 615.207 443.592 614.845 444.045 614.845C444.498 614.845 444.951 615.207 444.951 615.751C444.951 616.204 444.589 616.657 444.045 616.657C443.502 616.657 443.139 616.295 443.139 615.751ZM438.608 614.482C438.246 614.12 438.246 613.576 438.608 613.214C438.971 612.851 439.515 612.851 439.877 613.214C440.239 613.576 440.239 614.12 439.877 614.482C439.696 614.663 439.424 614.754 439.243 614.754C439.061 614.663 438.79 614.663 438.608 614.482ZM448.123 614.392C447.761 614.029 447.761 613.485 448.123 613.123C448.485 612.761 449.029 612.761 449.392 613.123C449.754 613.485 449.754 614.029 449.392 614.392C449.21 614.573 449.029 614.663 448.757 614.663C448.576 614.663 448.304 614.573 448.123 614.392ZM436.343 609.045C436.343 608.502 436.706 608.139 437.249 608.139C437.702 608.139 438.155 608.502 438.155 609.045C438.155 609.498 437.793 609.951 437.249 609.951C436.796 609.951 436.343 609.589 436.343 609.045ZM449.845 609.045C449.845 608.955 449.845 608.955 449.845 609.045C449.845 608.502 450.207 608.049 450.751 608.049C451.204 608.049 451.657 608.411 451.657 608.955C451.657 609.408 451.204 609.861 450.751 609.861C450.298 609.951 449.845 609.498 449.845 609.045ZM438.608 604.877C438.246 604.515 438.246 603.971 438.608 603.608C438.971 603.246 439.515 603.246 439.877 603.608C440.239 603.971 440.239 604.515 439.877 604.877C439.696 605.058 439.424 605.149 439.243 605.149C438.971 605.149 438.699 605.058 438.608 604.877ZM448.123 604.877C447.761 604.515 447.761 603.971 448.123 603.608C448.485 603.246 449.029 603.246 449.392 603.608C449.754 603.971 449.754 604.515 449.392 604.877C449.21 605.058 448.939 605.149 448.757 605.149C448.485 605.058 448.304 604.968 448.123 604.877ZM443.049 602.249C443.049 601.706 443.411 601.343 443.955 601.343C444.408 601.343 444.861 601.706 444.861 602.249C444.861 602.793 444.498 603.155 443.955 603.155C443.502 603.155 443.049 602.793 443.049 602.249Z" fill="white"/>
<line opacity="0.5" x1="80.5" y1="556.5" x2="479.5" y2="556.5" stroke="white" stroke-linecap="round"/>
<path d="M91.484 181.512H96.056L98.936 189.972L101.816 181.512H106.424L102.068 193.14L105.308 201.312L112.544 181.44H117.944L107.54 207H103.364L98.936 196.272L94.508 207H90.332L80 181.44H85.328L92.6 201.312L95.768 193.14L91.484 181.512ZM128.646 207.36C127.11 207.36 125.73 207.096 124.506 206.568C123.282 206.04 122.238 205.332 121.374 204.444C120.534 203.532 119.886 202.488 119.43 201.312C118.974 200.136 118.746 198.9 118.746 197.604C118.746 196.284 118.974 195.036 119.43 193.86C119.886 192.684 120.534 191.652 121.374 190.764C122.238 189.852 123.282 189.132 124.506 188.604C125.73 188.076 127.11 187.812 128.646 187.812C130.182 187.812 131.55 188.076 132.75 188.604C133.974 189.132 135.006 189.852 135.846 190.764C136.71 191.652 137.37 192.684 137.826 193.86C138.282 195.036 138.51 196.284 138.51 197.604C138.51 198.9 138.282 200.136 137.826 201.312C137.37 202.488 136.722 203.532 135.882 204.444C135.042 205.332 134.01 206.04 132.786 206.568C131.562 207.096 130.182 207.36 128.646 207.36ZM123.714 197.604C123.714 198.444 123.834 199.212 124.074 199.908C124.338 200.58 124.686 201.168 125.118 201.672C125.574 202.176 126.102 202.572 126.702 202.86C127.302 203.124 127.95 203.256 128.646 203.256C129.342 203.256 129.99 203.124 130.59 202.86C131.19 202.572 131.706 202.176 132.138 201.672C132.594 201.168 132.942 200.568 133.182 199.872C133.446 199.176 133.578 198.408 133.578 197.568C133.578 196.752 133.446 195.996 133.182 195.3C132.942 194.604 132.594 194.004 132.138 193.5C131.706 192.996 131.19 192.612 130.59 192.348C129.99 192.06 129.342 191.916 128.646 191.916C127.95 191.916 127.302 192.06 126.702 192.348C126.102 192.636 125.574 193.032 125.118 193.536C124.686 194.04 124.338 194.64 124.074 195.336C123.834 196.032 123.714 196.788 123.714 197.604ZM155.158 192.312C153.694 192.336 152.386 192.624 151.234 193.176C150.082 193.704 149.254 194.508 148.75 195.588V207H143.926V188.136H148.354V192.168C148.69 191.52 149.086 190.944 149.542 190.44C149.998 189.912 150.49 189.456 151.018 189.072C151.546 188.688 152.074 188.4 152.602 188.208C153.154 187.992 153.682 187.884 154.186 187.884C154.45 187.884 154.642 187.884 154.762 187.884C154.906 187.884 155.038 187.896 155.158 187.92V192.312ZM159.972 180.72H164.796V200.952C164.796 201.648 164.964 202.188 165.3 202.572C165.636 202.956 166.116 203.148 166.74 203.148C167.028 203.148 167.34 203.1 167.676 203.004C168.036 202.908 168.372 202.788 168.684 202.644L169.332 206.316C168.684 206.628 167.928 206.868 167.064 207.036C166.2 207.204 165.42 207.288 164.724 207.288C163.212 207.288 162.036 206.892 161.196 206.1C160.38 205.284 159.972 204.132 159.972 202.644V180.72ZM181.406 207.36C180.11 207.36 178.91 207.108 177.806 206.604C176.702 206.1 175.754 205.404 174.962 204.516C174.17 203.628 173.546 202.596 173.09 201.42C172.658 200.22 172.442 198.936 172.442 197.568C172.442 196.2 172.646 194.928 173.054 193.752C173.486 192.576 174.074 191.544 174.818 190.656C175.562 189.768 176.45 189.072 177.482 188.568C178.514 188.064 179.642 187.812 180.866 187.812C182.258 187.812 183.506 188.148 184.61 188.82C185.738 189.492 186.614 190.368 187.238 191.448V180.72H192.062V201.456C192.062 201.96 192.146 202.32 192.314 202.536C192.482 202.752 192.77 202.872 193.178 202.896V207C192.338 207.168 191.654 207.252 191.126 207.252C190.262 207.252 189.554 207.036 189.002 206.604C188.45 206.172 188.138 205.608 188.066 204.912L187.958 203.724C187.262 204.924 186.314 205.836 185.114 206.46C183.938 207.06 182.702 207.36 181.406 207.36ZM182.666 203.256C183.122 203.256 183.59 203.184 184.07 203.04C184.55 202.872 184.994 202.644 185.402 202.356C185.81 202.068 186.17 201.732 186.482 201.348C186.818 200.964 187.07 200.544 187.238 200.088V195.588C187.046 195.06 186.77 194.58 186.41 194.148C186.074 193.692 185.678 193.308 185.222 192.996C184.79 192.66 184.322 192.396 183.818 192.204C183.338 192.012 182.858 191.916 182.378 191.916C181.658 191.916 180.986 192.072 180.362 192.384C179.762 192.696 179.246 193.128 178.814 193.68C178.382 194.208 178.046 194.82 177.806 195.516C177.566 196.212 177.446 196.932 177.446 197.676C177.446 198.468 177.578 199.2 177.842 199.872C178.106 200.544 178.466 201.132 178.922 201.636C179.378 202.14 179.918 202.536 180.542 202.824C181.19 203.112 181.898 203.256 182.666 203.256ZM206.085 207.36C204.501 207.36 202.953 207.108 201.441 206.604C199.929 206.1 198.633 205.38 197.553 204.444L199.353 201.42C200.505 202.236 201.621 202.86 202.701 203.292C203.805 203.7 204.897 203.904 205.977 203.904C206.937 203.904 207.693 203.724 208.245 203.364C208.797 203.004 209.073 202.488 209.073 201.816C209.073 201.144 208.749 200.652 208.101 200.34C207.453 200.028 206.397 199.668 204.933 199.26C203.709 198.924 202.665 198.6 201.801 198.288C200.937 197.976 200.241 197.628 199.713 197.244C199.185 196.836 198.801 196.38 198.561 195.876C198.321 195.348 198.201 194.724 198.201 194.004C198.201 193.044 198.381 192.18 198.741 191.412C199.125 190.644 199.653 189.996 200.325 189.468C200.997 188.916 201.777 188.496 202.665 188.208C203.577 187.92 204.561 187.776 205.617 187.776C207.033 187.776 208.353 187.98 209.577 188.388C210.825 188.796 211.965 189.456 212.997 190.368L211.053 193.284C210.093 192.564 209.157 192.036 208.245 191.7C207.357 191.364 206.469 191.196 205.581 191.196C204.765 191.196 204.081 191.364 203.529 191.7C202.977 192.036 202.701 192.576 202.701 193.32C202.701 193.656 202.761 193.932 202.881 194.148C203.025 194.364 203.241 194.556 203.529 194.724C203.817 194.892 204.189 195.06 204.645 195.228C205.125 195.372 205.713 195.528 206.409 195.696C207.705 196.032 208.809 196.368 209.721 196.704C210.657 197.04 211.413 197.424 211.989 197.856C212.589 198.288 213.021 198.792 213.285 199.368C213.573 199.92 213.717 200.592 213.717 201.384C213.717 203.232 213.033 204.696 211.665 205.776C210.297 206.832 208.437 207.36 206.085 207.36ZM236.948 207.36C235.364 207.36 233.816 207.108 232.304 206.604C230.792 206.1 229.496 205.38 228.416 204.444L230.216 201.42C231.368 202.236 232.484 202.86 233.564 203.292C234.668 203.7 235.76 203.904 236.84 203.904C237.8 203.904 238.556 203.724 239.108 203.364C239.66 203.004 239.936 202.488 239.936 201.816C239.936 201.144 239.612 200.652 238.964 200.34C238.316 200.028 237.26 199.668 235.796 199.26C234.572 198.924 233.528 198.6 232.664 198.288C231.8 197.976 231.104 197.628 230.576 197.244C230.048 196.836 229.664 196.38 229.424 195.876C229.184 195.348 229.064 194.724 229.064 194.004C229.064 193.044 229.244 192.18 229.604 191.412C229.988 190.644 230.516 189.996 231.188 189.468C231.86 188.916 232.64 188.496 233.528 188.208C234.44 187.92 235.424 187.776 236.48 187.776C237.896 187.776 239.216 187.98 240.44 188.388C241.688 188.796 242.828 189.456 243.86 190.368L241.916 193.284C240.956 192.564 240.02 192.036 239.108 191.7C238.22 191.364 237.332 191.196 236.444 191.196C235.628 191.196 234.944 191.364 234.392 191.7C233.84 192.036 233.564 192.576 233.564 193.32C233.564 193.656 233.624 193.932 233.744 194.148C233.888 194.364 234.104 194.556 234.392 194.724C234.68 194.892 235.052 195.06 235.508 195.228C235.988 195.372 236.576 195.528 237.272 195.696C238.568 196.032 239.672 196.368 240.584 196.704C241.52 197.04 242.276 197.424 242.852 197.856C243.452 198.288 243.884 198.792 244.148 199.368C244.436 199.92 244.58 200.592 244.58 201.384C244.58 203.232 243.896 204.696 242.528 205.776C241.16 206.832 239.3 207.36 236.948 207.36ZM261.178 206.028C260.53 206.316 259.738 206.604 258.802 206.892C257.866 207.18 256.882 207.324 255.85 207.324C255.178 207.324 254.542 207.24 253.942 207.072C253.366 206.904 252.85 206.64 252.394 206.28C251.962 205.896 251.614 205.416 251.35 204.84C251.086 204.24 250.954 203.52 250.954 202.68V191.844H248.47V188.136H250.954V182.016H255.778V188.136H259.738V191.844H255.778V201.06C255.778 201.732 255.946 202.212 256.282 202.5C256.642 202.764 257.074 202.896 257.578 202.896C258.082 202.896 258.574 202.812 259.054 202.644C259.534 202.476 259.918 202.332 260.206 202.212L261.178 206.028ZM277.083 192.312C275.619 192.336 274.311 192.624 273.159 193.176C272.007 193.704 271.179 194.508 270.675 195.588V207H265.851V188.136H270.279V192.168C270.615 191.52 271.011 190.944 271.467 190.44C271.923 189.912 272.415 189.456 272.943 189.072C273.471 188.688 273.999 188.4 274.527 188.208C275.079 187.992 275.607 187.884 276.111 187.884C276.375 187.884 276.567 187.884 276.687 187.884C276.831 187.884 276.963 187.896 277.083 187.92V192.312ZM281.933 207V188.136H286.757V207H281.933ZM281.933 185.508V180.72H286.757V185.508H281.933ZM304.572 207.36C303.084 207.36 301.788 207.036 300.684 206.388C299.58 205.716 298.716 204.816 298.092 203.688V214.668H293.268V188.136H297.48V191.376C298.176 190.272 299.076 189.408 300.18 188.784C301.284 188.136 302.556 187.812 303.996 187.812C305.268 187.812 306.444 188.076 307.524 188.604C308.604 189.108 309.528 189.804 310.296 190.692C311.088 191.556 311.7 192.588 312.132 193.788C312.588 194.964 312.816 196.212 312.816 197.532C312.816 198.9 312.612 200.184 312.204 201.384C311.796 202.584 311.22 203.628 310.476 204.516C309.756 205.404 308.892 206.1 307.884 206.604C306.876 207.108 305.772 207.36 304.572 207.36ZM302.952 203.256C303.672 203.256 304.332 203.1 304.932 202.788C305.556 202.476 306.084 202.056 306.516 201.528C306.948 201 307.284 200.388 307.524 199.692C307.764 198.996 307.884 198.276 307.884 197.532C307.884 196.74 307.752 196.008 307.488 195.336C307.224 194.64 306.852 194.04 306.372 193.536C305.916 193.032 305.364 192.636 304.716 192.348C304.092 192.06 303.408 191.916 302.664 191.916C302.208 191.916 301.74 192 301.26 192.168C300.78 192.312 300.336 192.528 299.928 192.816C299.52 193.104 299.148 193.44 298.812 193.824C298.5 194.208 298.26 194.628 298.092 195.084V199.512C298.524 200.592 299.184 201.492 300.072 202.212C300.96 202.908 301.92 203.256 302.952 203.256ZM329.549 207.36C328.061 207.36 326.765 207.036 325.661 206.388C324.557 205.716 323.693 204.816 323.069 203.688V214.668H318.245V188.136H322.457V191.376C323.153 190.272 324.053 189.408 325.157 188.784C326.261 188.136 327.533 187.812 328.973 187.812C330.245 187.812 331.421 188.076 332.501 188.604C333.581 189.108 334.505 189.804 335.273 190.692C336.065 191.556 336.677 192.588 337.109 193.788C337.565 194.964 337.793 196.212 337.793 197.532C337.793 198.9 337.589 200.184 337.181 201.384C336.773 202.584 336.197 203.628 335.453 204.516C334.733 205.404 333.869 206.1 332.861 206.604C331.853 207.108 330.749 207.36 329.549 207.36ZM327.929 203.256C328.649 203.256 329.309 203.1 329.909 202.788C330.533 202.476 331.061 202.056 331.493 201.528C331.925 201 332.261 200.388 332.501 199.692C332.741 198.996 332.861 198.276 332.861 197.532C332.861 196.74 332.729 196.008 332.465 195.336C332.201 194.64 331.829 194.04 331.349 193.536C330.893 193.032 330.341 192.636 329.693 192.348C329.069 192.06 328.385 191.916 327.641 191.916C327.185 191.916 326.717 192 326.237 192.168C325.757 192.312 325.313 192.528 324.905 192.816C324.497 193.104 324.125 193.44 323.789 193.824C323.477 194.208 323.237 194.628 323.069 195.084V199.512C323.501 200.592 324.161 201.492 325.049 202.212C325.937 202.908 326.897 203.256 327.929 203.256ZM351.969 207.36C350.457 207.36 349.089 207.108 347.865 206.604C346.641 206.076 345.597 205.368 344.733 204.48C343.869 203.592 343.197 202.56 342.717 201.384C342.261 200.208 342.033 198.972 342.033 197.676C342.033 196.332 342.261 195.072 342.717 193.896C343.173 192.696 343.833 191.652 344.697 190.764C345.561 189.852 346.605 189.132 347.829 188.604C349.077 188.076 350.469 187.812 352.005 187.812C353.541 187.812 354.909 188.076 356.109 188.604C357.333 189.132 358.365 189.84 359.205 190.728C360.069 191.616 360.717 192.648 361.149 193.824C361.605 195 361.833 196.224 361.833 197.496C361.833 197.808 361.821 198.108 361.797 198.396C361.797 198.684 361.773 198.924 361.725 199.116H347.145C347.217 199.86 347.397 200.52 347.685 201.096C347.973 201.672 348.345 202.164 348.801 202.572C349.257 202.98 349.773 203.292 350.349 203.508C350.925 203.724 351.525 203.832 352.149 203.832C353.109 203.832 354.009 203.604 354.849 203.148C355.713 202.668 356.301 202.044 356.613 201.276L360.753 202.428C360.057 203.868 358.941 205.056 357.405 205.992C355.893 206.904 354.081 207.36 351.969 207.36ZM356.865 195.984C356.745 194.568 356.217 193.44 355.281 192.6C354.369 191.736 353.253 191.304 351.933 191.304C351.285 191.304 350.673 191.424 350.097 191.664C349.545 191.88 349.053 192.192 348.621 192.6C348.189 193.008 347.829 193.5 347.541 194.076C347.277 194.652 347.121 195.288 347.073 195.984H356.865ZM374.744 207.36C373.448 207.36 372.248 207.108 371.144 206.604C370.04 206.1 369.092 205.404 368.3 204.516C367.508 203.628 366.884 202.596 366.428 201.42C365.996 200.22 365.78 198.936 365.78 197.568C365.78 196.2 365.984 194.928 366.392 193.752C366.824 192.576 367.412 191.544 368.156 190.656C368.9 189.768 369.788 189.072 370.82 188.568C371.852 188.064 372.98 187.812 374.204 187.812C375.596 187.812 376.844 188.148 377.948 188.82C379.076 189.492 379.952 190.368 380.576 191.448V180.72H385.4V201.456C385.4 201.96 385.484 202.32 385.652 202.536C385.82 202.752 386.108 202.872 386.516 202.896V207C385.676 207.168 384.992 207.252 384.464 207.252C383.6 207.252 382.892 207.036 382.34 206.604C381.788 206.172 381.476 205.608 381.404 204.912L381.296 203.724C380.6 204.924 379.652 205.836 378.452 206.46C377.276 207.06 376.04 207.36 374.744 207.36ZM376.004 203.256C376.46 203.256 376.928 203.184 377.408 203.04C377.888 202.872 378.332 202.644 378.74 202.356C379.148 202.068 379.508 201.732 379.82 201.348C380.156 200.964 380.408 200.544 380.576 200.088V195.588C380.384 195.06 380.108 194.58 379.748 194.148C379.412 193.692 379.016 193.308 378.56 192.996C378.128 192.66 377.66 192.396 377.156 192.204C376.676 192.012 376.196 191.916 375.716 191.916C374.996 191.916 374.324 192.072 373.7 192.384C373.1 192.696 372.584 193.128 372.152 193.68C371.72 194.208 371.384 194.82 371.144 195.516C370.904 196.212 370.784 196.932 370.784 197.676C370.784 198.468 370.916 199.2 371.18 199.872C371.444 200.544 371.804 201.132 372.26 201.636C372.716 202.14 373.256 202.536 373.88 202.824C374.528 203.112 375.236 203.256 376.004 203.256ZM404.256 207V192.816H401.772V189.144H404.256V187.992C404.256 185.64 404.82 183.78 405.948 182.412C407.076 181.044 408.612 180.36 410.556 180.36C412.092 180.36 413.64 180.732 415.2 181.476L414.228 185.112C413.868 184.92 413.436 184.764 412.932 184.644C412.452 184.5 412.008 184.428 411.6 184.428C409.92 184.428 409.08 185.556 409.08 187.812V189.144H413.688V192.816H409.08V207H404.256ZM429.82 192.312C428.356 192.336 427.048 192.624 425.896 193.176C424.744 193.704 423.916 194.508 423.412 195.588V207H418.588V188.136H423.016V192.168C423.352 191.52 423.748 190.944 424.204 190.44C424.66 189.912 425.152 189.456 425.68 189.072C426.208 188.688 426.736 188.4 427.264 188.208C427.816 187.992 428.344 187.884 428.848 187.884C429.112 187.884 429.304 187.884 429.424 187.884C429.568 187.884 429.7 187.896 429.82 187.92V192.312ZM442.433 207.36C440.897 207.36 439.517 207.096 438.293 206.568C437.069 206.04 436.025 205.332 435.161 204.444C434.321 203.532 433.673 202.488 433.217 201.312C432.761 200.136 432.533 198.9 432.533 197.604C432.533 196.284 432.761 195.036 433.217 193.86C433.673 192.684 434.321 191.652 435.161 190.764C436.025 189.852 437.069 189.132 438.293 188.604C439.517 188.076 440.897 187.812 442.433 187.812C443.969 187.812 445.337 188.076 446.537 188.604C447.761 189.132 448.793 189.852 449.633 190.764C450.497 191.652 451.157 192.684 451.613 193.86C452.069 195.036 452.297 196.284 452.297 197.604C452.297 198.9 452.069 200.136 451.613 201.312C451.157 202.488 450.509 203.532 449.669 204.444C448.829 205.332 447.797 206.04 446.573 206.568C445.349 207.096 443.969 207.36 442.433 207.36ZM437.501 197.604C437.501 198.444 437.621 199.212 437.861 199.908C438.125 200.58 438.473 201.168 438.905 201.672C439.361 202.176 439.889 202.572 440.489 202.86C441.089 203.124 441.737 203.256 442.433 203.256C443.129 203.256 443.777 203.124 444.377 202.86C444.977 202.572 445.493 202.176 445.925 201.672C446.381 201.168 446.729 200.568 446.969 199.872C447.233 199.176 447.365 198.408 447.365 197.568C447.365 196.752 447.233 195.996 446.969 195.3C446.729 194.604 446.381 194.004 445.925 193.5C445.493 192.996 444.977 192.612 444.377 192.348C443.777 192.06 443.129 191.916 442.433 191.916C441.737 191.916 441.089 192.06 440.489 192.348C439.889 192.636 439.361 193.032 438.905 193.536C438.473 194.04 438.125 194.64 437.861 195.336C437.621 196.032 437.501 196.788 437.501 197.604ZM487.017 207H482.193V196.416C482.193 194.904 481.929 193.8 481.401 193.104C480.897 192.408 480.189 192.06 479.277 192.06C478.317 192.06 477.417 192.432 476.577 193.176C475.737 193.896 475.137 194.844 474.777 196.02V207H469.953V196.416C469.953 194.904 469.689 193.8 469.161 193.104C468.657 192.408 467.949 192.06 467.037 192.06C466.101 192.06 465.201 192.42 464.337 193.14C463.497 193.86 462.897 194.808 462.537 195.984V207H457.713V188.136H462.069V191.628C462.765 190.404 463.713 189.468 464.913 188.82C466.137 188.148 467.529 187.812 469.089 187.812C470.673 187.812 471.897 188.196 472.761 188.964C473.625 189.732 474.177 190.68 474.417 191.808C475.185 190.512 476.157 189.528 477.333 188.856C478.509 188.16 479.853 187.812 481.365 187.812C482.517 187.812 483.465 188.028 484.209 188.46C484.953 188.892 485.529 189.456 485.937 190.152C486.345 190.848 486.621 191.64 486.765 192.528C486.933 193.416 487.017 194.316 487.017 195.228V207ZM81.008 247.568C81.008 246.248 81.236 245 81.692 243.824C82.148 242.648 82.808 241.616 83.672 240.728C84.536 239.84 85.58 239.132 86.804 238.604C88.028 238.076 89.408 237.812 90.944 237.812C93.008 237.812 94.76 238.256 96.2 239.144C97.664 240.032 98.756 241.196 99.476 242.636L94.76 244.076C94.352 243.38 93.812 242.852 93.14 242.492C92.468 242.108 91.724 241.916 90.908 241.916C90.212 241.916 89.564 242.06 88.964 242.348C88.364 242.612 87.836 242.996 87.38 243.5C86.948 243.98 86.6 244.568 86.336 245.264C86.096 245.96 85.976 246.728 85.976 247.568C85.976 248.408 86.108 249.176 86.372 249.872C86.636 250.568 86.984 251.168 87.416 251.672C87.872 252.176 88.4 252.572 89 252.86C89.6 253.124 90.236 253.256 90.908 253.256C91.772 253.256 92.564 253.04 93.284 252.608C94.028 252.176 94.544 251.648 94.832 251.024L99.548 252.464C98.9 253.904 97.832 255.08 96.344 255.992C94.856 256.904 93.068 257.36 90.98 257.36C89.444 257.36 88.064 257.096 86.84 256.568C85.616 256.04 84.572 255.332 83.708 254.444C82.844 253.532 82.172 252.488 81.692 251.312C81.236 250.112 81.008 248.864 81.008 247.568ZM113.213 257.36C111.677 257.36 110.297 257.096 109.073 256.568C107.849 256.04 106.805 255.332 105.941 254.444C105.101 253.532 104.453 252.488 103.997 251.312C103.541 250.136 103.313 248.9 103.313 247.604C103.313 246.284 103.541 245.036 103.997 243.86C104.453 242.684 105.101 241.652 105.941 240.764C106.805 239.852 107.849 239.132 109.073 238.604C110.297 238.076 111.677 237.812 113.213 237.812C114.749 237.812 116.117 238.076 117.317 238.604C118.541 239.132 119.573 239.852 120.413 240.764C121.277 241.652 121.937 242.684 122.393 243.86C122.849 245.036 123.077 246.284 123.077 247.604C123.077 248.9 122.849 250.136 122.393 251.312C121.937 252.488 121.289 253.532 120.449 254.444C119.609 255.332 118.577 256.04 117.353 256.568C116.129 257.096 114.749 257.36 113.213 257.36ZM108.281 247.604C108.281 248.444 108.401 249.212 108.641 249.908C108.905 250.58 109.253 251.168 109.685 251.672C110.141 252.176 110.669 252.572 111.269 252.86C111.869 253.124 112.517 253.256 113.213 253.256C113.909 253.256 114.557 253.124 115.157 252.86C115.757 252.572 116.273 252.176 116.705 251.672C117.161 251.168 117.509 250.568 117.749 249.872C118.013 249.176 118.145 248.408 118.145 247.568C118.145 246.752 118.013 245.996 117.749 245.3C117.509 244.604 117.161 244.004 116.705 243.5C116.273 242.996 115.757 242.612 115.157 242.348C114.557 242.06 113.909 241.916 113.213 241.916C112.517 241.916 111.869 242.06 111.269 242.348C110.669 242.636 110.141 243.032 109.685 243.536C109.253 244.04 108.905 244.64 108.641 245.336C108.401 246.032 108.281 246.788 108.281 247.604ZM128.457 230.72H133.281V250.952C133.281 251.648 133.449 252.188 133.785 252.572C134.121 252.956 134.601 253.148 135.225 253.148C135.513 253.148 135.825 253.1 136.161 253.004C136.521 252.908 136.857 252.788 137.169 252.644L137.817 256.316C137.169 256.628 136.413 256.868 135.549 257.036C134.685 257.204 133.905 257.288 133.209 257.288C131.697 257.288 130.521 256.892 129.681 256.1C128.865 255.284 128.457 254.132 128.457 252.644V230.72ZM150.79 257.36C149.254 257.36 147.874 257.096 146.65 256.568C145.426 256.04 144.382 255.332 143.518 254.444C142.678 253.532 142.03 252.488 141.574 251.312C141.118 250.136 140.89 248.9 140.89 247.604C140.89 246.284 141.118 245.036 141.574 243.86C142.03 242.684 142.678 241.652 143.518 240.764C144.382 239.852 145.426 239.132 146.65 238.604C147.874 238.076 149.254 237.812 150.79 237.812C152.326 237.812 153.694 238.076 154.894 238.604C156.118 239.132 157.15 239.852 157.99 240.764C158.854 241.652 159.514 242.684 159.97 243.86C160.426 245.036 160.654 246.284 160.654 247.604C160.654 248.9 160.426 250.136 159.97 251.312C159.514 252.488 158.866 253.532 158.026 254.444C157.186 255.332 156.154 256.04 154.93 256.568C153.706 257.096 152.326 257.36 150.79 257.36ZM145.858 247.604C145.858 248.444 145.978 249.212 146.218 249.908C146.482 250.58 146.83 251.168 147.262 251.672C147.718 252.176 148.246 252.572 148.846 252.86C149.446 253.124 150.094 253.256 150.79 253.256C151.486 253.256 152.134 253.124 152.734 252.86C153.334 252.572 153.85 252.176 154.282 251.672C154.738 251.168 155.086 250.568 155.326 249.872C155.59 249.176 155.722 248.408 155.722 247.568C155.722 246.752 155.59 245.996 155.326 245.3C155.086 244.604 154.738 244.004 154.282 243.5C153.85 242.996 153.334 242.612 152.734 242.348C152.134 242.06 151.486 241.916 150.79 241.916C150.094 241.916 149.446 242.06 148.846 242.348C148.246 242.636 147.718 243.032 147.262 243.536C146.83 244.04 146.482 244.64 146.218 245.336C145.978 246.032 145.858 246.788 145.858 247.604ZM171.83 257.36C169.886 257.36 168.41 256.736 167.402 255.488C166.394 254.24 165.89 252.392 165.89 249.944V238.136H170.714V248.9C170.714 251.804 171.758 253.256 173.846 253.256C174.782 253.256 175.682 252.98 176.546 252.428C177.434 251.852 178.154 250.988 178.706 249.836V238.136H183.53V251.456C183.53 251.96 183.614 252.32 183.782 252.536C183.974 252.752 184.274 252.872 184.682 252.896V257C184.202 257.096 183.794 257.156 183.458 257.18C183.146 257.204 182.858 257.216 182.594 257.216C181.73 257.216 181.022 257.024 180.47 256.64C179.942 256.232 179.63 255.68 179.534 254.984L179.426 253.472C178.586 254.768 177.506 255.74 176.186 256.388C174.866 257.036 173.414 257.36 171.83 257.36ZM201.716 242.312C200.252 242.336 198.944 242.624 197.792 243.176C196.64 243.704 195.812 244.508 195.308 245.588V257H190.484V238.136H194.912V242.168C195.248 241.52 195.644 240.944 196.1 240.44C196.556 239.912 197.048 239.456 197.576 239.072C198.104 238.688 198.632 238.4 199.16 238.208C199.712 237.992 200.24 237.884 200.744 237.884C201.008 237.884 201.2 237.884 201.32 237.884C201.464 237.884 201.596 237.896 201.716 237.92V242.312ZM205.346 261.14L206.318 256.856H204.806V251.816H208.982V256.856L207.506 261.14H205.346ZM237.553 257.36C236.065 257.36 234.769 257.036 233.665 256.388C232.561 255.716 231.697 254.816 231.073 253.688V264.668H226.249V238.136H230.461V241.376C231.157 240.272 232.057 239.408 233.161 238.784C234.265 238.136 235.537 237.812 236.977 237.812C238.249 237.812 239.425 238.076 240.505 238.604C241.585 239.108 242.509 239.804 243.277 240.692C244.069 241.556 244.681 242.588 245.113 243.788C245.569 244.964 245.797 246.212 245.797 247.532C245.797 248.9 245.593 250.184 245.185 251.384C244.777 252.584 244.201 253.628 243.457 254.516C242.737 255.404 241.873 256.1 240.865 256.604C239.857 257.108 238.753 257.36 237.553 257.36ZM235.933 253.256C236.653 253.256 237.313 253.1 237.913 252.788C238.537 252.476 239.065 252.056 239.497 251.528C239.929 251 240.265 250.388 240.505 249.692C240.745 248.996 240.865 248.276 240.865 247.532C240.865 246.74 240.733 246.008 240.469 245.336C240.205 244.64 239.833 244.04 239.353 243.536C238.897 243.032 238.345 242.636 237.697 242.348C237.073 242.06 236.389 241.916 235.645 241.916C235.189 241.916 234.721 242 234.241 242.168C233.761 242.312 233.317 242.528 232.909 242.816C232.501 243.104 232.129 243.44 231.793 243.824C231.481 244.208 231.241 244.628 231.073 245.084V249.512C231.505 250.592 232.165 251.492 233.053 252.212C233.941 252.908 234.901 253.256 235.933 253.256ZM256.374 257.36C255.462 257.36 254.61 257.216 253.818 256.928C253.026 256.616 252.342 256.196 251.766 255.668C251.19 255.116 250.734 254.48 250.398 253.76C250.086 253.04 249.93 252.248 249.93 251.384C249.93 250.496 250.122 249.68 250.506 248.936C250.914 248.168 251.466 247.52 252.162 246.992C252.882 246.464 253.734 246.056 254.718 245.768C255.702 245.456 256.782 245.3 257.958 245.3C258.798 245.3 259.614 245.372 260.406 245.516C261.222 245.66 261.942 245.864 262.566 246.128V245.048C262.566 243.8 262.206 242.84 261.486 242.168C260.79 241.496 259.746 241.16 258.354 241.16C257.346 241.16 256.362 241.34 255.402 241.7C254.442 242.06 253.458 242.588 252.45 243.284L250.974 240.224C253.398 238.616 256.014 237.812 258.822 237.812C261.534 237.812 263.634 238.484 265.122 239.828C266.634 241.148 267.39 243.068 267.39 245.588V251.456C267.39 251.96 267.474 252.32 267.642 252.536C267.834 252.752 268.134 252.872 268.542 252.896V257C267.726 257.168 267.018 257.252 266.418 257.252C265.506 257.252 264.798 257.048 264.294 256.64C263.814 256.232 263.514 255.692 263.394 255.02L263.286 253.976C262.446 255.08 261.426 255.92 260.226 256.496C259.026 257.072 257.742 257.36 256.374 257.36ZM257.742 253.832C258.558 253.832 259.326 253.688 260.046 253.4C260.79 253.112 261.366 252.728 261.774 252.248C262.302 251.84 262.566 251.384 262.566 250.88V248.72C261.99 248.504 261.366 248.336 260.694 248.216C260.022 248.072 259.374 248 258.75 248C257.502 248 256.482 248.288 255.69 248.864C254.898 249.416 254.502 250.124 254.502 250.988C254.502 251.804 254.814 252.488 255.438 253.04C256.062 253.568 256.83 253.832 257.742 253.832ZM285.29 242.312C283.826 242.336 282.518 242.624 281.366 243.176C280.214 243.704 279.386 244.508 278.882 245.588V257H274.058V238.136H278.486V242.168C278.822 241.52 279.218 240.944 279.674 240.44C280.13 239.912 280.622 239.456 281.15 239.072C281.678 238.688 282.206 238.4 282.734 238.208C283.286 237.992 283.814 237.884 284.318 237.884C284.582 237.884 284.774 237.884 284.894 237.884C285.038 237.884 285.17 237.896 285.29 237.92V242.312ZM295.041 257.36C294.129 257.36 293.277 257.216 292.485 256.928C291.693 256.616 291.009 256.196 290.433 255.668C289.857 255.116 289.401 254.48 289.065 253.76C288.753 253.04 288.597 252.248 288.597 251.384C288.597 250.496 288.789 249.68 289.173 248.936C289.581 248.168 290.133 247.52 290.829 246.992C291.549 246.464 292.401 246.056 293.385 245.768C294.369 245.456 295.449 245.3 296.625 245.3C297.465 245.3 298.281 245.372 299.073 245.516C299.889 245.66 300.609 245.864 301.233 246.128V245.048C301.233 243.8 300.873 242.84 300.153 242.168C299.457 241.496 298.413 241.16 297.021 241.16C296.013 241.16 295.029 241.34 294.069 241.7C293.109 242.06 292.125 242.588 291.117 243.284L289.641 240.224C292.065 238.616 294.681 237.812 297.489 237.812C300.201 237.812 302.301 238.484 303.789 239.828C305.301 241.148 306.057 243.068 306.057 245.588V251.456C306.057 251.96 306.141 252.32 306.309 252.536C306.501 252.752 306.801 252.872 307.209 252.896V257C306.393 257.168 305.685 257.252 305.085 257.252C304.173 257.252 303.465 257.048 302.961 256.64C302.481 256.232 302.181 255.692 302.061 255.02L301.953 253.976C301.113 255.08 300.093 255.92 298.893 256.496C297.693 257.072 296.409 257.36 295.041 257.36ZM296.409 253.832C297.225 253.832 297.993 253.688 298.713 253.4C299.457 253.112 300.033 252.728 300.441 252.248C300.969 251.84 301.233 251.384 301.233 250.88V248.72C300.657 248.504 300.033 248.336 299.361 248.216C298.689 248.072 298.041 248 297.417 248C296.169 248 295.149 248.288 294.357 248.864C293.565 249.416 293.169 250.124 293.169 250.988C293.169 251.804 293.481 252.488 294.105 253.04C294.729 253.568 295.497 253.832 296.409 253.832ZM312.689 230.72H317.513V250.952C317.513 251.648 317.681 252.188 318.017 252.572C318.353 252.956 318.833 253.148 319.457 253.148C319.745 253.148 320.057 253.1 320.393 253.004C320.753 252.908 321.089 252.788 321.401 252.644L322.049 256.316C321.401 256.628 320.645 256.868 319.781 257.036C318.917 257.204 318.137 257.288 317.441 257.288C315.929 257.288 314.753 256.892 313.913 256.1C313.097 255.284 312.689 254.132 312.689 252.644V230.72ZM326.275 230.72H331.099V250.952C331.099 251.648 331.267 252.188 331.603 252.572C331.939 252.956 332.419 253.148 333.043 253.148C333.331 253.148 333.643 253.1 333.979 253.004C334.339 252.908 334.675 252.788 334.987 252.644L335.635 256.316C334.987 256.628 334.231 256.868 333.367 257.036C332.503 257.204 331.723 257.288 331.027 257.288C329.515 257.288 328.339 256.892 327.499 256.1C326.683 255.284 326.275 254.132 326.275 252.644V230.72ZM348.645 257.36C347.133 257.36 345.765 257.108 344.541 256.604C343.317 256.076 342.273 255.368 341.409 254.48C340.545 253.592 339.873 252.56 339.393 251.384C338.937 250.208 338.709 248.972 338.709 247.676C338.709 246.332 338.937 245.072 339.393 243.896C339.849 242.696 340.509 241.652 341.373 240.764C342.237 239.852 343.281 239.132 344.505 238.604C345.753 238.076 347.145 237.812 348.681 237.812C350.217 237.812 351.585 238.076 352.785 238.604C354.009 239.132 355.041 239.84 355.881 240.728C356.745 241.616 357.393 242.648 357.825 243.824C358.281 245 358.509 246.224 358.509 247.496C358.509 247.808 358.497 248.108 358.473 248.396C358.473 248.684 358.449 248.924 358.401 249.116H343.821C343.893 249.86 344.073 250.52 344.361 251.096C344.649 251.672 345.021 252.164 345.477 252.572C345.933 252.98 346.449 253.292 347.025 253.508C347.601 253.724 348.201 253.832 348.825 253.832C349.785 253.832 350.685 253.604 351.525 253.148C352.389 252.668 352.977 252.044 353.289 251.276L357.429 252.428C356.733 253.868 355.617 255.056 354.081 255.992C352.569 256.904 350.757 257.36 348.645 257.36ZM353.541 245.984C353.421 244.568 352.893 243.44 351.957 242.6C351.045 241.736 349.929 241.304 348.609 241.304C347.961 241.304 347.349 241.424 346.773 241.664C346.221 241.88 345.729 242.192 345.297 242.6C344.865 243.008 344.505 243.5 344.217 244.076C343.953 244.652 343.797 245.288 343.749 245.984H353.541ZM363.572 230.72H368.396V250.952C368.396 251.648 368.564 252.188 368.9 252.572C369.236 252.956 369.716 253.148 370.34 253.148C370.628 253.148 370.94 253.1 371.276 253.004C371.636 252.908 371.972 252.788 372.284 252.644L372.932 256.316C372.284 256.628 371.528 256.868 370.664 257.036C369.8 257.204 369.02 257.288 368.324 257.288C366.812 257.288 365.636 256.892 364.796 256.1C363.98 255.284 363.572 254.132 363.572 252.644V230.72ZM385.941 257.36C384.429 257.36 383.061 257.108 381.837 256.604C380.613 256.076 379.569 255.368 378.705 254.48C377.841 253.592 377.169 252.56 376.689 251.384C376.233 250.208 376.005 248.972 376.005 247.676C376.005 246.332 376.233 245.072 376.689 243.896C377.145 242.696 377.805 241.652 378.669 240.764C379.533 239.852 380.577 239.132 381.801 238.604C383.049 238.076 384.441 237.812 385.977 237.812C387.513 237.812 388.881 238.076 390.081 238.604C391.305 239.132 392.337 239.84 393.177 240.728C394.041 241.616 394.689 242.648 395.121 243.824C395.577 245 395.805 246.224 395.805 247.496C395.805 247.808 395.793 248.108 395.769 248.396C395.769 248.684 395.745 248.924 395.697 249.116H381.117C381.189 249.86 381.369 250.52 381.657 251.096C381.945 251.672 382.317 252.164 382.773 252.572C383.229 252.98 383.745 253.292 384.321 253.508C384.897 253.724 385.497 253.832 386.121 253.832C387.081 253.832 387.981 253.604 388.821 253.148C389.685 252.668 390.273 252.044 390.585 251.276L394.725 252.428C394.029 253.868 392.913 255.056 391.377 255.992C389.865 256.904 388.053 257.36 385.941 257.36ZM390.837 245.984C390.717 244.568 390.189 243.44 389.253 242.6C388.341 241.736 387.225 241.304 385.905 241.304C385.257 241.304 384.645 241.424 384.069 241.664C383.517 241.88 383.025 242.192 382.593 242.6C382.161 243.008 381.801 243.5 381.513 244.076C381.249 244.652 381.093 245.288 381.045 245.984H390.837ZM408.716 257.36C407.42 257.36 406.22 257.108 405.116 256.604C404.012 256.1 403.064 255.404 402.272 254.516C401.48 253.628 400.856 252.596 400.4 251.42C399.968 250.22 399.752 248.936 399.752 247.568C399.752 246.2 399.956 244.928 400.364 243.752C400.796 242.576 401.384 241.544 402.128 240.656C402.872 239.768 403.76 239.072 404.792 238.568C405.824 238.064 406.952 237.812 408.176 237.812C409.568 237.812 410.816 238.148 411.92 238.82C413.048 239.492 413.924 240.368 414.548 241.448V230.72H419.372V251.456C419.372 251.96 419.456 252.32 419.624 252.536C419.792 252.752 420.08 252.872 420.488 252.896V257C419.648 257.168 418.964 257.252 418.436 257.252C417.572 257.252 416.864 257.036 416.312 256.604C415.76 256.172 415.448 255.608 415.376 254.912L415.268 253.724C414.572 254.924 413.624 255.836 412.424 256.46C411.248 257.06 410.012 257.36 408.716 257.36ZM409.976 253.256C410.432 253.256 410.9 253.184 411.38 253.04C411.86 252.872 412.304 252.644 412.712 252.356C413.12 252.068 413.48 251.732 413.792 251.348C414.128 250.964 414.38 250.544 414.548 250.088V245.588C414.356 245.06 414.08 244.58 413.72 244.148C413.384 243.692 412.988 243.308 412.532 242.996C412.1 242.66 411.632 242.396 411.128 242.204C410.648 242.012 410.168 241.916 409.688 241.916C408.968 241.916 408.296 242.072 407.672 242.384C407.072 242.696 406.556 243.128 406.124 243.68C405.692 244.208 405.356 244.82 405.116 245.516C404.876 246.212 404.756 246.932 404.756 247.676C404.756 248.468 404.888 249.2 405.152 249.872C405.416 250.544 405.776 251.132 406.232 251.636C406.688 252.14 407.228 252.536 407.852 252.824C408.5 253.112 409.208 253.256 409.976 253.256ZM82.196 307V288.136H87.02V307H82.196ZM82.196 285.508V280.72H87.02V285.508H82.196ZM111.064 307H106.24V296.416C106.24 294.904 105.976 293.8 105.448 293.104C104.92 292.408 104.188 292.06 103.252 292.06C102.772 292.06 102.28 292.156 101.776 292.348C101.272 292.54 100.792 292.816 100.336 293.176C99.9038 293.512 99.5078 293.92 99.1478 294.4C98.7878 294.88 98.5238 295.408 98.3558 295.984V307H93.5318V288.136H97.8878V291.628C98.5838 290.428 99.5918 289.492 100.912 288.82C102.232 288.148 103.72 287.812 105.376 287.812C106.552 287.812 107.512 288.028 108.256 288.46C109 288.892 109.576 289.456 109.984 290.152C110.392 290.848 110.668 291.64 110.812 292.528C110.98 293.416 111.064 294.316 111.064 295.228V307ZM128.547 306.028C127.899 306.316 127.107 306.604 126.171 306.892C125.235 307.18 124.251 307.324 123.219 307.324C122.547 307.324 121.911 307.24 121.311 307.072C120.735 306.904 120.219 306.64 119.763 306.28C119.331 305.896 118.983 305.416 118.719 304.84C118.455 304.24 118.323 303.52 118.323 302.68V291.844H115.839V288.136H118.323V282.016H123.147V288.136H127.107V291.844H123.147V301.06C123.147 301.732 123.315 302.212 123.651 302.5C124.011 302.764 124.443 302.896 124.947 302.896C125.451 302.896 125.943 302.812 126.423 302.644C126.903 302.476 127.287 302.332 127.575 302.212L128.547 306.028ZM141.474 307.36C139.938 307.36 138.558 307.096 137.334 306.568C136.11 306.04 135.066 305.332 134.202 304.444C133.362 303.532 132.714 302.488 132.258 301.312C131.802 300.136 131.574 298.9 131.574 297.604C131.574 296.284 131.802 295.036 132.258 293.86C132.714 292.684 133.362 291.652 134.202 290.764C135.066 289.852 136.11 289.132 137.334 288.604C138.558 288.076 139.938 287.812 141.474 287.812C143.01 287.812 144.378 288.076 145.578 288.604C146.802 289.132 147.834 289.852 148.674 290.764C149.538 291.652 150.198 292.684 150.654 293.86C151.11 295.036 151.338 296.284 151.338 297.604C151.338 298.9 151.11 300.136 150.654 301.312C150.198 302.488 149.55 303.532 148.71 304.444C147.87 305.332 146.838 306.04 145.614 306.568C144.39 307.096 143.01 307.36 141.474 307.36ZM136.542 297.604C136.542 298.444 136.662 299.212 136.902 299.908C137.166 300.58 137.514 301.168 137.946 301.672C138.402 302.176 138.93 302.572 139.53 302.86C140.13 303.124 140.778 303.256 141.474 303.256C142.17 303.256 142.818 303.124 143.418 302.86C144.018 302.572 144.534 302.176 144.966 301.672C145.422 301.168 145.77 300.568 146.01 299.872C146.274 299.176 146.406 298.408 146.406 297.568C146.406 296.752 146.274 295.996 146.01 295.3C145.77 294.604 145.422 294.004 144.966 293.5C144.534 292.996 144.018 292.612 143.418 292.348C142.818 292.06 142.17 291.916 141.474 291.916C140.778 291.916 140.13 292.06 139.53 292.348C138.93 292.636 138.402 293.032 137.946 293.536C137.514 294.04 137.166 294.64 136.902 295.336C136.662 296.032 136.542 296.788 136.542 297.604ZM178.29 307.36C176.85 307.36 175.566 307.036 174.438 306.388C173.31 305.74 172.422 304.852 171.774 303.724V307H167.562V280.72H172.386V291.448C173.058 290.296 173.934 289.408 175.014 288.784C176.118 288.136 177.402 287.812 178.866 287.812C180.09 287.812 181.206 288.076 182.214 288.604C183.222 289.132 184.086 289.84 184.806 290.728C185.55 291.616 186.114 292.66 186.498 293.86C186.906 295.06 187.11 296.32 187.11 297.64C187.11 299.008 186.882 300.28 186.426 301.456C185.994 302.632 185.382 303.664 184.59 304.552C183.798 305.416 182.862 306.1 181.782 306.604C180.702 307.108 179.538 307.36 178.29 307.36ZM176.958 303.256C177.726 303.256 178.434 303.112 179.082 302.824C179.73 302.512 180.282 302.104 180.738 301.6C181.194 301.096 181.542 300.508 181.782 299.836C182.046 299.164 182.178 298.444 182.178 297.676C182.178 296.908 182.058 296.176 181.818 295.48C181.578 294.784 181.23 294.172 180.774 293.644C180.342 293.116 179.826 292.696 179.226 292.384C178.626 292.072 177.966 291.916 177.246 291.916C176.166 291.916 175.194 292.276 174.33 292.996C173.49 293.692 172.842 294.556 172.386 295.588V300.088C172.554 300.568 172.794 301 173.106 301.384C173.442 301.768 173.814 302.104 174.222 302.392C174.63 302.656 175.074 302.872 175.554 303.04C176.034 303.184 176.502 303.256 176.958 303.256ZM192.503 280.72H197.327V300.952C197.327 301.648 197.495 302.188 197.831 302.572C198.167 302.956 198.647 303.148 199.271 303.148C199.559 303.148 199.871 303.1 200.207 303.004C200.567 302.908 200.903 302.788 201.215 302.644L201.863 306.316C201.215 306.628 200.459 306.868 199.595 307.036C198.731 307.204 197.951 307.288 197.255 307.288C195.743 307.288 194.567 306.892 193.727 306.1C192.911 305.284 192.503 304.132 192.503 302.644V280.72ZM211.273 307.36C210.361 307.36 209.509 307.216 208.717 306.928C207.925 306.616 207.241 306.196 206.665 305.668C206.089 305.116 205.633 304.48 205.297 303.76C204.985 303.04 204.829 302.248 204.829 301.384C204.829 300.496 205.021 299.68 205.405 298.936C205.813 298.168 206.365 297.52 207.061 296.992C207.781 296.464 208.633 296.056 209.617 295.768C210.601 295.456 211.681 295.3 212.857 295.3C213.697 295.3 214.513 295.372 215.305 295.516C216.121 295.66 216.841 295.864 217.465 296.128V295.048C217.465 293.8 217.105 292.84 216.385 292.168C215.689 291.496 214.645 291.16 213.253 291.16C212.245 291.16 211.261 291.34 210.301 291.7C209.341 292.06 208.357 292.588 207.349 293.284L205.873 290.224C208.297 288.616 210.913 287.812 213.721 287.812C216.433 287.812 218.533 288.484 220.021 289.828C221.533 291.148 222.289 293.068 222.289 295.588V301.456C222.289 301.96 222.373 302.32 222.541 302.536C222.733 302.752 223.033 302.872 223.441 302.896V307C222.625 307.168 221.917 307.252 221.317 307.252C220.405 307.252 219.697 307.048 219.193 306.64C218.713 306.232 218.413 305.692 218.293 305.02L218.185 303.976C217.345 305.08 216.325 305.92 215.125 306.496C213.925 307.072 212.641 307.36 211.273 307.36ZM212.641 303.832C213.457 303.832 214.225 303.688 214.945 303.4C215.689 303.112 216.265 302.728 216.673 302.248C217.201 301.84 217.465 301.384 217.465 300.88V298.72C216.889 298.504 216.265 298.336 215.593 298.216C214.921 298.072 214.273 298 213.649 298C212.401 298 211.381 298.288 210.589 298.864C209.797 299.416 209.401 300.124 209.401 300.988C209.401 301.804 209.713 302.488 210.337 303.04C210.961 303.568 211.729 303.832 212.641 303.832ZM227.768 297.568C227.768 296.248 227.996 295 228.452 293.824C228.908 292.648 229.568 291.616 230.432 290.728C231.296 289.84 232.34 289.132 233.564 288.604C234.788 288.076 236.168 287.812 237.704 287.812C239.768 287.812 241.52 288.256 242.96 289.144C244.424 290.032 245.516 291.196 246.236 292.636L241.52 294.076C241.112 293.38 240.572 292.852 239.9 292.492C239.228 292.108 238.484 291.916 237.668 291.916C236.972 291.916 236.324 292.06 235.724 292.348C235.124 292.612 234.596 292.996 234.14 293.5C233.708 293.98 233.36 294.568 233.096 295.264C232.856 295.96 232.736 296.728 232.736 297.568C232.736 298.408 232.868 299.176 233.132 299.872C233.396 300.568 233.744 301.168 234.176 301.672C234.632 302.176 235.16 302.572 235.76 302.86C236.36 303.124 236.996 303.256 237.668 303.256C238.532 303.256 239.324 303.04 240.044 302.608C240.788 302.176 241.304 301.648 241.592 301.024L246.308 302.464C245.66 303.904 244.592 305.08 243.104 305.992C241.616 306.904 239.828 307.36 237.74 307.36C236.204 307.36 234.824 307.096 233.6 306.568C232.376 306.04 231.332 305.332 230.468 304.444C229.604 303.532 228.932 302.488 228.452 301.312C227.996 300.112 227.768 298.864 227.768 297.568ZM264.325 307L258.853 298.828L256.261 301.384V307H251.437V280.72H256.261V296.668L263.821 288.172H268.969L261.949 296.164L269.473 307H264.325ZM289.627 307.36C288.715 307.36 287.863 307.216 287.071 306.928C286.279 306.616 285.595 306.196 285.019 305.668C284.443 305.116 283.987 304.48 283.651 303.76C283.339 303.04 283.183 302.248 283.183 301.384C283.183 300.496 283.375 299.68 283.759 298.936C284.167 298.168 284.719 297.52 285.415 296.992C286.135 296.464 286.987 296.056 287.971 295.768C288.955 295.456 290.035 295.3 291.211 295.3C292.051 295.3 292.867 295.372 293.659 295.516C294.475 295.66 295.195 295.864 295.819 296.128V295.048C295.819 293.8 295.459 292.84 294.739 292.168C294.043 291.496 292.999 291.16 291.607 291.16C290.599 291.16 289.615 291.34 288.655 291.7C287.695 292.06 286.711 292.588 285.703 293.284L284.227 290.224C286.651 288.616 289.267 287.812 292.075 287.812C294.787 287.812 296.887 288.484 298.375 289.828C299.887 291.148 300.643 293.068 300.643 295.588V301.456C300.643 301.96 300.727 302.32 300.895 302.536C301.087 302.752 301.387 302.872 301.795 302.896V307C300.979 307.168 300.271 307.252 299.671 307.252C298.759 307.252 298.051 307.048 297.547 306.64C297.067 306.232 296.767 305.692 296.647 305.02L296.539 303.976C295.699 305.08 294.679 305.92 293.479 306.496C292.279 307.072 290.995 307.36 289.627 307.36ZM290.995 303.832C291.811 303.832 292.579 303.688 293.299 303.4C294.043 303.112 294.619 302.728 295.027 302.248C295.555 301.84 295.819 301.384 295.819 300.88V298.72C295.243 298.504 294.619 298.336 293.947 298.216C293.275 298.072 292.627 298 292.003 298C290.755 298 289.735 298.288 288.943 298.864C288.151 299.416 287.755 300.124 287.755 300.988C287.755 301.804 288.067 302.488 288.691 303.04C289.315 303.568 290.083 303.832 290.995 303.832ZM324.843 307H320.019V296.416C320.019 294.904 319.755 293.8 319.227 293.104C318.699 292.408 317.967 292.06 317.031 292.06C316.551 292.06 316.059 292.156 315.555 292.348C315.051 292.54 314.571 292.816 314.115 293.176C313.683 293.512 313.287 293.92 312.927 294.4C312.567 294.88 312.303 295.408 312.135 295.984V307H307.311V288.136H311.667V291.628C312.363 290.428 313.371 289.492 314.691 288.82C316.011 288.148 317.499 287.812 319.155 287.812C320.331 287.812 321.291 288.028 322.035 288.46C322.779 288.892 323.355 289.456 323.763 290.152C324.171 290.848 324.447 291.64 324.591 292.528C324.759 293.416 324.843 294.316 324.843 295.228V307ZM339.01 307.36C337.714 307.36 336.514 307.108 335.41 306.604C334.306 306.1 333.358 305.404 332.566 304.516C331.774 303.628 331.15 302.596 330.694 301.42C330.262 300.22 330.046 298.936 330.046 297.568C330.046 296.2 330.25 294.928 330.658 293.752C331.09 292.576 331.678 291.544 332.422 290.656C333.166 289.768 334.054 289.072 335.086 288.568C336.118 288.064 337.246 287.812 338.47 287.812C339.862 287.812 341.11 288.148 342.214 288.82C343.342 289.492 344.218 290.368 344.842 291.448V280.72H349.666V301.456C349.666 301.96 349.75 302.32 349.918 302.536C350.086 302.752 350.374 302.872 350.782 302.896V307C349.942 307.168 349.258 307.252 348.73 307.252C347.866 307.252 347.158 307.036 346.606 306.604C346.054 306.172 345.742 305.608 345.67 304.912L345.562 303.724C344.866 304.924 343.918 305.836 342.718 306.46C341.542 307.06 340.306 307.36 339.01 307.36ZM340.27 303.256C340.726 303.256 341.194 303.184 341.674 303.04C342.154 302.872 342.598 302.644 343.006 302.356C343.414 302.068 343.774 301.732 344.086 301.348C344.422 300.964 344.674 300.544 344.842 300.088V295.588C344.65 295.06 344.374 294.58 344.014 294.148C343.678 293.692 343.282 293.308 342.826 292.996C342.394 292.66 341.926 292.396 341.422 292.204C340.942 292.012 340.462 291.916 339.982 291.916C339.262 291.916 338.59 292.072 337.966 292.384C337.366 292.696 336.85 293.128 336.418 293.68C335.986 294.208 335.65 294.82 335.41 295.516C335.17 296.212 335.05 296.932 335.05 297.676C335.05 298.468 335.182 299.2 335.446 299.872C335.71 300.544 336.07 301.132 336.526 301.636C336.982 302.14 337.522 302.536 338.146 302.824C338.794 303.112 339.502 303.256 340.27 303.256ZM389.785 288.136H394.357L386.473 307H382.513L379.273 298.72L376.069 307H372.109L364.261 288.136H368.797L374.413 302.464L376.717 296.344L373.405 288.172H377.293L379.273 293.968L381.289 288.172H385.177L381.901 296.344L384.169 302.464L389.785 288.136ZM416.276 307H411.452V296.416C411.452 294.928 411.176 293.836 410.624 293.14C410.072 292.42 409.292 292.06 408.284 292.06C407.852 292.06 407.396 292.156 406.916 292.348C406.436 292.54 405.98 292.816 405.548 293.176C405.116 293.512 404.72 293.92 404.36 294.4C404 294.88 403.736 295.408 403.568 295.984V307H398.744V280.72H403.568V291.628C404.264 290.404 405.2 289.468 406.376 288.82C407.576 288.148 408.896 287.812 410.336 287.812C411.56 287.812 412.556 288.028 413.324 288.46C414.092 288.868 414.692 289.42 415.124 290.116C415.556 290.812 415.856 291.604 416.024 292.492C416.192 293.38 416.276 294.292 416.276 295.228V307ZM422.631 307V288.136H427.455V307H422.631ZM422.631 285.508V280.72H427.455V285.508H422.631ZM445.271 306.028C444.623 306.316 443.831 306.604 442.895 306.892C441.959 307.18 440.975 307.324 439.943 307.324C439.271 307.324 438.635 307.24 438.035 307.072C437.459 306.904 436.943 306.64 436.487 306.28C436.055 305.896 435.707 305.416 435.443 304.84C435.179 304.24 435.047 303.52 435.047 302.68V291.844H432.563V288.136H435.047V282.016H439.871V288.136H443.831V291.844H439.871V301.06C439.871 301.732 440.039 302.212 440.375 302.5C440.735 302.764 441.167 302.896 441.671 302.896C442.175 302.896 442.667 302.812 443.147 302.644C443.627 302.476 444.011 302.332 444.299 302.212L445.271 306.028ZM458.234 307.36C456.722 307.36 455.354 307.108 454.13 306.604C452.906 306.076 451.862 305.368 450.998 304.48C450.134 303.592 449.462 302.56 448.982 301.384C448.526 300.208 448.298 298.972 448.298 297.676C448.298 296.332 448.526 295.072 448.982 293.896C449.438 292.696 450.098 291.652 450.962 290.764C451.826 289.852 452.87 289.132 454.094 288.604C455.342 288.076 456.734 287.812 458.27 287.812C459.806 287.812 461.174 288.076 462.374 288.604C463.598 289.132 464.63 289.84 465.47 290.728C466.334 291.616 466.982 292.648 467.414 293.824C467.87 295 468.098 296.224 468.098 297.496C468.098 297.808 468.086 298.108 468.062 298.396C468.062 298.684 468.038 298.924 467.99 299.116H453.41C453.482 299.86 453.662 300.52 453.95 301.096C454.238 301.672 454.61 302.164 455.066 302.572C455.522 302.98 456.038 303.292 456.614 303.508C457.19 303.724 457.79 303.832 458.414 303.832C459.374 303.832 460.274 303.604 461.114 303.148C461.978 302.668 462.566 302.044 462.878 301.276L467.018 302.428C466.322 303.868 465.206 305.056 463.67 305.992C462.158 306.904 460.346 307.36 458.234 307.36ZM463.13 295.984C463.01 294.568 462.482 293.44 461.546 292.6C460.634 291.736 459.518 291.304 458.198 291.304C457.55 291.304 456.938 291.424 456.362 291.664C455.81 291.88 455.318 292.192 454.886 292.6C454.454 293.008 454.094 293.5 453.806 294.076C453.542 294.652 453.386 295.288 453.338 295.984H463.13ZM473.593 293.536V288.352H477.553V293.536H473.593ZM474.097 311.14L475.069 306.856H473.557V301.816H477.769V306.856L476.293 311.14H474.097ZM90.008 357.36C88.712 357.36 87.512 357.108 86.408 356.604C85.304 356.1 84.356 355.404 83.564 354.516C82.772 353.628 82.148 352.596 81.692 351.42C81.26 350.22 81.044 348.936 81.044 347.568C81.044 346.2 81.248 344.928 81.656 343.752C82.088 342.576 82.676 341.544 83.42 340.656C84.164 339.768 85.052 339.072 86.084 338.568C87.116 338.064 88.244 337.812 89.468 337.812C90.86 337.812 92.108 338.148 93.212 338.82C94.34 339.492 95.216 340.368 95.84 341.448V330.72H100.664V351.456C100.664 351.96 100.748 352.32 100.916 352.536C101.084 352.752 101.372 352.872 101.78 352.896V357C100.94 357.168 100.256 357.252 99.728 357.252C98.864 357.252 98.156 357.036 97.604 356.604C97.052 356.172 96.74 355.608 96.668 354.912L96.56 353.724C95.864 354.924 94.916 355.836 93.716 356.46C92.54 357.06 91.304 357.36 90.008 357.36ZM91.268 353.256C91.724 353.256 92.192 353.184 92.672 353.04C93.152 352.872 93.596 352.644 94.004 352.356C94.412 352.068 94.772 351.732 95.084 351.348C95.42 350.964 95.672 350.544 95.84 350.088V345.588C95.648 345.06 95.372 344.58 95.012 344.148C94.676 343.692 94.28 343.308 93.824 342.996C93.392 342.66 92.924 342.396 92.42 342.204C91.94 342.012 91.46 341.916 90.98 341.916C90.26 341.916 89.588 342.072 88.964 342.384C88.364 342.696 87.848 343.128 87.416 343.68C86.984 344.208 86.648 344.82 86.408 345.516C86.168 346.212 86.048 346.932 86.048 347.676C86.048 348.468 86.18 349.2 86.444 349.872C86.708 350.544 87.068 351.132 87.524 351.636C87.98 352.14 88.52 352.536 89.144 352.824C89.792 353.112 90.5 353.256 91.268 353.256ZM116.307 357.36C114.795 357.36 113.427 357.108 112.203 356.604C110.979 356.076 109.935 355.368 109.071 354.48C108.207 353.592 107.535 352.56 107.055 351.384C106.599 350.208 106.371 348.972 106.371 347.676C106.371 346.332 106.599 345.072 107.055 343.896C107.511 342.696 108.171 341.652 109.035 340.764C109.899 339.852 110.943 339.132 112.167 338.604C113.415 338.076 114.807 337.812 116.343 337.812C117.879 337.812 119.247 338.076 120.447 338.604C121.671 339.132 122.703 339.84 123.543 340.728C124.407 341.616 125.055 342.648 125.487 343.824C125.943 345 126.171 346.224 126.171 347.496C126.171 347.808 126.159 348.108 126.135 348.396C126.135 348.684 126.111 348.924 126.063 349.116H111.483C111.555 349.86 111.735 350.52 112.023 351.096C112.311 351.672 112.683 352.164 113.139 352.572C113.595 352.98 114.111 353.292 114.687 353.508C115.263 353.724 115.863 353.832 116.487 353.832C117.447 353.832 118.347 353.604 119.187 353.148C120.051 352.668 120.639 352.044 120.951 351.276L125.091 352.428C124.395 353.868 123.279 355.056 121.743 355.992C120.231 356.904 118.419 357.36 116.307 357.36ZM121.203 345.984C121.083 344.568 120.555 343.44 119.619 342.6C118.707 341.736 117.591 341.304 116.271 341.304C115.623 341.304 115.011 341.424 114.435 341.664C113.883 341.88 113.391 342.192 112.959 342.6C112.527 343.008 112.167 343.5 111.879 344.076C111.615 344.652 111.459 345.288 111.411 345.984H121.203ZM138.398 357.36C136.814 357.36 135.266 357.108 133.754 356.604C132.242 356.1 130.946 355.38 129.866 354.444L131.666 351.42C132.818 352.236 133.934 352.86 135.014 353.292C136.118 353.7 137.21 353.904 138.29 353.904C139.25 353.904 140.006 353.724 140.558 353.364C141.11 353.004 141.386 352.488 141.386 351.816C141.386 351.144 141.062 350.652 140.414 350.34C139.766 350.028 138.71 349.668 137.246 349.26C136.022 348.924 134.978 348.6 134.114 348.288C133.25 347.976 132.554 347.628 132.026 347.244C131.498 346.836 131.114 346.38 130.874 345.876C130.634 345.348 130.514 344.724 130.514 344.004C130.514 343.044 130.694 342.18 131.054 341.412C131.438 340.644 131.966 339.996 132.638 339.468C133.31 338.916 134.09 338.496 134.978 338.208C135.89 337.92 136.874 337.776 137.93 337.776C139.346 337.776 140.666 337.98 141.89 338.388C143.138 338.796 144.278 339.456 145.31 340.368L143.366 343.284C142.406 342.564 141.47 342.036 140.558 341.7C139.67 341.364 138.782 341.196 137.894 341.196C137.078 341.196 136.394 341.364 135.842 341.7C135.29 342.036 135.014 342.576 135.014 343.32C135.014 343.656 135.074 343.932 135.194 344.148C135.338 344.364 135.554 344.556 135.842 344.724C136.13 344.892 136.502 345.06 136.958 345.228C137.438 345.372 138.026 345.528 138.722 345.696C140.018 346.032 141.122 346.368 142.034 346.704C142.97 347.04 143.726 347.424 144.302 347.856C144.902 348.288 145.334 348.792 145.598 349.368C145.886 349.92 146.03 350.592 146.03 351.384C146.03 353.232 145.346 354.696 143.978 355.776C142.61 356.832 140.75 357.36 138.398 357.36ZM162.628 356.028C161.98 356.316 161.188 356.604 160.252 356.892C159.316 357.18 158.332 357.324 157.3 357.324C156.628 357.324 155.992 357.24 155.392 357.072C154.816 356.904 154.3 356.64 153.844 356.28C153.412 355.896 153.064 355.416 152.8 354.84C152.536 354.24 152.404 353.52 152.404 352.68V341.844H149.92V338.136H152.404V332.016H157.228V338.136H161.188V341.844H157.228V351.06C157.228 351.732 157.396 352.212 157.732 352.5C158.092 352.764 158.524 352.896 159.028 352.896C159.532 352.896 160.024 352.812 160.504 352.644C160.984 352.476 161.368 352.332 161.656 352.212L162.628 356.028ZM167.301 357V338.136H172.125V357H167.301ZM167.301 335.508V330.72H172.125V335.508H167.301ZM196.169 357H191.345V346.416C191.345 344.904 191.081 343.8 190.553 343.104C190.025 342.408 189.293 342.06 188.357 342.06C187.877 342.06 187.385 342.156 186.881 342.348C186.377 342.54 185.897 342.816 185.441 343.176C185.009 343.512 184.613 343.92 184.253 344.4C183.893 344.88 183.629 345.408 183.461 345.984V357H178.637V338.136H182.993V341.628C183.689 340.428 184.697 339.492 186.017 338.82C187.337 338.148 188.825 337.812 190.481 337.812C191.657 337.812 192.617 338.028 193.361 338.46C194.105 338.892 194.681 339.456 195.089 340.152C195.497 340.848 195.773 341.64 195.917 342.528C196.085 343.416 196.169 344.316 196.169 345.228V357ZM211.271 357.36C209.759 357.36 208.391 357.108 207.167 356.604C205.943 356.076 204.899 355.368 204.035 354.48C203.171 353.592 202.499 352.56 202.019 351.384C201.563 350.208 201.335 348.972 201.335 347.676C201.335 346.332 201.563 345.072 202.019 343.896C202.475 342.696 203.135 341.652 203.999 340.764C204.863 339.852 205.907 339.132 207.131 338.604C208.379 338.076 209.771 337.812 211.307 337.812C212.843 337.812 214.211 338.076 215.411 338.604C216.635 339.132 217.667 339.84 218.507 340.728C219.371 341.616 220.019 342.648 220.451 343.824C220.907 345 221.135 346.224 221.135 347.496C221.135 347.808 221.123 348.108 221.099 348.396C221.099 348.684 221.075 348.924 221.027 349.116H206.447C206.519 349.86 206.699 350.52 206.987 351.096C207.275 351.672 207.647 352.164 208.103 352.572C208.559 352.98 209.075 353.292 209.651 353.508C210.227 353.724 210.827 353.832 211.451 353.832C212.411 353.832 213.311 353.604 214.151 353.148C215.015 352.668 215.603 352.044 215.915 351.276L220.055 352.428C219.359 353.868 218.243 355.056 216.707 355.992C215.195 356.904 213.383 357.36 211.271 357.36ZM216.167 345.984C216.047 344.568 215.519 343.44 214.583 342.6C213.671 341.736 212.555 341.304 211.235 341.304C210.587 341.304 209.975 341.424 209.399 341.664C208.847 341.88 208.355 342.192 207.923 342.6C207.491 343.008 207.131 343.5 206.843 344.076C206.579 344.652 206.423 345.288 206.375 345.984H216.167ZM234.046 357.36C232.75 357.36 231.55 357.108 230.446 356.604C229.342 356.1 228.394 355.404 227.602 354.516C226.81 353.628 226.186 352.596 225.73 351.42C225.298 350.22 225.082 348.936 225.082 347.568C225.082 346.2 225.286 344.928 225.694 343.752C226.126 342.576 226.714 341.544 227.458 340.656C228.202 339.768 229.09 339.072 230.122 338.568C231.154 338.064 232.282 337.812 233.506 337.812C234.898 337.812 236.146 338.148 237.25 338.82C238.378 339.492 239.254 340.368 239.878 341.448V330.72H244.702V351.456C244.702 351.96 244.786 352.32 244.954 352.536C245.122 352.752 245.41 352.872 245.818 352.896V357C244.978 357.168 244.294 357.252 243.766 357.252C242.902 357.252 242.194 357.036 241.642 356.604C241.09 356.172 240.778 355.608 240.706 354.912L240.598 353.724C239.902 354.924 238.954 355.836 237.754 356.46C236.578 357.06 235.342 357.36 234.046 357.36ZM235.306 353.256C235.762 353.256 236.23 353.184 236.71 353.04C237.19 352.872 237.634 352.644 238.042 352.356C238.45 352.068 238.81 351.732 239.122 351.348C239.458 350.964 239.71 350.544 239.878 350.088V345.588C239.686 345.06 239.41 344.58 239.05 344.148C238.714 343.692 238.318 343.308 237.862 342.996C237.43 342.66 236.962 342.396 236.458 342.204C235.978 342.012 235.498 341.916 235.018 341.916C234.298 341.916 233.626 342.072 233.002 342.384C232.402 342.696 231.886 343.128 231.454 343.68C231.022 344.208 230.686 344.82 230.446 345.516C230.206 346.212 230.086 346.932 230.086 347.676C230.086 348.468 230.218 349.2 230.482 349.872C230.746 350.544 231.106 351.132 231.562 351.636C232.018 352.14 232.558 352.536 233.182 352.824C233.83 353.112 234.538 353.256 235.306 353.256ZM279.938 357H275.114V346.416C275.114 344.904 274.85 343.8 274.322 343.104C273.794 342.408 273.062 342.06 272.126 342.06C271.646 342.06 271.154 342.156 270.65 342.348C270.146 342.54 269.666 342.816 269.21 343.176C268.778 343.512 268.382 343.92 268.022 344.4C267.662 344.88 267.398 345.408 267.23 345.984V357H262.406V338.136H266.762V341.628C267.458 340.428 268.466 339.492 269.786 338.82C271.106 338.148 272.594 337.812 274.25 337.812C275.426 337.812 276.386 338.028 277.13 338.46C277.874 338.892 278.45 339.456 278.858 340.152C279.266 340.848 279.542 341.64 279.686 342.528C279.854 343.416 279.938 344.316 279.938 345.228V357ZM295.04 357.36C293.528 357.36 292.16 357.108 290.936 356.604C289.712 356.076 288.668 355.368 287.804 354.48C286.94 353.592 286.268 352.56 285.788 351.384C285.332 350.208 285.104 348.972 285.104 347.676C285.104 346.332 285.332 345.072 285.788 343.896C286.244 342.696 286.904 341.652 287.768 340.764C288.632 339.852 289.676 339.132 290.9 338.604C292.148 338.076 293.54 337.812 295.076 337.812C296.612 337.812 297.98 338.076 299.18 338.604C300.404 339.132 301.436 339.84 302.276 340.728C303.14 341.616 303.788 342.648 304.22 343.824C304.676 345 304.904 346.224 304.904 347.496C304.904 347.808 304.892 348.108 304.868 348.396C304.868 348.684 304.844 348.924 304.796 349.116H290.216C290.288 349.86 290.468 350.52 290.756 351.096C291.044 351.672 291.416 352.164 291.872 352.572C292.328 352.98 292.844 353.292 293.42 353.508C293.996 353.724 294.596 353.832 295.22 353.832C296.18 353.832 297.08 353.604 297.92 353.148C298.784 352.668 299.372 352.044 299.684 351.276L303.824 352.428C303.128 353.868 302.012 355.056 300.476 355.992C298.964 356.904 297.152 357.36 295.04 357.36ZM299.936 345.984C299.816 344.568 299.288 343.44 298.352 342.6C297.44 341.736 296.324 341.304 295.004 341.304C294.356 341.304 293.744 341.424 293.168 341.664C292.616 341.88 292.124 342.192 291.692 342.6C291.26 343.008 290.9 343.5 290.612 344.076C290.348 344.652 290.192 345.288 290.144 345.984H299.936ZM314.587 357L307.639 338.136H312.607L317.395 353.076L322.219 338.136H326.755L319.807 357H314.587ZM339.544 357.36C338.032 357.36 336.664 357.108 335.44 356.604C334.216 356.076 333.172 355.368 332.308 354.48C331.444 353.592 330.772 352.56 330.292 351.384C329.836 350.208 329.608 348.972 329.608 347.676C329.608 346.332 329.836 345.072 330.292 343.896C330.748 342.696 331.408 341.652 332.272 340.764C333.136 339.852 334.18 339.132 335.404 338.604C336.652 338.076 338.044 337.812 339.58 337.812C341.116 337.812 342.484 338.076 343.684 338.604C344.908 339.132 345.94 339.84 346.78 340.728C347.644 341.616 348.292 342.648 348.724 343.824C349.18 345 349.408 346.224 349.408 347.496C349.408 347.808 349.396 348.108 349.372 348.396C349.372 348.684 349.348 348.924 349.3 349.116H334.72C334.792 349.86 334.972 350.52 335.26 351.096C335.548 351.672 335.92 352.164 336.376 352.572C336.832 352.98 337.348 353.292 337.924 353.508C338.5 353.724 339.1 353.832 339.724 353.832C340.684 353.832 341.584 353.604 342.424 353.148C343.288 352.668 343.876 352.044 344.188 351.276L348.328 352.428C347.632 353.868 346.516 355.056 344.98 355.992C343.468 356.904 341.656 357.36 339.544 357.36ZM344.44 345.984C344.32 344.568 343.792 343.44 342.856 342.6C341.944 341.736 340.828 341.304 339.508 341.304C338.86 341.304 338.248 341.424 337.672 341.664C337.12 341.88 336.628 342.192 336.196 342.6C335.764 343.008 335.404 343.5 335.116 344.076C334.852 344.652 334.696 345.288 334.648 345.984H344.44ZM365.738 342.312C364.274 342.336 362.966 342.624 361.814 343.176C360.662 343.704 359.834 344.508 359.33 345.588V357H354.506V338.136H358.934V342.168C359.27 341.52 359.666 340.944 360.122 340.44C360.578 339.912 361.07 339.456 361.598 339.072C362.126 338.688 362.654 338.4 363.182 338.208C363.734 337.992 364.262 337.884 364.766 337.884C365.03 337.884 365.222 337.884 365.342 337.884C365.486 337.884 365.618 337.896 365.738 337.92V342.312ZM391.822 356.028C391.174 356.316 390.382 356.604 389.446 356.892C388.51 357.18 387.526 357.324 386.494 357.324C385.822 357.324 385.186 357.24 384.586 357.072C384.01 356.904 383.494 356.64 383.038 356.28C382.606 355.896 382.258 355.416 381.994 354.84C381.73 354.24 381.598 353.52 381.598 352.68V341.844H379.114V338.136H381.598V332.016H386.422V338.136H390.382V341.844H386.422V351.06C386.422 351.732 386.59 352.212 386.926 352.5C387.286 352.764 387.718 352.896 388.222 352.896C388.726 352.896 389.218 352.812 389.698 352.644C390.178 352.476 390.562 352.332 390.85 352.212L391.822 356.028ZM404.749 357.36C403.213 357.36 401.833 357.096 400.609 356.568C399.385 356.04 398.341 355.332 397.477 354.444C396.637 353.532 395.989 352.488 395.533 351.312C395.077 350.136 394.849 348.9 394.849 347.604C394.849 346.284 395.077 345.036 395.533 343.86C395.989 342.684 396.637 341.652 397.477 340.764C398.341 339.852 399.385 339.132 400.609 338.604C401.833 338.076 403.213 337.812 404.749 337.812C406.285 337.812 407.653 338.076 408.853 338.604C410.077 339.132 411.109 339.852 411.949 340.764C412.813 341.652 413.473 342.684 413.929 343.86C414.385 345.036 414.613 346.284 414.613 347.604C414.613 348.9 414.385 350.136 413.929 351.312C413.473 352.488 412.825 353.532 411.985 354.444C411.145 355.332 410.113 356.04 408.889 356.568C407.665 357.096 406.285 357.36 404.749 357.36ZM399.817 347.604C399.817 348.444 399.937 349.212 400.177 349.908C400.441 350.58 400.789 351.168 401.221 351.672C401.677 352.176 402.205 352.572 402.805 352.86C403.405 353.124 404.053 353.256 404.749 353.256C405.445 353.256 406.093 353.124 406.693 352.86C407.293 352.572 407.809 352.176 408.241 351.672C408.697 351.168 409.045 350.568 409.285 349.872C409.549 349.176 409.681 348.408 409.681 347.568C409.681 346.752 409.549 345.996 409.285 345.3C409.045 344.604 408.697 344.004 408.241 343.5C407.809 342.996 407.293 342.612 406.693 342.348C406.093 342.06 405.445 341.916 404.749 341.916C404.053 341.916 403.405 342.06 402.805 342.348C402.205 342.636 401.677 343.032 401.221 343.536C400.789 344.04 400.441 344.64 400.177 345.336C399.937 346.032 399.817 346.788 399.817 347.604ZM111.5 407H106.676V396.416C106.676 394.904 106.412 393.8 105.884 393.104C105.38 392.408 104.672 392.06 103.76 392.06C102.8 392.06 101.9 392.432 101.06 393.176C100.22 393.896 99.62 394.844 99.26 396.02V407H94.436V396.416C94.436 394.904 94.172 393.8 93.644 393.104C93.14 392.408 92.432 392.06 91.52 392.06C90.584 392.06 89.684 392.42 88.82 393.14C87.98 393.86 87.38 394.808 87.02 395.984V407H82.196V388.136H86.552V391.628C87.248 390.404 88.196 389.468 89.396 388.82C90.62 388.148 92.012 387.812 93.572 387.812C95.156 387.812 96.38 388.196 97.244 388.964C98.108 389.732 98.66 390.68 98.9 391.808C99.668 390.512 100.64 389.528 101.816 388.856C102.992 388.16 104.336 387.812 105.848 387.812C107 387.812 107.948 388.028 108.692 388.46C109.436 388.892 110.012 389.456 110.42 390.152C110.828 390.848 111.104 391.64 111.248 392.528C111.416 393.416 111.5 394.316 111.5 395.228V407ZM126.608 407.36C125.096 407.36 123.728 407.108 122.504 406.604C121.28 406.076 120.236 405.368 119.372 404.48C118.508 403.592 117.836 402.56 117.356 401.384C116.9 400.208 116.672 398.972 116.672 397.676C116.672 396.332 116.9 395.072 117.356 393.896C117.812 392.696 118.472 391.652 119.336 390.764C120.2 389.852 121.244 389.132 122.468 388.604C123.716 388.076 125.108 387.812 126.644 387.812C128.18 387.812 129.548 388.076 130.748 388.604C131.972 389.132 133.004 389.84 133.844 390.728C134.708 391.616 135.356 392.648 135.788 393.824C136.244 395 136.472 396.224 136.472 397.496C136.472 397.808 136.46 398.108 136.436 398.396C136.436 398.684 136.412 398.924 136.364 399.116H121.784C121.856 399.86 122.036 400.52 122.324 401.096C122.612 401.672 122.984 402.164 123.44 402.572C123.896 402.98 124.412 403.292 124.988 403.508C125.564 403.724 126.164 403.832 126.788 403.832C127.748 403.832 128.648 403.604 129.488 403.148C130.352 402.668 130.94 402.044 131.252 401.276L135.392 402.428C134.696 403.868 133.58 405.056 132.044 405.992C130.532 406.904 128.72 407.36 126.608 407.36ZM131.504 395.984C131.384 394.568 130.856 393.44 129.92 392.6C129.008 391.736 127.892 391.304 126.572 391.304C125.924 391.304 125.312 391.424 124.736 391.664C124.184 391.88 123.692 392.192 123.26 392.6C122.828 393.008 122.468 393.5 122.18 394.076C121.916 394.652 121.76 395.288 121.712 395.984H131.504ZM150.319 407.36C148.807 407.36 147.439 407.108 146.215 406.604C144.991 406.076 143.947 405.368 143.083 404.48C142.219 403.592 141.547 402.56 141.067 401.384C140.611 400.208 140.383 398.972 140.383 397.676C140.383 396.332 140.611 395.072 141.067 393.896C141.523 392.696 142.183 391.652 143.047 390.764C143.911 389.852 144.955 389.132 146.179 388.604C147.427 388.076 148.819 387.812 150.355 387.812C151.891 387.812 153.259 388.076 154.459 388.604C155.683 389.132 156.715 389.84 157.555 390.728C158.419 391.616 159.067 392.648 159.499 393.824C159.955 395 160.183 396.224 160.183 397.496C160.183 397.808 160.171 398.108 160.147 398.396C160.147 398.684 160.123 398.924 160.075 399.116H145.495C145.567 399.86 145.747 400.52 146.035 401.096C146.323 401.672 146.695 402.164 147.151 402.572C147.607 402.98 148.123 403.292 148.699 403.508C149.275 403.724 149.875 403.832 150.499 403.832C151.459 403.832 152.359 403.604 153.199 403.148C154.063 402.668 154.651 402.044 154.963 401.276L159.103 402.428C158.407 403.868 157.291 405.056 155.755 405.992C154.243 406.904 152.431 407.36 150.319 407.36ZM155.215 395.984C155.095 394.568 154.567 393.44 153.631 392.6C152.719 391.736 151.603 391.304 150.283 391.304C149.635 391.304 149.023 391.424 148.447 391.664C147.895 391.88 147.403 392.192 146.971 392.6C146.539 393.008 146.179 393.5 145.891 394.076C145.627 394.652 145.471 395.288 145.423 395.984H155.215ZM176.445 406.028C175.797 406.316 175.005 406.604 174.069 406.892C173.133 407.18 172.149 407.324 171.117 407.324C170.445 407.324 169.809 407.24 169.209 407.072C168.633 406.904 168.117 406.64 167.661 406.28C167.229 405.896 166.881 405.416 166.617 404.84C166.353 404.24 166.221 403.52 166.221 402.68V391.844H163.737V388.136H166.221V382.016H171.045V388.136H175.005V391.844H171.045V401.06C171.045 401.732 171.213 402.212 171.549 402.5C171.909 402.764 172.341 402.896 172.845 402.896C173.349 402.896 173.841 402.812 174.321 402.644C174.801 402.476 175.185 402.332 175.473 402.212L176.445 406.028ZM191.818 407V401.816H195.778V407H191.818ZM202.064 407V401.816H206.024V407H202.064ZM212.31 407V401.816H216.27V407H212.31Z" fill="white"/>
<path opacity="0.15" d="M211.624 425.512L214.12 412.936H209.128V397.576H228.04V413.416L224.008 425.512H211.624ZM235.528 425.512L238.024 412.936H233.032V397.576H251.944V413.416L247.912 425.512H235.528Z" fill="white"/>
<path opacity="0.15" d="M68.12 163.92L65.624 176.496H70.616V191.856H51.704V176.016L55.736 163.92H68.12ZM92.024 163.92L89.528 176.496H94.52V191.856H75.608V176.016L79.64 163.92H92.024Z" fill="white"/>
<circle cx="256" cy="50" r="5.5" stroke="white"/>
<circle cx="282" cy="50" r="5.5" stroke="white"/>
<circle cx="308" cy="50" r="5.5" stroke="white"/>
<circle cx="334" cy="50" r="5.5" stroke="white"/>
<circle cx="230" cy="50" r="6" fill="white"/>
<circle cx="230" cy="50" r="9" stroke="white" stroke-width="2"/>
</svg>
