<svg width="50" height="50" viewBox="0 0 50 50" fill="none" xmlns="http://www.w3.org/2000/svg">
<path d="M9.97986 14.243C11.1775 12.5498 12.5747 11.1554 14.2713 9.96017C14.7703 9.66137 14.5707 8.96416 14.0717 8.76495L11.2773 8.06774L8.08366 7.17133C7.58465 7.07173 7.08565 7.56973 7.18545 8.06774L8.08366 11.255L8.88206 14.0438C8.98186 14.6414 9.68046 14.741 9.97986 14.243Z" fill="white"/>
<path d="M25.05 10.6574C17.0659 10.6574 10.6787 17.0319 10.6787 25C10.6787 32.8685 17.0659 39.3426 25.05 39.3426C32.9342 39.3426 39.4212 32.9681 39.4212 25C39.4212 17.0319 32.9342 10.6574 25.05 10.6574ZM25.05 36.0558C18.8623 36.0558 13.8723 31.0757 13.8723 24.9004C13.8723 18.7251 18.8623 13.745 25.05 13.745C31.2376 13.745 36.2276 18.7251 36.2276 24.9004C36.2276 31.0757 31.1378 36.0558 25.05 36.0558Z" fill="white"/>
<path d="M9.97986 14.243C11.1775 12.5498 12.5747 11.1554 14.2713 9.96017C14.7703 9.66137 14.5707 8.96416 14.0717 8.76495L11.2773 8.06774L8.08366 7.17133C7.58465 7.07173 7.08565 7.56973 7.18545 8.06774L8.08366 11.255L8.88206 14.0438C8.98186 14.6414 9.68046 14.741 9.97986 14.243Z" fill="white"/>
<path d="M25.05 6.5737C26.048 6.5737 27.046 6.67331 28.044 6.77291C28.6428 6.87251 29.042 6.2749 28.7426 5.77689L27.2456 3.18725L25.549 0.298805C25.2496 -0.0996016 24.6508 -0.0996016 24.4512 0.298805L22.7546 3.18725L21.2576 5.77689C20.9582 6.2749 21.3574 6.87251 21.9562 6.77291C22.9542 6.67331 24.052 6.5737 25.05 6.5737Z" fill="white"/>
<path d="M40.0199 14.243C40.3193 14.741 41.0179 14.5418 41.2175 14.0438L42.0159 11.1554L42.8143 8.06774C43.0139 7.56973 42.5149 7.07173 42.0159 7.17133L38.8223 8.06774L35.9281 8.86456C35.4291 8.96416 35.2295 9.66137 35.7285 10.0598C37.4251 11.1554 38.8223 12.6494 40.0199 14.243Z" fill="white"/>
<path d="M46.8065 22.8088L44.2116 21.3147C43.7126 21.0159 43.1138 21.4143 43.2136 22.012C43.4132 23.008 43.4132 24.004 43.4132 25C43.4132 25.996 43.3134 26.992 43.2136 27.9881C43.1138 28.5857 43.7126 28.9841 44.2116 28.6853L46.8065 27.1912L49.7007 25.498C50.0999 25.1992 50.0999 24.6016 49.7007 24.4024L46.8065 22.8088Z" fill="white"/>
<path d="M40.0199 35.6574C38.8223 37.3506 37.4251 38.745 35.7285 39.9403C35.2295 40.2391 35.4291 40.9363 35.9281 41.1355L38.8223 41.9323L42.0159 42.8287C42.5149 42.9283 42.9141 42.5299 42.8143 42.0319L42.0159 38.745L41.2175 35.8566C41.0179 35.3586 40.3193 35.259 40.0199 35.6574Z" fill="white"/>
<path d="M25.05 43.4263C24.052 43.4263 23.054 43.3267 22.056 43.2271C21.4572 43.1275 21.058 43.7251 21.3574 44.2231L22.8544 46.8128L24.551 49.7012C24.8504 50.0996 25.4492 50.0996 25.6488 49.7012L27.3455 46.8128L28.8425 44.2231C29.1419 43.7251 28.7427 43.1275 28.1439 43.2271C27.0461 43.3267 26.048 43.4263 25.05 43.4263Z" fill="white"/>
<path d="M9.97986 35.6574C9.68046 35.1594 8.98186 35.3586 8.78226 35.8566L8.08366 38.745L7.18545 41.9323C7.08565 42.4303 7.58465 42.9283 8.08366 42.7291L11.2773 41.8327L14.1715 41.0358C14.6705 40.9362 14.8701 40.239 14.3711 39.8406C12.6745 38.745 11.1775 37.3506 9.97986 35.6574Z" fill="white"/>
<path d="M6.58683 25C6.58683 24.004 6.68663 23.008 6.78643 22.012C6.88623 21.4143 6.28742 21.0159 5.78842 21.3147L3.19361 22.8088L0.299401 24.502C-0.0998004 24.8008 -0.0998004 25.3984 0.299401 25.5976L3.19361 27.2908L5.78842 28.7849C6.28742 29.0837 6.88623 28.6853 6.78643 28.0877C6.68663 26.992 6.58683 25.996 6.58683 25Z" fill="white"/>
</svg>
